<?xml version="1.0" encoding="utf-8"?>
<!-- Generator: Adobe Illustrator 22.0.1, SVG Export Plug-In . SVG Version: 6.00 Build 0)  -->
<svg version="1.1" id="Layer_1" xmlns="http://www.w3.org/2000/svg" xmlns:xlink="http://www.w3.org/1999/xlink" x="0px" y="0px"
	 viewBox="0 0 154 109.5" style="enable-background:new 0 0 154 109.5;" xml:space="preserve">
<style type="text/css">
	.st0{fill:#FFFFFF;}
	.st1{stroke:#000000;stroke-width:0.5;stroke-miterlimit:10;}
</style>
<g>
	<g>
		<path class="st0" d="M154.5,110c-51.3,0-102.7,0-154,0c0-36.5,0-73,0-109.5c51.3,0,102.7,0,154,0C154.5,37,154.5,73.5,154.5,110z
			 M95.1,56.5c7.1,9.2,14.1,18.3,21.2,27.6c0.7-0.1,1.4-0.2,2.5-0.4c-7.1-9.2-13.9-18.1-21.1-27.4c11.5-0.1,22.5-0.1,33.7-0.2
			c0-0.8-0.1-1.4-0.1-2.1c-3.7,0-7.3,0-10.9,0c-1.4-1.8-2.7-3.5-4.1-5.2c-2.4-3-4.9-5.9-8.1-8.1c-3.1-2.1-6.3-2.3-9.7-1
			c-2.5,1-4.5,2.9-6.2,4.9c-0.6,0.7-1.2,1.3-1.8,2.1c-3.4-4.5-6.8-8.6-10.1-13.2c1,0,1.6,0,2.1,0c8.8,0.8,17.6,1.6,26.4,2.3
			c2.7,0.2,5.5,0.3,8.2,0.2c2.9-0.1,4-1.3,4.6-4.3c-0.5-1.8-1.9-2.7-3.6-2.9c-1.2-0.2-2.5-0.2-3.7-0.2c-12.5,0.9-25.1,1.9-37.6,2.9
			c-0.6,0-1.2,0.2-1.8,0.4c2.4,0.9,3.6,3,5,4.8c2.5,3.2,5,6.5,7.5,9.7c0.7,0.8,1.3,1.7,2,2.7c-0.9,1.8-1.8,3.5-2.6,5
			c-6.3,0-12.4,0-18.4,0c-1.8-2.2-3.4-4.5-5.3-6.5c-2.2-2.3-4.6-4.6-7.1-6.6c-2.5-2-5.5-2.2-8.5-1c-2.3,0.9-4.3,2.2-6,4
			c-1,1.2-2.1,2.4-3.1,3.5c-3.6-3.9-9.9-12.2-10.5-13.9c0.5,0,1,0,1.5,0c9.4,0.8,18.8,1.6,28.1,2.4c2.7,0.2,5.3,0.3,8,0.2
			c3-0.1,4.2-1.3,4.7-4.5c-0.2-0.3-0.4-0.8-0.7-1.2c-1.5-1.6-3.4-2-5.5-1.8c-13.4,1-26.7,2-40.1,2.9c-0.5,0-1.1,0.2-1.6,0.3
			c1.8,0.7,2.6,2.2,3.6,3.5c3.4,4.3,6.8,8.6,10.2,13c0.4,0.5,0.7,1.1,1.1,1.7c-0.8,1.4-1.5,2.8-2.3,4.4c-5,0-10,0-15,0
			c0,0.9,0,1.4,0,2.1c7.6,0,15.1,0,22.7,0c7.3,9.2,14.5,18.4,21.7,27.6c0.8-0.1,1.4-0.3,2.4-0.5c-7.2-9.1-14-18-21.2-27.2
			C62.2,56.5,78.5,56.5,95.1,56.5z M109.7,25.6c3.9,0.1,7.9-2.7,8-8.1c0.1-4.1-3.7-7.8-7.8-7.8c-4.4,0-8.3,3.8-8.2,8
			C101.7,22.1,105.3,25.7,109.7,25.6z M58.1,25.7c4.4,0,8-3.5,8.1-7.8c0-4.4-3.5-8-7.9-8c-4.3,0-8,3.6-8.1,7.9
			C50.1,22,53.7,25.6,58.1,25.7z"/>
		<path d="M95.1,56.5c-16.6,0-33,0-49.8,0c7.2,9.2,14.1,18,21.2,27.2c-1,0.2-1.6,0.3-2.4,0.5c-7.3-9.2-14.5-18.4-21.7-27.6
			c-7.6,0-15,0-22.7,0c0-0.7,0-1.3,0-2.1c5,0,10,0,15,0c0.9-1.6,1.6-3,2.3-4.4c-0.4-0.6-0.7-1.2-1.1-1.7c-3.4-4.3-6.8-8.7-10.2-13
			c-1-1.3-1.8-2.8-3.6-3.5c0.5-0.1,1-0.3,1.6-0.3c13.4-1,26.7-2,40.1-2.9c2.1-0.2,4,0.2,5.5,1.8c0.3,0.4,0.5,0.8,0.7,1.2
			c-0.5,3.2-1.7,4.4-4.7,4.5c-2.7,0.1-5.3,0-8-0.2c-9.4-0.7-18.8-1.6-28.1-2.4c-0.5,0-1,0-1.5,0c0.6,1.8,6.9,10.1,10.5,13.9
			c1-1.2,2-2.4,3.1-3.5c1.6-1.8,3.7-3.1,6-4c3-1.1,6-1,8.5,1c2.5,2,4.9,4.3,7.1,6.6c1.9,2,3.5,4.2,5.3,6.5c6.1,0,12.1,0,18.4,0
			c0.8-1.6,1.7-3.3,2.6-5c-0.7-1-1.4-1.8-2-2.7c-2.5-3.2-5-6.5-7.5-9.7c-1.4-1.8-2.6-3.8-5-4.8c0.6-0.1,1.2-0.3,1.8-0.4
			c12.5-1,25.1-1.9,37.6-2.9c1.2-0.1,2.5,0,3.7,0.2c1.7,0.3,3.1,1.1,3.6,2.9c-0.6,3-1.7,4.2-4.6,4.3c-2.7,0.1-5.5,0.1-8.2-0.2
			c-8.8-0.7-17.6-1.5-26.4-2.3c-0.6,0-1.1,0-2.1,0c3.3,4.6,6.6,8.7,10.1,13.2c0.7-0.8,1.3-1.4,1.8-2.1c1.8-2,3.7-3.9,6.2-4.9
			c3.4-1.4,6.7-1.2,9.7,1c3.2,2.2,5.7,5.1,8.1,8.1c1.4,1.7,2.7,3.4,4.1,5.2c3.6,0,7.2,0,10.9,0c0,0.7,0.1,1.2,0.1,2.1
			c-11.1,0.1-22.1,0.1-33.7,0.2c7.2,9.3,14,18.2,21.1,27.4c-1.1,0.2-1.8,0.3-2.5,0.4C109.2,74.8,102.2,65.6,95.1,56.5z M57.7,54.2
			c-2.3-3.6-4.3-6.7-7.7-8.6c-3.4,1.3-6,3.5-8.5,6.1c0.8,1,1.5,1.7,2.2,2.5C48.3,54.2,52.8,54.2,57.7,54.2z M96,53.9
			c4.6,0,9,0,13.6,0c-2.2-3.5-4.2-6.7-7.6-8.6c-3.4,1.1-5.8,3.3-8.3,5.7C94.6,52.1,95.3,53,96,53.9z M91.2,53.6
			c0,0.1,0.1,0.3,0.1,0.4c0.5,0,1-0.1,1.8-0.1c-0.4-0.5-0.6-0.7-0.9-1.1C91.8,53.1,91.5,53.4,91.2,53.6z"/>
		<path d="M109.7,25.6c-4.3,0-7.9-3.5-8-7.9c-0.1-4.2,3.8-8.1,8.2-8c4.1,0,7.9,3.7,7.8,7.8C117.6,22.9,113.5,25.7,109.7,25.6z"/>
		<path d="M58.1,25.7c-4.4,0-8-3.7-8-8c0.1-4.3,3.8-7.9,8.1-7.9c4.4,0,8,3.6,7.9,8C66.1,22.2,62.5,25.7,58.1,25.7z"/>
		<path class="st0" d="M57.7,54.2c-4.9,0-9.4,0-14,0c-0.7-0.8-1.4-1.6-2.2-2.5c2.5-2.6,5.2-4.8,8.5-6.1
			C53.5,47.5,55.5,50.7,57.7,54.2z"/>
		<path class="st0" d="M96,53.9c-0.7-1-1.5-1.9-2.2-2.9c2.5-2.4,4.9-4.7,8.3-5.7c3.4,1.9,5.4,5.2,7.6,8.6
			C105,53.9,100.6,53.9,96,53.9z"/>
		<path class="st0" d="M91.2,53.6c0.3-0.2,0.6-0.5,1-0.8c0.3,0.4,0.5,0.6,0.9,1.1c-0.7,0-1.3,0.1-1.8,0.1
			C91.3,53.9,91.3,53.7,91.2,53.6z"/>
	</g>
</g>
<g>
	<path class="st1" d="M31.1,99.7l2.5-6.6h0.6l2.5,6.6h-0.8l-0.7-2h-2.5l-0.7,2H31.1z M33.8,94.1c-0.3,0.8-0.5,1.6-0.8,2.2L32.8,97h2
		l-0.2-0.6C34.3,95.7,34.1,94.9,33.8,94.1L33.8,94.1z"/>
	<path class="st1" d="M37.5,99.7v-7.1h0.7v7.1H37.5z"/>
	<path class="st1" d="M39.6,93.9v-0.9h0.7v0.9H39.6z M39.6,99.7V95h0.7v4.7H39.6z"/>
	<path class="st1" d="M43.4,94.9c0.2,0,0.3,0,0.5,0.1c0.1,0,0.3,0.1,0.4,0.2c0.1,0.1,0.2,0.1,0.2,0.2c0.1,0.1,0.1,0.1,0.1,0.2h0
		l0.1-0.5h0.5v4.9c0,0.4-0.1,0.7-0.2,0.9s-0.3,0.5-0.5,0.7c-0.2,0.2-0.4,0.3-0.7,0.4c-0.3,0.1-0.6,0.1-0.9,0.1c-0.3,0-0.5,0-0.8-0.1
		c-0.2-0.1-0.4-0.1-0.5-0.2v-0.6c0.1,0,0.2,0.1,0.3,0.1c0.1,0,0.2,0.1,0.3,0.1c0.1,0,0.2,0,0.3,0c0.1,0,0.2,0,0.4,0
		c0.5,0,0.9-0.1,1.2-0.4c0.3-0.3,0.4-0.6,0.4-1.2v-0.6h0c-0.2,0.2-0.3,0.3-0.5,0.4c-0.2,0.1-0.4,0.1-0.7,0.1c-0.1,0-0.2,0-0.4,0
		c-0.1,0-0.3-0.1-0.4-0.1c-0.1-0.1-0.3-0.2-0.4-0.3c-0.1-0.1-0.2-0.3-0.3-0.4c-0.1-0.2-0.2-0.4-0.2-0.6c-0.1-0.2-0.1-0.5-0.1-0.8
		c0-0.4,0.1-0.8,0.2-1.1c0.1-0.3,0.3-0.6,0.4-0.8s0.4-0.4,0.6-0.5S43.1,94.9,43.4,94.9z M42.2,97.4c0,0.4,0,0.7,0.1,0.9
		c0.1,0.2,0.2,0.4,0.3,0.5c0.1,0.1,0.3,0.2,0.4,0.3c0.1,0,0.3,0.1,0.4,0.1c0.2,0,0.4,0,0.6-0.1c0.2-0.1,0.4-0.2,0.5-0.4v-2.4
		c0-0.1-0.1-0.1-0.2-0.2c-0.1-0.1-0.1-0.1-0.2-0.2c-0.1-0.1-0.2-0.1-0.3-0.2s-0.2-0.1-0.4-0.1c-0.2,0-0.4,0-0.5,0.1
		c-0.2,0.1-0.3,0.2-0.4,0.4c-0.1,0.2-0.2,0.4-0.2,0.6C42.2,96.9,42.2,97.1,42.2,97.4z"/>
	<path class="st1" d="M47.3,95.7L47.3,95.7c0.1-0.1,0.2-0.2,0.3-0.3c0.1-0.1,0.2-0.2,0.3-0.2s0.2-0.1,0.4-0.2c0.1,0,0.3-0.1,0.5-0.1
		c0.2,0,0.4,0,0.5,0.1c0.2,0.1,0.3,0.2,0.4,0.3s0.2,0.3,0.3,0.5s0.1,0.5,0.1,0.8v3.1h-0.7v-3c0-0.4-0.1-0.7-0.2-0.9
		c-0.1-0.2-0.4-0.3-0.6-0.3c-0.2,0-0.5,0.1-0.7,0.2c-0.2,0.1-0.4,0.3-0.6,0.6v3.3h-0.7V95h0.5L47.3,95.7z"/>
	<path class="st1" d="M54.9,99.7h-0.7v-3c0-0.2,0-0.4-0.1-0.5c0-0.1-0.1-0.3-0.2-0.4c-0.1-0.1-0.2-0.2-0.3-0.2
		c-0.1,0-0.2-0.1-0.4-0.1c-0.2,0-0.5,0.1-0.7,0.2c-0.2,0.1-0.4,0.3-0.5,0.6v3.3h-0.7V95H52l0.1,0.6h0c0.1-0.1,0.2-0.2,0.3-0.3
		c0.1-0.1,0.2-0.2,0.3-0.2s0.2-0.1,0.4-0.2c0.1,0,0.3-0.1,0.4-0.1c0.3,0,0.6,0.1,0.8,0.3c0.2,0.2,0.4,0.4,0.5,0.7h0
		c0.2-0.3,0.4-0.5,0.6-0.7c0.2-0.2,0.5-0.2,0.9-0.2c0.2,0,0.3,0,0.5,0.1s0.3,0.1,0.5,0.3c0.1,0.1,0.3,0.3,0.4,0.5
		c0.1,0.2,0.1,0.5,0.1,0.8v3.1H57v-3c0-0.2,0-0.4-0.1-0.5c0-0.1-0.1-0.3-0.2-0.4c-0.1-0.1-0.2-0.2-0.3-0.2c-0.1,0-0.2-0.1-0.4-0.1
		c-0.2,0-0.5,0.1-0.7,0.2c-0.2,0.1-0.4,0.3-0.6,0.6V99.7z"/>
	<path class="st1" d="M61.1,99.1c0.2,0,0.4,0,0.6-0.1c0.2,0,0.4-0.1,0.6-0.2v0.6c-0.2,0.1-0.3,0.1-0.6,0.2c-0.2,0-0.5,0.1-0.7,0.1
		c-0.3,0-0.6,0-0.9-0.1c-0.3-0.1-0.5-0.2-0.7-0.4c-0.2-0.2-0.4-0.4-0.5-0.7c-0.1-0.3-0.2-0.7-0.2-1.1c0-0.4,0.1-0.8,0.2-1.1
		c0.1-0.3,0.3-0.6,0.4-0.8c0.2-0.2,0.4-0.4,0.6-0.5c0.2-0.1,0.5-0.2,0.7-0.2c0.2,0,0.5,0,0.7,0.1c0.2,0.1,0.4,0.2,0.5,0.4
		s0.3,0.4,0.4,0.7c0.1,0.3,0.1,0.6,0.1,1.1c0,0,0,0.1,0,0.1s0,0.1,0,0.2h-3c0,0.3,0,0.6,0.1,0.8c0.1,0.2,0.2,0.4,0.3,0.5
		c0.1,0.1,0.3,0.2,0.5,0.3C60.7,99.1,60.9,99.1,61.1,99.1z M60.7,95.5c-0.2,0-0.3,0-0.4,0.1c-0.1,0.1-0.3,0.2-0.4,0.3
		c-0.1,0.1-0.2,0.3-0.3,0.4c-0.1,0.2-0.1,0.3-0.1,0.5h2.2c0-0.2,0-0.4-0.1-0.5c0-0.2-0.1-0.3-0.2-0.4c-0.1-0.1-0.2-0.2-0.3-0.3
		S60.9,95.5,60.7,95.5z"/>
	<path class="st1" d="M64.3,95.7L64.3,95.7c0.1-0.1,0.2-0.2,0.3-0.3c0.1-0.1,0.2-0.2,0.3-0.2s0.2-0.1,0.4-0.2c0.1,0,0.3-0.1,0.5-0.1
		c0.2,0,0.4,0,0.5,0.1c0.2,0.1,0.3,0.2,0.4,0.3s0.2,0.3,0.3,0.5s0.1,0.5,0.1,0.8v3.1h-0.7v-3c0-0.4-0.1-0.7-0.2-0.9
		c-0.1-0.2-0.4-0.3-0.6-0.3c-0.2,0-0.5,0.1-0.7,0.2c-0.2,0.1-0.4,0.3-0.6,0.6v3.3h-0.7V95h0.5L64.3,95.7z"/>
	<path class="st1" d="M70.8,99.7c-0.1,0-0.2,0.1-0.3,0.1s-0.3,0-0.4,0c-0.2,0-0.4,0-0.6-0.1c-0.2-0.1-0.3-0.1-0.4-0.3
		c-0.1-0.1-0.2-0.2-0.2-0.4c-0.1-0.2-0.1-0.3-0.1-0.5v-2.8h-0.8V95h0.8v-1.3h0.7V95h1.3v0.7h-1.3v2.7c0,0.1,0,0.2,0,0.3
		c0,0.1,0.1,0.2,0.1,0.2s0.1,0.1,0.2,0.2c0.1,0,0.2,0.1,0.3,0.1c0.1,0,0.2,0,0.3,0s0.2,0,0.3-0.1V99.7z"/>
	<path class="st1" d="M75,98.7c0.2-0.7,0.5-1.4,0.7-2.2l1.2-3.4h0.7l-2.3,6.6h-0.6l-2.3-6.6h0.7l1.2,3.4
		C74.6,97.2,74.8,97.9,75,98.7L75,98.7z"/>
	<path class="st1" d="M80.2,99.1c0.2,0,0.4,0,0.6-0.1s0.4-0.1,0.6-0.2v0.6c-0.2,0.1-0.3,0.1-0.6,0.2c-0.2,0-0.5,0.1-0.7,0.1
		c-0.3,0-0.6,0-0.9-0.1s-0.5-0.2-0.7-0.4c-0.2-0.2-0.4-0.4-0.5-0.7c-0.1-0.3-0.2-0.7-0.2-1.1c0-0.4,0.1-0.8,0.2-1.1
		c0.1-0.3,0.3-0.6,0.4-0.8c0.2-0.2,0.4-0.4,0.6-0.5c0.2-0.1,0.5-0.2,0.7-0.2c0.2,0,0.5,0,0.7,0.1c0.2,0.1,0.4,0.2,0.5,0.4
		c0.2,0.2,0.3,0.4,0.4,0.7c0.1,0.3,0.1,0.6,0.1,1.1c0,0,0,0.1,0,0.1s0,0.1,0,0.2h-3c0,0.3,0,0.6,0.1,0.8c0.1,0.2,0.2,0.4,0.3,0.5
		c0.1,0.1,0.3,0.2,0.5,0.3C79.8,99.1,80,99.1,80.2,99.1z M79.8,95.5c-0.2,0-0.3,0-0.4,0.1s-0.3,0.2-0.4,0.3
		c-0.1,0.1-0.2,0.3-0.3,0.4c-0.1,0.2-0.1,0.3-0.1,0.5h2.2c0-0.2,0-0.4-0.1-0.5c0-0.2-0.1-0.3-0.2-0.4c-0.1-0.1-0.2-0.2-0.3-0.3
		C80.1,95.6,80,95.5,79.8,95.5z"/>
	<path class="st1" d="M83.4,95.7L83.4,95.7c0.1-0.1,0.2-0.2,0.3-0.3c0.1-0.1,0.2-0.2,0.3-0.2s0.2-0.1,0.4-0.2c0.1,0,0.3-0.1,0.5-0.1
		c0.2,0,0.4,0,0.5,0.1c0.2,0.1,0.3,0.2,0.4,0.3s0.2,0.3,0.3,0.5s0.1,0.5,0.1,0.8v3.1h-0.7v-3c0-0.4-0.1-0.7-0.2-0.9
		c-0.1-0.2-0.4-0.3-0.6-0.3c-0.2,0-0.5,0.1-0.7,0.2c-0.2,0.1-0.4,0.3-0.6,0.6v3.3h-0.7V95h0.5L83.4,95.7z"/>
	<path class="st1" d="M89.9,99.7c-0.1,0-0.2,0.1-0.3,0.1s-0.3,0-0.4,0c-0.2,0-0.4,0-0.6-0.1c-0.2-0.1-0.3-0.1-0.4-0.3
		C88,99.3,88,99.2,87.9,99c-0.1-0.2-0.1-0.3-0.1-0.5v-2.8H87V95h0.8v-1.3h0.7V95h1.3v0.7h-1.3v2.7c0,0.1,0,0.2,0,0.3
		c0,0.1,0.1,0.2,0.1,0.2s0.1,0.1,0.2,0.2c0.1,0,0.2,0.1,0.3,0.1c0.1,0,0.2,0,0.3,0s0.2,0,0.3-0.1V99.7z"/>
	<path class="st1" d="M92.5,99.8c-0.2,0-0.4,0-0.6-0.1c-0.2-0.1-0.3-0.1-0.5-0.2c-0.1-0.1-0.2-0.2-0.3-0.3c-0.1-0.1-0.2-0.3-0.2-0.4
		c0-0.1-0.1-0.2-0.1-0.4c0-0.1,0-0.3,0-0.5V95h0.7v2.9c0,0.3,0,0.5,0.1,0.6c0.1,0.2,0.2,0.4,0.3,0.5c0.2,0.1,0.4,0.2,0.6,0.2
		c0.3,0,0.5-0.1,0.6-0.2s0.3-0.3,0.3-0.5c0.1-0.2,0.1-0.4,0.1-0.6V95h0.7v2.9c0,0.2,0,0.3,0,0.4c0,0.1,0,0.3-0.1,0.4
		c-0.1,0.2-0.1,0.3-0.2,0.4c-0.1,0.1-0.2,0.3-0.3,0.4s-0.3,0.2-0.5,0.2C92.9,99.8,92.7,99.8,92.5,99.8z"/>
	<path class="st1" d="M97.9,95.6L97.9,95.6c-0.2,0-0.4,0-0.5,0s-0.3,0.1-0.4,0.1s-0.3,0.1-0.4,0.2c-0.1,0.1-0.2,0.2-0.3,0.3v3.3
		h-0.7V95h0.5l0.1,0.7h0c0.1-0.1,0.2-0.2,0.3-0.3c0.1-0.1,0.2-0.2,0.3-0.3s0.3-0.1,0.4-0.2c0.1,0,0.3-0.1,0.5-0.1c0,0,0.1,0,0.1,0
		s0.1,0,0.1,0V95.6z"/>
	<path class="st1" d="M100.7,99.1c0.2,0,0.4,0,0.6-0.1s0.4-0.1,0.6-0.2v0.6c-0.2,0.1-0.3,0.1-0.6,0.2c-0.2,0-0.5,0.1-0.7,0.1
		c-0.3,0-0.6,0-0.9-0.1s-0.5-0.2-0.7-0.4c-0.2-0.2-0.4-0.4-0.5-0.7c-0.1-0.3-0.2-0.7-0.2-1.1c0-0.4,0.1-0.8,0.2-1.1
		c0.1-0.3,0.3-0.6,0.4-0.8c0.2-0.2,0.4-0.4,0.6-0.5c0.2-0.1,0.5-0.2,0.7-0.2c0.2,0,0.5,0,0.7,0.1c0.2,0.1,0.4,0.2,0.5,0.4
		c0.2,0.2,0.3,0.4,0.4,0.7c0.1,0.3,0.1,0.6,0.1,1.1c0,0,0,0.1,0,0.1s0,0.1,0,0.2h-3c0,0.3,0,0.6,0.1,0.8c0.1,0.2,0.2,0.4,0.3,0.5
		c0.1,0.1,0.3,0.2,0.5,0.3C100.3,99.1,100.5,99.1,100.7,99.1z M100.3,95.5c-0.2,0-0.3,0-0.4,0.1s-0.3,0.2-0.4,0.3
		c-0.1,0.1-0.2,0.3-0.3,0.4c-0.1,0.2-0.1,0.3-0.1,0.5h2.2c0-0.2,0-0.4-0.1-0.5s-0.1-0.3-0.2-0.4c-0.1-0.1-0.2-0.2-0.3-0.3
		C100.6,95.6,100.5,95.5,100.3,95.5z"/>
	<path class="st1" d="M103.7,96.3c0,0.1,0,0.2,0.1,0.3c0,0.1,0.1,0.1,0.2,0.2c0.1,0.1,0.2,0.1,0.3,0.1c0.1,0,0.2,0.1,0.3,0.1
		c0.2,0,0.3,0.1,0.5,0.1c0.1,0,0.3,0.1,0.4,0.2c0.1,0.1,0.2,0.2,0.3,0.4c0.1,0.2,0.1,0.4,0.1,0.6c0,0.2,0,0.4-0.1,0.6
		c-0.1,0.2-0.2,0.3-0.4,0.5c-0.2,0.1-0.3,0.2-0.5,0.3c-0.2,0.1-0.4,0.1-0.7,0.1c-0.2,0-0.3,0-0.4,0c-0.1,0-0.2,0-0.3-0.1
		s-0.2-0.1-0.2-0.1c-0.1,0-0.1-0.1-0.2-0.1v-0.6c0.2,0.1,0.4,0.1,0.5,0.2s0.4,0.1,0.6,0.1c0.2,0,0.3,0,0.4,0c0.1,0,0.2-0.1,0.3-0.1
		c0.1-0.1,0.2-0.1,0.2-0.2s0.1-0.2,0.1-0.3c0-0.1,0-0.2-0.1-0.3s-0.1-0.2-0.2-0.2c-0.1-0.1-0.2-0.1-0.3-0.1c-0.1,0-0.2-0.1-0.3-0.1
		c-0.2,0-0.3-0.1-0.5-0.1c-0.2,0-0.3-0.1-0.4-0.2c-0.1-0.1-0.2-0.2-0.3-0.4c-0.1-0.2-0.1-0.3-0.1-0.6c0-0.2,0-0.5,0.1-0.6
		c0.1-0.2,0.2-0.3,0.3-0.4c0.1-0.1,0.3-0.2,0.5-0.3c0.2-0.1,0.4-0.1,0.6-0.1c0.2,0,0.5,0,0.7,0.1c0.2,0,0.4,0.1,0.6,0.2v0.6
		c-0.2-0.1-0.4-0.1-0.5-0.2c-0.2,0-0.4-0.1-0.6-0.1c-0.2,0-0.3,0-0.4,0.1c-0.1,0-0.2,0.1-0.3,0.1c-0.1,0.1-0.1,0.1-0.2,0.2
		C103.8,96.1,103.7,96.1,103.7,96.3z"/>
	<path class="st1" d="M107.1,98.6h0.9l-0.8,3h-0.9L107.1,98.6z"/>
	<path class="st1" d="M112.1,93.1V99h2.9v0.7h-3.7v-6.6H112.1z"/>
	<path class="st1" d="M116.9,93.1V99h2.9v0.7h-3.7v-6.6H116.9z"/>
	<path class="st1" d="M123.5,93.7c-0.3,0-0.7,0.1-0.9,0.2c-0.3,0.1-0.5,0.3-0.8,0.5c-0.2,0.2-0.4,0.5-0.5,0.9
		c-0.1,0.3-0.2,0.7-0.2,1.2c0,0.5,0.1,0.8,0.2,1.2c0.1,0.3,0.3,0.6,0.5,0.8c0.2,0.2,0.5,0.4,0.8,0.5c0.3,0.1,0.6,0.2,1,0.2
		c0.1,0,0.2,0,0.3,0c0.1,0,0.2,0,0.3,0c0.1,0,0.2,0,0.3-0.1c0.1,0,0.2-0.1,0.3-0.1v0.7c-0.2,0.1-0.4,0.1-0.6,0.2
		c-0.2,0-0.5,0.1-0.7,0.1c-0.5,0-0.9-0.1-1.3-0.2s-0.7-0.4-1-0.7s-0.5-0.6-0.6-1c-0.1-0.4-0.2-0.9-0.2-1.4c0-0.5,0.1-1,0.2-1.4
		c0.1-0.4,0.3-0.8,0.6-1.1c0.3-0.3,0.6-0.5,1-0.7c0.4-0.2,0.8-0.3,1.3-0.3c0.1,0,0.3,0,0.4,0s0.2,0,0.4,0c0.1,0,0.2,0,0.3,0.1
		c0.1,0,0.2,0.1,0.2,0.1v0.7c-0.2-0.1-0.4-0.1-0.6-0.2C123.9,93.7,123.7,93.7,123.5,93.7z"/>
</g>
<rect x="49.5" y="81.1" class="st0" width="0.1" height="0.1"/>
</svg>
