<?xml version="1.0" standalone="no"?>
<!DOCTYPE svg PUBLIC "-//W3C//DTD SVG 20010904//EN"
 "http://www.w3.org/TR/2001/REC-SVG-20010904/DTD/svg10.dtd">
<svg version="1.0" xmlns="http://www.w3.org/2000/svg"
 width="1156.000000pt" height="1156.000000pt" viewBox="0 0 1156.000000 1156.000000"
 preserveAspectRatio="xMidYMid meet">
<metadata>
Created by potrace 1.11, written by Peter Selinger 2001-2013
</metadata>
<g transform="translate(0.000000,1156.000000) scale(0.100000,-0.100000)"
fill="#000000" stroke="none">
<path d="M9107 9414 c-3 -3 -15 -6 -28 -8 -35 -4 -109 -26 -146 -42 -69 -30
-156 -74 -163 -83 -3 -4 -25 -22 -50 -41 -52 -40 -123 -110 -112 -110 4 0 -1
-5 -10 -11 -10 -5 -18 -17 -18 -26 0 -9 -3 -13 -7 -9 -8 8 -104 -155 -97 -166
3 -4 1 -8 -4 -8 -5 0 -13 -15 -17 -32 -4 -18 -10 -40 -12 -48 -2 -8 -6 -24 -8
-35 -2 -11 -4 -20 -5 -20 -17 0 -11 -280 8 -309 3 -6 8 -22 10 -36 3 -25 16
-57 57 -140 41 -83 59 -111 108 -161 16 -16 26 -29 22 -29 -4 0 8 -12 27 -27
18 -15 35 -30 38 -33 31 -32 215 -140 239 -140 5 0 22 -5 38 -12 32 -13 46
-16 88 -21 17 -2 35 -6 40 -9 12 -7 196 -3 250 6 85 14 264 87 307 126 9 8 41
35 72 60 30 25 55 48 56 52 0 4 15 23 34 44 35 38 95 150 118 219 7 22 15 42
18 45 3 3 6 12 6 20 1 8 5 31 9 50 19 102 23 189 11 269 -14 93 -18 107 -52
174 -10 20 -10 26 -1 21 9 -6 9 -4 -1 8 -6 8 -23 35 -36 60 -13 25 -31 54 -39
64 -75 91 -91 109 -99 106 -5 -1 -7 2 -3 7 3 6 -4 15 -15 21 -12 6 -29 19 -39
28 -9 9 -30 26 -45 37 -16 11 -35 27 -44 35 -9 8 -17 14 -19 13 -1 -2 -31 11
-65 26 -34 16 -66 27 -70 25 -5 -3 -8 -1 -8 4 0 5 -15 12 -32 16 -18 3 -44 8
-58 11 -32 8 -247 15 -253 9z"/>
<path d="M4015 9401 c-11 -4 -30 -6 -42 -5 -13 1 -23 -3 -23 -8 0 -6 -6 -8
-14 -5 -8 3 -17 3 -20 -1 -4 -3 -12 -7 -19 -8 -28 -4 -167 -66 -167 -75 0 -5
-5 -9 -11 -9 -6 0 -21 -8 -34 -17 -12 -10 -33 -25 -46 -33 -12 -8 -37 -29 -54
-47 -18 -18 -35 -29 -39 -26 -3 4 -6 -1 -6 -10 0 -8 -12 -25 -26 -36 -15 -12
-23 -21 -18 -21 5 0 4 -4 -2 -8 -16 -11 -66 -80 -62 -86 2 -3 -4 -14 -12 -24
-8 -10 -16 -25 -18 -33 -2 -7 -7 -16 -11 -19 -8 -6 -36 -91 -33 -102 1 -5 -2
-8 -6 -8 -4 0 -8 -8 -9 -17 -1 -10 -4 -36 -8 -58 -10 -56 -12 -215 -3 -215 4
0 6 -14 4 -30 -2 -17 1 -33 6 -36 5 -3 7 -12 4 -20 -3 -8 -2 -14 2 -14 4 0 8
-8 9 -19 1 -10 9 -36 18 -57 9 -21 17 -41 17 -44 1 -4 15 -29 69 -119 8 -13
29 -39 47 -57 18 -19 30 -34 28 -34 -3 0 6 -11 20 -25 14 -14 29 -25 34 -25 5
0 13 -6 17 -14 13 -23 85 -76 94 -70 5 3 9 0 9 -5 0 -6 7 -11 15 -11 8 0 15
-4 15 -10 0 -5 4 -10 9 -10 5 0 30 -10 57 -22 27 -12 52 -21 57 -20 4 1 7 -2
7 -6 0 -7 24 -12 68 -15 6 0 12 -3 12 -7 0 -3 17 -7 38 -9 59 -4 106 -8 117
-11 6 -1 12 -2 15 -1 3 2 27 4 54 7 27 2 58 6 70 8 57 11 120 28 130 34 6 3
18 7 26 9 8 1 16 7 18 13 2 5 8 8 13 4 5 -3 22 4 38 15 16 12 35 21 42 21 6 0
31 16 55 35 24 20 46 37 50 38 10 3 94 87 94 93 0 3 6 11 13 18 23 24 56 71
56 80 -1 5 5 12 13 17 7 5 14 12 14 16 3 20 29 73 36 73 4 0 5 7 2 15 -4 8 -1
15 5 15 6 0 10 3 9 8 -1 4 5 27 12 52 16 53 17 55 25 145 7 84 7 76 0 150 -7
69 -12 100 -14 100 -3 0 -6 11 -15 52 -2 12 -9 30 -15 41 -6 11 -7 22 -4 26 3
3 1 6 -5 6 -7 0 -12 7 -12 15 0 45 -139 226 -230 300 -40 33 -100 67 -100 58
0 -4 -5 -1 -10 8 -5 9 -30 23 -55 30 -25 7 -45 17 -45 21 0 4 -11 8 -25 8 -14
0 -25 4 -25 8 0 4 -8 8 -17 8 -10 1 -31 5 -48 9 -41 10 -235 14 -260 6z"/>
<path d="M9595 7551 c-2 -2 -31 -5 -63 -6 -33 -2 -95 -7 -138 -11 -44 -3 -101
-8 -129 -9 -27 -2 -50 -4 -50 -5 0 -1 -25 -3 -55 -5 -78 -4 -224 -15 -300 -22
-36 -3 -92 -6 -125 -8 -33 -2 -60 -4 -60 -5 0 -2 -139 -12 -192 -13 -24 -1
-43 -4 -43 -7 0 -3 -30 -6 -68 -7 -69 -2 -177 -10 -177 -13 0 0 -36 -3 -80 -5
-44 -2 -116 -7 -160 -11 -44 -4 -105 -8 -135 -10 -30 -1 -55 -3 -55 -4 0 -1
-29 -3 -65 -5 -36 -2 -65 -4 -65 -5 0 -3 -74 -7 -182 -12 -44 -1 -80 -5 -78
-8 3 -4 -76 -10 -202 -13 -24 -1 -43 -4 -43 -7 0 -3 -19 -5 -43 -6 -23 0 -85
-4 -137 -8 -121 -10 -175 -14 -275 -21 -44 -3 -102 -7 -130 -10 -27 -2 -81 -6
-120 -9 -38 -3 -101 -8 -140 -11 -38 -3 -101 -8 -140 -11 -138 -8 -212 -17
-270 -31 -44 -10 -44 -10 -52 -13 -14 -4 -28 -7 -48 -9 -18 -2 -17 -4 5 -14
14 -6 28 -16 32 -22 4 -5 11 -10 15 -11 26 -3 62 -27 107 -69 11 -12 29 -24
39 -28 9 -3 17 -14 17 -22 0 -9 5 -13 10 -10 6 3 10 2 10 -2 0 -5 15 -25 33
-44 63 -68 87 -99 87 -109 0 -5 4 -10 8 -10 4 0 19 -18 32 -39 14 -21 28 -37
33 -34 4 2 7 -3 7 -11 0 -9 5 -16 12 -16 6 0 8 -3 5 -6 -4 -4 1 -14 11 -23 9
-9 44 -52 77 -96 68 -90 85 -112 103 -130 6 -8 12 -18 12 -23 0 -6 3 -12 8
-14 4 -1 25 -25 47 -53 22 -27 45 -53 50 -57 6 -4 6 -8 2 -8 -4 0 3 -11 15
-25 53 -59 58 -65 58 -75 0 -5 5 -10 10 -10 6 0 10 -5 10 -10 0 -6 13 -24 30
-42 17 -17 30 -36 30 -42 0 -6 14 -24 30 -38 17 -15 30 -29 28 -31 -3 -3 42
-64 67 -91 6 -6 22 -27 35 -46 13 -19 30 -41 37 -48 7 -7 27 -33 44 -57 18
-25 36 -45 41 -45 4 0 8 -6 8 -13 0 -7 9 -19 19 -27 11 -7 18 -16 16 -20 -2
-3 7 -19 21 -36 35 -42 51 -62 95 -124 21 -30 43 -60 49 -67 5 -6 6 -13 2 -15
-4 -2 -16 -21 -28 -43 -63 -122 -89 -171 -97 -176 -5 -3 -9 -10 -10 -15 -2
-21 -22 -64 -30 -64 -4 0 -6 -4 -2 -9 3 -5 -1 -15 -8 -23 -7 -7 -21 -32 -31
-55 -11 -24 -23 -43 -28 -43 -5 0 -7 -4 -4 -8 3 -5 -2 -19 -10 -31 -12 -16
-19 -19 -28 -12 -7 6 -16 7 -20 3 -11 -11 -50 -9 -58 3 -5 7 -8 7 -8 0 0 -12
-119 -13 -137 -2 -6 4 -14 3 -17 -2 -7 -10 -25 -9 -42 2 -6 3 -14 4 -18 0 -10
-11 -55 -12 -62 -2 -3 5 -10 6 -16 3 -18 -11 -78 -13 -84 -3 -3 5 -11 6 -17 2
-17 -11 -57 -11 -63 -1 -3 5 -13 3 -21 -4 -9 -7 -17 -13 -18 -13 -1 0 -9 6
-18 13 -8 7 -18 9 -21 4 -3 -5 -22 -7 -43 -5 -50 4 -53 4 -85 -1 -16 -2 -30 0
-34 5 -3 5 -11 6 -17 2 -18 -11 -71 -10 -79 2 -5 7 -8 7 -8 0 0 -12 -119 -13
-137 -2 -6 4 -14 3 -17 -2 -7 -10 -25 -9 -43 2 -6 4 -14 4 -17 -1 -3 -5 -22
-7 -43 -5 -50 4 -53 4 -85 -1 -16 -2 -30 0 -34 5 -3 5 -11 6 -17 2 -18 -11
-71 -10 -79 2 -5 7 -8 7 -8 0 0 -12 -119 -13 -137 -2 -6 4 -14 3 -17 -2 -7
-10 -25 -9 -42 2 -6 3 -14 4 -18 0 -10 -11 -55 -12 -62 -2 -3 5 -10 6 -16 3
-18 -11 -78 -13 -84 -2 -3 5 -12 4 -21 -4 -19 -16 -19 -16 -45 14 -11 13 -33
38 -49 56 -16 17 -27 32 -24 32 3 0 -4 10 -14 23 -64 73 -107 130 -103 134 2
3 -8 15 -22 28 -14 13 -26 28 -26 32 0 5 -9 14 -20 21 -11 7 -20 16 -20 21 0
9 -40 58 -96 117 -17 18 -30 35 -27 37 2 3 -99 109 -225 236 -126 127 -226
234 -223 237 3 3 1 4 -5 2 -10 -3 -101 74 -197 165 -15 15 -32 27 -36 27 -5 0
-17 11 -27 25 -10 14 -24 25 -31 25 -6 0 -13 4 -15 9 -1 5 -34 32 -73 60 -38
28 -74 55 -80 59 -5 5 -25 15 -42 22 -18 8 -33 19 -33 23 0 5 -4 6 -9 2 -5 -3
-20 -1 -33 4 -49 20 -64 25 -83 27 -11 2 -41 7 -66 12 -25 5 -88 7 -140 5
-114 -4 -119 -4 -119 -14 0 -4 -9 -5 -19 -2 -11 3 -35 0 -53 -6 -18 -6 -45
-12 -60 -13 -15 -1 -25 -5 -23 -8 4 -6 -81 -32 -89 -27 -2 1 -13 -7 -25 -17
-12 -11 -21 -16 -21 -13 0 4 -24 -6 -54 -22 -30 -17 -57 -27 -60 -24 -3 4 -6
2 -6 -4 0 -5 -11 -15 -24 -21 -14 -6 -44 -23 -68 -38 -24 -15 -44 -26 -46 -25
-2 1 -12 -7 -22 -19 -10 -12 -22 -22 -27 -23 -9 -2 -35 -22 -63 -48 -9 -8 -24
-19 -34 -22 -9 -4 -14 -11 -11 -17 3 -5 1 -10 -6 -10 -15 0 -99 -86 -92 -94 4
-3 0 -6 -7 -6 -14 0 -50 -37 -50 -52 0 -4 -3 -7 -7 -6 -5 2 -9 0 -11 -4 -2 -4
-21 -26 -42 -48 -22 -23 -40 -46 -40 -51 0 -6 -4 -7 -10 -4 -5 3 -10 1 -10 -6
0 -6 -11 -22 -26 -35 -14 -13 -23 -24 -20 -24 3 0 -8 -14 -24 -30 -17 -17 -30
-36 -30 -42 0 -6 -3 -8 -7 -5 -3 4 -12 -1 -18 -10 -12 -16 -14 -16 -29 0 -10
9 -15 17 -13 17 3 0 -19 25 -49 55 -30 30 -54 57 -54 59 0 5 -44 56 -90 105
-8 9 -37 44 -64 79 -27 34 -53 62 -57 62 -5 0 -9 7 -9 15 0 8 -4 15 -8 15 -4
0 -19 18 -32 40 -14 22 -31 40 -38 40 -7 0 -11 4 -7 9 3 6 -3 14 -12 20 -10 6
-14 11 -9 11 5 0 -4 11 -20 25 -16 14 -25 25 -21 25 4 0 -2 10 -13 23 -12 12
-36 42 -53 66 -18 24 -42 54 -54 67 -12 13 -19 24 -15 24 4 1 -4 10 -17 20
-13 11 -20 20 -17 20 8 0 -10 23 -37 48 -9 9 -17 22 -17 29 0 7 -4 13 -8 13
-4 0 -16 15 -27 33 -10 17 -27 41 -38 52 -10 11 -28 37 -40 58 -11 20 -24 37
-29 37 -4 0 -8 4 -8 10 0 10 -80 131 -93 141 -5 3 -8 8 -7 10 4 8 -24 59 -32
59 -4 0 -8 8 -8 18 0 10 -5 23 -12 30 -6 6 -9 14 -7 17 9 8 137 8 224 0 44 -4
100 -9 125 -10 25 -2 45 -4 45 -5 0 -1 23 -3 50 -5 47 -3 92 -7 245 -21 36 -4
86 -7 113 -7 26 -1 47 -4 47 -7 0 -3 33 -6 73 -8 84 -4 142 -9 142 -11 0 -2
34 -4 75 -7 101 -6 175 -12 175 -14 0 -1 29 -4 65 -6 140 -8 155 -10 165 -15
6 -2 31 -4 57 -4 27 0 48 -2 48 -5 0 -3 21 -6 48 -7 44 -1 79 -4 262 -19 41
-3 91 -7 110 -7 19 -1 38 -6 42 -12 5 -6 8 -5 8 3 0 7 5 10 11 7 5 -4 33 -9
62 -11 29 -2 79 -6 112 -9 168 -14 213 -17 242 -17 18 0 33 -5 33 -10 0 -7 5
-6 13 1 8 6 17 8 20 5 4 -4 30 -8 59 -10 29 -2 87 -6 128 -9 41 -3 103 -7 137
-8 35 -1 63 -4 63 -7 0 -6 133 -11 335 -13 80 -1 143 -6 148 -12 4 -7 9 -7 15
0 9 13 62 15 62 3 0 -5 5 -6 12 -2 6 4 55 8 107 9 103 3 188 12 205 23 6 4 13
7 16 7 19 3 80 31 80 37 0 4 6 8 13 8 20 0 117 116 117 140 0 6 7 22 16 35 9
14 13 25 10 25 -4 0 -1 10 5 22 7 13 14 32 15 43 10 71 13 86 19 95 3 5 2 10
-3 10 -5 0 -9 6 -9 13 0 29 -103 167 -126 167 -8 0 -23 11 -58 43 -10 9 -19
15 -19 13 0 -3 -25 6 -55 19 -30 14 -55 23 -55 21 0 -3 -15 0 -32 6 -32 10
-285 19 -301 10 -5 -2 -43 -6 -85 -8 -42 -2 -111 -6 -152 -9 -41 -3 -104 -7
-140 -8 -36 -1 -68 -6 -72 -12 -5 -6 -8 -5 -8 3 0 7 -5 10 -12 6 -10 -6 -49
-10 -193 -17 -28 -2 -56 -6 -63 -10 -7 -5 -12 -3 -12 5 0 8 -3 9 -8 3 -4 -5
-27 -10 -52 -9 -25 0 -53 -4 -62 -8 -10 -5 -19 -4 -23 2 -4 6 -11 8 -16 4 -11
-6 -114 -15 -206 -18 -29 0 -53 -3 -53 -6 0 -4 -59 -8 -203 -13 -26 -1 -47 -4
-47 -7 0 -3 -19 -5 -43 -6 -41 -1 -165 -8 -332 -20 -44 -3 -100 -6 -125 -7
-25 -2 -51 -6 -57 -10 -8 -5 -13 -3 -13 3 0 6 -5 8 -12 3 -7 -4 -33 -8 -58
-10 -49 -2 -174 -10 -285 -18 -38 -2 -101 -7 -140 -9 -38 -3 -70 -5 -70 -6 0
-2 -88 -9 -150 -13 -22 -1 -45 -6 -52 -10 -6 -4 -14 -3 -18 3 -4 6 -11 7 -17
4 -6 -4 -36 -8 -67 -9 -31 -2 -56 -4 -56 -4 0 -3 -166 -13 -232 -14 -35 -1
-63 -4 -63 -7 0 -3 -24 -5 -53 -6 -47 0 -120 -5 -327 -21 -36 -3 -86 -5 -113
-6 -26 -1 -47 -5 -47 -10 0 -4 -9 -3 -20 3 -14 8 -20 8 -20 0 0 -7 -13 -10
-34 -7 -19 3 -37 2 -40 -1 -3 -2 -32 -6 -63 -8 -32 -2 -69 -7 -83 -11 -14 -3
-28 -7 -32 -8 -5 -2 -13 -3 -19 -4 -18 -2 1 -21 22 -21 10 0 19 -4 19 -8 0
-10 51 -37 63 -33 5 1 6 -3 3 -7 -3 -5 9 -20 26 -33 17 -13 35 -28 39 -34 5
-5 19 -22 31 -37 13 -14 30 -36 38 -48 8 -12 23 -31 32 -42 10 -12 18 -25 18
-29 0 -5 13 -22 30 -39 16 -17 30 -35 30 -40 0 -4 3 -10 8 -12 4 -1 32 -34 62
-73 72 -93 73 -94 90 -113 8 -10 26 -33 40 -52 13 -19 35 -46 47 -60 13 -14
26 -33 29 -43 3 -9 10 -15 15 -12 5 4 9 -1 9 -9 0 -9 5 -16 10 -16 6 0 10 -5
10 -10 0 -6 14 -24 30 -42 17 -17 30 -34 30 -38 0 -4 10 -18 23 -32 44 -49 55
-66 50 -72 -4 -3 0 -6 8 -6 8 0 25 -19 39 -41 14 -23 42 -60 62 -82 21 -23 38
-46 38 -51 0 -5 10 -18 23 -30 12 -11 33 -37 47 -56 28 -39 43 -58 82 -105 16
-18 28 -38 28 -44 0 -6 7 -11 15 -11 8 0 15 -6 15 -13 0 -7 11 -24 25 -39 14
-15 25 -32 25 -38 0 -5 7 -10 16 -10 8 0 13 -4 10 -9 -4 -5 -3 -11 1 -13 5 -1
30 -32 58 -68 27 -36 55 -69 61 -75 6 -5 18 -25 25 -42 8 -18 17 -33 20 -33 3
0 14 -18 24 -40 10 -22 23 -40 28 -40 6 0 4 -6 -5 -12 -8 -7 -21 -29 -28 -48
-8 -19 -16 -37 -19 -40 -3 -3 -24 -41 -46 -85 -22 -44 -44 -83 -50 -87 -5 -4
-7 -8 -3 -8 4 0 -8 -27 -27 -59 -19 -33 -35 -62 -35 -66 0 -3 -6 -12 -13 -18
-15 -15 -149 -17 -159 -2 -5 7 -8 7 -8 -1 0 -11 -48 -12 -66 -1 -6 3 -14 3
-18 -1 -12 -11 -226 -9 -226 3 0 7 -3 7 -8 0 -9 -14 -145 -14 -154 0 -5 7 -8
7 -8 -1 0 -11 -49 -12 -67 -1 -6 4 -14 4 -17 -1 -6 -9 -217 -9 -232 0 -6 4
-14 4 -18 0 -12 -11 -130 -9 -138 3 -5 7 -8 7 -8 -1 0 -11 -48 -12 -66 -1 -6
3 -14 3 -18 -1 -12 -11 -220 -9 -228 3 -5 6 -8 6 -8 -2 0 -7 -6 -10 -14 -7
-19 7 -23 -10 -22 -111 l1 -90 1118 -3 c877 -2 1121 -5 1131 -15 6 -6 23 -28
36 -47 13 -19 30 -41 37 -48 7 -7 13 -18 13 -23 0 -5 8 -9 17 -9 9 0 14 -3 10
-6 -6 -6 1 -17 36 -55 9 -10 17 -23 17 -29 0 -5 6 -13 13 -17 6 -4 32 -35 57
-68 25 -33 47 -62 50 -65 3 -3 35 -43 70 -90 36 -47 73 -92 82 -101 10 -9 18
-21 18 -28 0 -6 5 -11 10 -11 6 0 10 -7 10 -16 0 -8 5 -12 10 -9 6 3 10 1 10
-5 0 -6 6 -17 13 -25 6 -7 21 -25 32 -40 11 -15 32 -40 47 -56 14 -16 23 -29
20 -29 -4 0 0 -6 8 -13 9 -7 27 -28 40 -47 27 -38 48 -65 67 -85 7 -8 13 -18
13 -24 0 -6 4 -11 8 -11 5 0 28 -27 52 -60 24 -33 47 -60 52 -60 4 0 8 -4 8
-10 0 -9 19 -35 48 -65 6 -8 12 -18 12 -24 0 -6 4 -11 8 -11 5 0 28 -27 52
-60 24 -33 47 -60 52 -60 4 0 8 -7 8 -15 0 -8 5 -15 10 -15 6 0 10 -7 10 -16
0 -8 4 -13 9 -10 8 5 17 -8 19 -27 1 -5 12 -17 26 -28 15 -11 26 -26 26 -32 0
-7 12 -23 27 -37 14 -14 38 -44 53 -67 15 -23 29 -41 31 -38 3 2 16 -14 29
-35 14 -22 28 -40 32 -40 5 0 8 -5 8 -11 0 -6 12 -24 28 -39 42 -45 51 -57 64
-85 6 -14 14 -25 18 -25 4 0 31 -32 61 -70 29 -39 57 -70 62 -70 4 0 6 -4 2
-9 -3 -6 1 -13 8 -18 7 -4 26 -26 43 -48 42 -58 47 -63 72 -90 12 -13 22 -28
22 -33 0 -6 7 -13 16 -16 9 -4 14 -9 11 -12 -3 -3 5 -17 19 -31 13 -13 24 -28
24 -33 0 -6 7 -10 15 -10 8 0 15 -6 15 -13 0 -7 8 -22 18 -33 10 -11 32 -38
48 -60 35 -48 53 -70 77 -92 9 -9 17 -20 17 -24 0 -7 8 -18 58 -76 12 -15 26
-31 30 -37 4 -5 27 -34 50 -62 35 -42 47 -51 61 -44 9 5 46 15 81 21 36 7 72
14 80 15 8 2 21 4 28 4 18 1 15 24 -6 42 -9 9 -24 26 -32 39 -8 12 -22 30 -31
39 -8 9 -31 37 -49 64 -18 26 -37 47 -42 47 -4 0 -8 4 -8 10 0 9 -19 35 -47
65 -7 8 -13 18 -13 23 0 6 -3 12 -7 14 -11 4 -96 108 -89 108 3 0 -6 12 -20
27 -14 16 -54 65 -87 110 -34 46 -65 83 -69 83 -5 0 -8 4 -8 10 0 9 -12 26
-45 64 -5 6 -32 40 -60 76 -27 36 -54 68 -60 72 -5 4 -7 8 -3 8 4 0 -3 10 -15
23 -12 12 -31 35 -42 51 -11 16 -27 36 -35 45 -8 9 -26 32 -40 51 -34 48 -52
70 -72 88 -9 9 -15 19 -12 24 3 4 1 8 -4 8 -5 0 -21 17 -35 37 -14 21 -36 50
-49 65 -13 14 -32 39 -43 54 -11 15 -26 33 -32 40 -7 7 -13 15 -13 19 0 6 -1
8 -60 75 -22 24 -40 50 -40 58 0 7 -5 10 -10 7 -6 -3 -10 0 -10 7 0 8 -18 33
-40 56 -22 22 -40 46 -40 53 0 6 -8 19 -18 28 -10 9 -42 48 -72 86 -29 39 -57
72 -62 73 -4 2 -8 10 -8 18 0 8 -4 14 -10 14 -5 0 -10 7 -10 17 0 9 -3 14 -6
10 -4 -3 -17 10 -30 29 -29 42 -44 60 -66 82 -10 9 -18 22 -18 28 0 7 -4 14
-8 16 -4 2 -24 24 -44 50 -19 26 -38 45 -42 41 -3 -3 -6 0 -6 8 0 12 -42 68
-134 180 -7 8 -21 30 -31 47 -10 17 -22 29 -27 26 -4 -3 -8 2 -8 10 0 9 -4 16
-10 16 -5 0 -10 5 -10 10 0 5 -8 18 -17 29 -10 10 -28 31 -40 47 -12 16 -31
40 -42 53 -12 13 -21 27 -21 30 0 3 -14 21 -30 40 -17 18 -30 35 -30 36 0 2
1105 3 2456 3 2331 0 2457 -1 2472 -17 26 -27 52 -61 52 -66 0 -3 8 -13 18
-23 35 -37 62 -72 62 -81 0 -5 4 -11 8 -13 5 -1 38 -41 73 -88 72 -96 83 -109
121 -153 15 -18 28 -35 28 -39 0 -4 8 -15 18 -25 10 -10 44 -54 77 -98 33 -44
62 -82 65 -85 3 -3 17 -21 30 -40 13 -19 37 -48 52 -65 15 -16 28 -36 28 -43
0 -7 5 -10 10 -7 6 3 10 0 10 -7 0 -7 10 -25 23 -40 13 -15 32 -39 43 -53 10
-15 26 -35 34 -45 8 -10 22 -28 30 -41 8 -12 23 -29 33 -38 9 -8 17 -21 17
-28 0 -7 3 -13 8 -13 4 0 18 -17 32 -38 14 -20 33 -44 42 -53 10 -9 18 -24 18
-33 0 -10 4 -15 9 -12 10 6 26 -23 22 -39 -2 -5 0 -7 4 -3 4 4 43 -41 87 -100
44 -59 86 -112 94 -119 9 -6 15 -15 16 -20 0 -4 8 -19 19 -33 10 -14 31 -41
46 -61 16 -20 39 -51 53 -69 14 -19 33 -42 43 -52 9 -10 14 -18 11 -18 -3 0 1
-7 8 -15 25 -28 107 -135 148 -195 8 -12 23 -32 32 -43 56 -70 88 -116 88
-126 0 -6 7 -11 16 -11 8 0 13 -4 10 -8 -3 -5 6 -20 20 -35 13 -14 24 -31 24
-36 0 -6 6 -14 14 -18 7 -4 21 -23 30 -40 9 -18 21 -33 26 -33 6 0 10 -7 10
-15 0 -8 4 -15 8 -15 4 0 30 -31 57 -70 28 -38 54 -70 58 -70 5 0 5 -5 2 -10
-3 -6 1 -13 9 -16 9 -3 16 -11 16 -18 0 -6 11 -24 25 -39 14 -15 23 -27 19
-27 -4 0 7 -13 24 -29 16 -16 29 -31 27 -33 -9 -9 33 -49 55 -53 20 -4 218 22
227 30 2 1 -6 11 -17 23 -12 12 -18 22 -15 22 6 0 -7 17 -42 55 -13 13 -23 26
-23 29 0 7 -29 42 -54 67 -11 11 -17 19 -13 19 4 0 -5 13 -19 29 -14 16 -26
32 -25 35 0 3 -15 21 -34 41 -19 19 -35 37 -35 41 0 4 -15 26 -34 49 -52 63
-106 135 -106 140 0 3 -8 13 -17 23 -30 31 -74 86 -91 115 -9 15 -20 27 -24
27 -4 0 -8 5 -8 11 0 7 -11 22 -25 35 -14 13 -25 26 -25 29 0 8 -73 99 -82
103 -5 2 -8 8 -8 14 0 5 -6 15 -12 22 -7 7 -24 28 -38 46 -14 19 -33 42 -42
52 -10 10 -15 18 -11 18 3 0 -4 8 -15 19 -12 10 -22 23 -22 30 0 6 -9 16 -20
23 -11 7 -20 18 -20 24 0 5 -8 19 -17 30 -10 10 -31 37 -48 59 -40 55 -47 63
-69 85 -11 11 -16 20 -12 20 4 0 -7 15 -23 33 -17 17 -31 38 -31 45 0 7 -4 11
-8 8 -5 -3 -15 7 -23 22 -8 15 -20 33 -27 40 -7 8 -25 30 -40 50 -15 21 -31
42 -37 48 -5 6 -17 22 -25 34 -8 12 -22 30 -30 40 -8 10 -22 27 -30 37 -8 10
-26 34 -40 53 -13 19 -27 37 -30 40 -3 3 -19 23 -36 45 -16 22 -33 45 -39 51
-5 7 -19 24 -30 40 -11 15 -24 32 -30 38 -5 6 -30 38 -55 71 -25 33 -47 62
-50 65 -21 21 -70 91 -70 100 0 6 -4 8 -10 5 -5 -3 -10 -1 -10 4 0 10 -19 36
-48 67 -7 8 -11 14 -8 14 3 0 -2 8 -11 18 -23 23 -75 90 -87 109 -4 9 -16 23
-25 33 -9 9 -24 28 -33 41 -32 45 -53 71 -83 103 -16 17 -28 32 -26 34 1 2 -9
17 -23 35 -29 34 -32 46 -13 48 18 2 1080 7 1972 10 538 2 795 6 804 13 11 8
13 8 8 -1 -8 -12 39 -13 59 -1 5 4 16 3 24 -2 9 -5 19 -5 27 2 7 6 13 6 13 1
0 -5 18 -9 40 -8 22 0 40 4 40 9 0 6 5 5 12 -2 7 -7 17 -8 30 -1 10 5 18 6 18
1 0 -10 30 -9 48 2 7 4 12 2 12 -5 0 -8 4 -8 15 1 12 10 15 10 15 0 0 -9 3
-10 13 -1 10 8 17 7 25 -1 9 -9 12 -9 12 0 0 9 5 10 18 3 11 -6 24 -6 32 -1 9
5 19 5 27 -2 9 -7 13 -7 13 1 0 6 6 10 13 9 9 -2 11 17 10 77 -4 138 67 122
-535 122 -288 0 -533 3 -545 7 -13 4 -23 12 -23 18 0 6 -8 18 -18 27 -10 9
-33 36 -52 61 -19 25 -38 47 -42 48 -5 2 -8 8 -8 14 0 5 -6 15 -12 22 -7 7
-24 28 -38 46 -14 19 -33 42 -42 52 -10 10 -16 18 -13 18 5 0 -3 11 -62 76
-12 13 -20 24 -17 24 3 0 -1 6 -8 14 -7 7 -26 30 -43 50 -16 21 -43 51 -58 67
-15 16 -25 29 -21 29 4 0 -5 11 -20 25 -14 13 -26 26 -26 29 0 5 -52 66 -87
103 -13 13 -23 25 -23 27 0 2 -21 27 -47 57 -67 75 -313 320 -313 312 0 -4
-13 6 -29 22 -15 17 -39 38 -52 48 -13 10 -37 28 -53 40 -17 12 -38 30 -48 40
-10 9 -23 17 -28 17 -6 0 -13 7 -16 15 -4 8 -15 15 -25 15 -10 0 -19 3 -19 8
0 6 -107 76 -120 77 -3 0 -15 6 -27 13 -13 7 -23 10 -23 6 0 -3 -6 -2 -12 3
-7 6 -31 16 -53 23 -22 7 -44 15 -50 18 -5 4 -21 7 -35 8 -38 3 -78 12 -90 19
-5 3 -10 0 -10 -7 0 -8 -3 -9 -8 -3 -8 12 -194 14 -202 3 -3 -3 -23 -7 -45 -9
-22 -1 -44 -5 -50 -8 -5 -3 -15 -6 -21 -7 -6 -1 -38 -10 -70 -20 -33 -9 -62
-17 -66 -16 -5 1 -8 -2 -8 -8 0 -5 -9 -10 -20 -10 -11 0 -20 -4 -20 -8 0 -4
-10 -9 -22 -9 -13 -1 -24 -7 -26 -13 -2 -5 -7 -8 -12 -5 -4 2 -18 -4 -30 -15
-12 -11 -26 -17 -30 -15 -5 3 -10 2 -12 -2 -1 -5 -30 -26 -63 -47 -59 -38 -67
-44 -112 -85 -12 -10 -24 -17 -27 -14 -3 4 -6 -1 -6 -10 0 -10 -3 -16 -7 -15
-5 2 -36 -25 -70 -58 -34 -34 -65 -59 -68 -56 -3 3 -5 1 -5 -5 0 -6 -22 -34
-49 -62 -27 -28 -47 -51 -45 -51 2 0 -4 -8 -13 -18 -10 -10 -38 -42 -63 -72
-25 -29 -62 -71 -83 -93 l-38 -40 -17 24 c-9 13 -23 29 -32 36 -8 7 -12 13 -8
13 4 0 -6 13 -22 29 -17 15 -30 32 -30 37 0 5 -8 17 -17 25 -10 9 -27 29 -38
44 -11 16 -25 33 -30 39 -6 6 -26 32 -44 58 -19 26 -38 45 -42 42 -5 -3 -9 4
-9 15 0 10 -4 21 -8 23 -4 2 -42 48 -85 103 -43 55 -83 107 -90 115 -7 8 -28
35 -47 60 -19 25 -38 47 -42 48 -5 2 -8 8 -8 13 0 11 -10 24 -52 70 -16 16
-28 34 -28 39 0 6 -5 10 -12 10 -6 0 -9 3 -5 6 3 4 1 12 -6 19 -22 23 -52 61
-87 110 -19 28 -42 59 -52 69 -10 11 -18 26 -18 35 0 8 -3 12 -6 8 -4 -3 -22
17 -42 46 -19 29 -39 54 -44 55 -4 2 -8 10 -8 18 0 8 -4 14 -10 14 -5 0 -10 5
-10 10 0 6 -9 20 -20 32 -11 12 -20 25 -20 29 0 12 38 17 49 6 6 -6 11 -7 11
-1 0 10 91 11 108 0 7 -4 12 -2 12 4 0 6 4 9 9 5 6 -3 47 -8 93 -11 143 -8
153 -9 166 -17 7 -5 12 -3 12 5 0 8 3 9 8 3 4 -6 26 -10 50 -10 23 1 42 -2 42
-5 0 -5 68 -10 173 -13 26 -1 47 -4 47 -7 0 -5 66 -10 188 -13 23 -1 42 -4 42
-7 0 -3 26 -6 58 -8 31 -2 77 -5 102 -7 118 -10 209 -18 245 -20 22 -2 40 -4
40 -5 0 -3 59 -7 147 -12 38 -1 68 -7 68 -12 0 -5 6 -3 13 3 8 6 17 8 20 5 3
-3 23 -8 44 -10 68 -7 157 -15 218 -19 33 -2 60 -4 60 -5 0 -1 25 -3 55 -5 30
-2 87 -6 125 -10 149 -12 212 -17 262 -18 29 -1 53 -4 53 -7 0 -3 17 -6 38 -7
68 -2 207 -11 207 -13 0 -1 20 -3 45 -5 25 -2 79 -6 120 -10 41 -3 112 -7 157
-9 45 -3 88 -8 94 -12 8 -4 9 -3 5 4 -5 9 0 9 18 2 17 -6 27 -6 32 1 4 6 11 6
20 -2 11 -9 14 -8 14 2 0 9 3 10 8 4 9 -13 95 -14 104 0 5 6 8 5 8 -4 0 -10 3
-11 14 -2 11 9 15 9 18 0 3 -9 9 -9 26 0 15 8 22 8 22 1 0 -6 5 -8 12 -4 6 4
52 9 102 11 129 5 170 8 184 17 7 4 20 9 29 11 31 6 113 52 106 59 -3 3 0 6 8
6 15 1 79 80 79 98 0 7 4 12 9 12 5 0 12 14 16 30 4 17 10 30 14 30 4 0 7 8 8
18 1 18 5 38 22 97 13 47 -7 111 -55 174 -34 44 -93 91 -113 91 -6 0 -11 4
-11 8 0 10 -121 50 -170 56 -139 18 -394 29 -405 17z m-1117 -1657 c18 -8 32
-20 32 -25 0 -5 7 -9 16 -9 9 0 24 -8 33 -18 9 -11 21 -21 27 -23 26 -9 224
-191 224 -205 0 -3 10 -15 23 -28 29 -30 57 -65 57 -71 0 -2 11 -16 24 -30 13
-14 46 -59 74 -100 27 -40 53 -72 56 -69 3 2 4 1 1 -2 -5 -7 92 -153 110 -166
5 -4 7 -8 3 -8 -4 0 4 -16 17 -36 14 -20 23 -40 20 -44 -7 -12 -1338 -8 -1350
4 -6 6 -24 29 -40 51 -16 22 -36 47 -45 56 -8 9 -22 27 -30 39 -8 13 -29 38
-47 57 -17 18 -29 33 -26 33 4 0 -2 9 -12 20 -15 17 -16 22 -4 37 28 35 58 63
69 63 6 0 9 4 6 9 -3 5 4 11 15 14 12 3 18 10 14 16 -3 6 -2 11 3 11 5 0 26
15 46 34 20 19 36 32 36 29 0 -3 15 11 34 31 19 20 39 36 45 36 5 0 14 6 18
13 11 17 90 77 101 77 6 0 13 7 16 16 3 8 10 13 15 10 5 -3 12 1 15 10 3 8 10
13 15 9 6 -3 14 3 20 12 6 10 11 14 11 8 0 -6 3 -5 8 1 9 15 180 104 198 104
8 0 14 5 14 12 0 6 3 8 7 5 3 -4 12 -2 20 4 7 6 13 9 13 6 0 -3 15 0 33 8 17
8 32 14 33 15 0 0 15 -7 32 -16z m-5102 -55 c37 -22 73 -46 79 -52 7 -7 25
-21 41 -32 15 -11 43 -35 62 -52 18 -18 38 -33 43 -33 5 0 9 -4 9 -8 0 -4 26
-35 58 -69 31 -34 68 -76 82 -93 14 -17 31 -37 38 -45 6 -7 12 -18 12 -24 0
-5 6 -14 13 -18 8 -4 56 -71 107 -148 51 -77 101 -152 111 -167 11 -15 19 -32
19 -38 0 -5 5 -10 10 -10 6 0 10 -6 10 -14 0 -11 -112 -13 -687 -14 l-688 0
-58 59 c-32 32 -55 59 -52 59 4 0 -7 14 -25 30 -18 17 -46 47 -62 67 -27 35
-28 38 -12 50 10 7 14 13 10 13 -4 0 6 11 21 25 15 13 33 29 38 35 11 12 60
58 112 108 19 17 39 32 45 32 6 0 9 3 5 6 -5 6 13 21 128 108 28 20 57 43 65
49 8 7 33 23 55 37 22 13 42 28 43 32 2 5 7 6 12 3 5 -3 14 1 22 8 23 22 105
67 112 60 3 -3 6 -1 6 5 0 7 5 12 11 12 11 0 83 31 119 51 8 4 16 8 17 8 2 1
33 -17 69 -40z m4131 -706 c13 -16 33 -40 44 -55 l20 -28 -70 -1 c-128 -3
-121 -4 -121 24 0 14 12 30 35 45 19 12 35 27 35 32 0 20 33 9 57 -17z"/>
</g>
</svg>
