<?xml version="1.0" encoding="utf-8"?>
<!-- Generator: Adobe Illustrator 22.1.0, SVG Export Plug-In . SVG Version: 6.00 Build 0)  -->
<svg version="1.1" id="Layer_1" xmlns="http://www.w3.org/2000/svg" xmlns:xlink="http://www.w3.org/1999/xlink" x="0px" y="0px"
	 viewBox="0 0 614.3 708.8" style="enable-background:new 0 0 614.3 708.8;" xml:space="preserve">
<style type="text/css">
	.st0{fill:#FCFAF9;}
	.st1{fill:#931A1D;}
	.st2{fill:#92191D;}
	.st3{fill:#921A1D;}
	.st4{fill:#931B1E;}
	.st5{fill:#931D20;}
	.st6{fill:#921B1F;}
	.st7{fill:#911A1D;}
	.st8{fill:#931A1E;}
</style>
<g>
	<g>
		<path class="st0" d="M272.3,709.5c-4.3,0-8.5,0-12.8,0c0.8-1.2,1.5-2.5,2.4-3.5c10.3-10.4,20.6-20.7,31-30.9c2-2,2-3,0-4.9
			c-14-13.9-27.9-27.9-42-41.7c-0.8-0.7-3.5-0.7-4.3,0c-14.2,13.9-28.1,28-42.3,42c-2.2,2.1-1.7,3.1,0.2,4.9
			c10.4,10.2,20.7,20.6,31,31c0.9,0.9,1.5,2.2,2.2,3.3c-4.3,0-8.5,0-12.8,0c-0.2-0.6-0.2-1.3-0.6-1.7c-9-9.1-18.1-18.2-27.3-27.2
			c-0.5-0.5-2.7-0.2-3.3,0.5c-8.3,8.1-16.5,16.3-24.6,24.5c-1.1,1.1-1.8,2.5-2.7,3.8c-4.3,0-8.5,0-12.8,0c0.7-1.1,1.2-2.4,2.1-3.3
			c10.4-10.5,20.9-20.8,31.1-31.4c0.7-0.8,0.9-3.4,0.2-4.1c-14.1-14.3-28.3-28.6-42.6-42.7c-0.7-0.7-3.3-0.6-4.1,0.1
			c-14.2,13.9-28.2,27.9-42.1,42.1c-0.7,0.8-0.7,3.5,0,4.3c10.3,10.5,20.8,20.9,31.1,31.3c1,1,1.7,2.3,2.5,3.5c-4.3,0-8.5,0-12.8,0
			c-0.2-0.5-0.2-1.1-0.5-1.4c-9.3-9.3-18.6-18.7-28-27.9c-0.4-0.4-2.4,0.1-3,0.7c-6.1,5.9-12.1,11.9-18,17.9
			c-3.4,3.4-6.5,7.1-9.7,10.6c-4.2,0-8.5,0-12.7,0c0.7-1.1,1.3-2.3,2.2-3.3c10.5-10.6,21-21.1,31.6-31.5c1.9-1.9,1.8-2.7,0-4.5
			c-14-13.9-28-27.8-41.9-41.9c-1.9-2-2.9-2.1-4.9,0c-11.1,11.2-22.3,22.2-33.5,33.2c0-4.3,0-8.5,0-12.8
			c9.4-9.3,18.8-18.5,28.2-27.9c0.4-0.4,0.2-2.3-0.3-2.8c-9.2-9.3-18.6-18.5-27.9-27.8c0-4.3,0-8.5,0-12.8
			c11.2,11,22.4,22,33.4,33.2c2.1,2.1,3.2,2,5.2-0.1c13.8-14,27.9-27.9,41.7-41.9c0.7-0.7,0.8-3.3,0.2-3.9
			c-14.1-14.3-28.3-28.5-42.6-42.6c-0.7-0.7-3.3-0.7-4.1,0.1C23.1,533.3,12,544.5,0.7,555.8c0-4.5,0-9,0-13.5
			c9.4-9.2,18.8-18.4,28.1-27.8c0.4-0.4-0.2-2.3-0.8-3c-8.2-8.4-16.5-16.6-24.9-24.9c-0.6-0.6-1.6-0.9-2.5-1.4c0-4.5,0-9,0-13.5
			c11.2,11,22.4,22,33.5,33.2c1.9,1.9,2.7,1.8,4.5,0c14-14.1,28.1-28.1,42-42.3c0.8-0.8,0.8-3.6,0-4.4c-13.9-14.2-28-28.1-42-42.3
			c-1.9-2-2.8-1.7-4.6,0.1c-11.1,11.1-22.3,22.1-33.5,33.2c0-4.5,0-9,0-13.5c0.9-0.5,2-0.9,2.7-1.6c6.6-6.5,13-13,19.6-19.5
			c7.2-7.1,7.2-7.2,0.1-14.2c-7.4-7.3-14.9-14.4-22.4-21.6c0-4.5,0-9,0-13.5c11.3,11.2,22.5,22.4,33.8,33.5c0.7,0.7,3.4,0.7,4.1,0
			c14.3-14,28.4-28.2,42.4-42.4c0.7-0.7,0.7-3.2,0-3.9c-13.9-14.2-28-28.1-42-42.3c-2-2-3-1.9-4.9,0c-11.1,11.2-22.3,22.2-33.4,33.3
			c0-4.8,0-9.5,0-14.3c0.4,0.1,1,0.4,1.1,0.2c9.1-9,18.2-18.1,27.2-27.2c0.4-0.4,0.2-1.8-0.2-2.2c-9.3-9.3-18.7-18.5-28.1-27.8
			c0-4.3,0-8.5,0-12.8c11.2,11.1,22.4,22.1,33.5,33.2c1.8,1.8,2.7,2.1,4.6,0.1c14-14.1,28.1-28.1,42-42.3c0.7-0.8,0.7-3.6-0.1-4.4
			c-14-14.3-28.1-28.4-42.4-42.4c-0.7-0.7-3.2-0.5-4,0.2c-11.3,10.9-22.4,22-33.6,33.1c0-4.3,0-8.5,0-12.8
			c9.4-9.3,18.8-18.5,28.1-27.9c0.4-0.4,0-2.1-0.5-2.7c-8.4-8.5-16.9-17-25.4-25.4c-0.5-0.5-1.5-0.6-2.2-1c0-4.8,0-9.5,0-14.3
			c11.1,11.1,22.3,22.2,33.3,33.4c1.9,1.9,2.9,2.1,4.9,0.1c14-14.2,28.2-28.3,42.2-42.5c0.7-0.7,0.7-3,0.1-3.7
			c-14-14.2-28.2-28.3-42.2-42.5c-2.2-2.2-3.1-1.6-4.9,0.2c-11.1,11.1-22.3,22.1-33.4,33.2c0-4.5,0-9,0-13.5c0.3,0,0.8,0.1,0.9-0.1
			c9.1-9.1,18.2-18.1,27.2-27.3c0.4-0.4,0.1-2.4-0.6-3.1c-8.4-8.6-16.9-17-25.4-25.5c-0.6-0.6-1.5-0.7-2.2-1.1c0-4.5,0-9,0-13.5
			c11.2,11,22.4,22,33.4,33.2c1.9,1.9,2.9,2.1,4.9,0.1c13.8-14,27.8-28,41.8-41.8c2-1.9,2-2.8,0-4.8C69.8,22.9,59,11.8,48,0.7
			c4.3,0,8.5,0,12.8,0c9,9.1,18,18.2,27.2,27.2c0.6,0.6,2.9,0.5,3.5-0.2c7.9-7.6,15.6-15.4,23.3-23.2c1.1-1.1,2-2.6,2.9-3.8
			c4.5,0,9,0,13.5,0c-11.1,11.2-22.1,22.3-33.1,33.6c-0.7,0.7-0.7,3.1,0,3.8c14,14.2,28.1,28.4,42.4,42.4c0.7,0.7,3.4,0.8,4.1,0.1
			c14.2-14,28.4-28.1,42.4-42.4c0.7-0.8,0.7-3.5,0-4.3c-10.7-11.1-21.6-22.1-32.5-33.1c4.3,0,8.5,0,12.8,0c9,9.1,18,18.3,27.1,27.3
			c0.5,0.5,2.3,0.5,2.8,0c9.1-9,18.1-18.2,27.1-27.3c4.3,0,8.5,0,12.8,0c-10.9,11-21.8,22-32.5,33.1c-0.8,0.8-0.7,3.6,0,4.3
			c13.9,14.2,28,28.2,42.1,42.1c0.8,0.8,3.5,0.8,4.3,0.1c14.1-13.8,28-27.9,42-41.7c2-2,1.9-3,0-4.9c-11-10.9-21.8-22-32.7-33
			c4.5,0,9,0,13.5,0c0,0.4-0.1,0.9,0.1,1.1c8.8,8.8,17.5,17.7,26.4,26.3c0.5,0.5,2.5,0.3,3.1-0.2c8.5-8.3,16.8-16.6,25.1-25
			c0.5-0.5,0.5-1.5,0.8-2.2c4.8,0,9.5,0,14.3,0c-11.1,11.2-22.2,22.3-33.2,33.5c-0.7,0.7-0.7,3.3,0,4c14,14.2,28.1,28.4,42.4,42.4
			c0.7,0.7,3.4,0.7,4.1-0.1c12.2-12,24.3-24.1,36.4-36.2c8.3-8.3,8.2-8.2-0.1-16.7c-8.8-8.9-17.6-17.9-26.3-26.9c4.5,0,9,0,13.5,0
			c-0.1,0.3-0.3,0.7-0.2,0.8c8.9,9,17.9,18,26.9,26.9c0.4,0.4,2,0,2.6-0.5c8.7-8.6,17.3-17.2,25.9-25.8c0.3-0.3,0.2-0.9,0.3-1.4
			c4.5,0,9,0,13.5,0c-10.9,11-21.8,21.9-32.5,33.1c-0.8,0.8-0.8,3.6,0,4.4c14,14.3,28.1,28.4,42.4,42.4c0.7,0.6,3.1,0.6,3.7,0
			c14.2-14,28.4-28.1,42.4-42.4c0.7-0.7,0.6-3.5-0.2-4.3c-10.7-11.1-21.6-22.1-32.5-33.1c4.3,0,8.5,0,12.8,0
			c9.1,9.2,18.1,18.4,27.3,27.5c0.5,0.5,2.1,0.5,2.6,0.1c9.1-9.1,18.1-18.4,27.2-27.6c4.5,0,9,0,13.5,0c-11,11-22,22.2-33.2,33.1
			c-2.1,2.1-1.7,3,0.1,4.8c14.1,14,28.1,28.1,42.2,42c0.7,0.7,3.4,0.7,4.1,0c14.2-14,28.4-28.1,42.4-42.4c0.7-0.7,0.6-3.5-0.2-4.3
			c-10.9-11.2-22-22.2-33-33.2c4.5,0,9,0,13.5,0c7.5,7.6,14.9,15.2,22.4,22.8c0.1,0.1,0.5-0.2,0.8-0.3c0,8.5,0,17,0,25.5
			c-0.6,0.2-1.3,0.2-1.7,0.6c-12.8,12.8-25.6,25.5-38.3,38.4c-0.5,0.5-0.4,2.7,0.3,3.3c12.5,12.7,25.1,25.3,37.7,37.9
			c0.5,0.5,1.3,0.6,1.9,0.8c0,8,0,16,0,24c-13.3,13.3-26.7,26.6-40,39.9c-0.5,0.5-0.7,2.2-0.3,2.6c13.4,13.4,26.9,26.7,40.3,40
			c0,8,0,16,0,24c-13.4,13.3-26.8,26.5-40.1,39.8c-0.5,0.5-0.5,2.3,0,2.8c13.3,13.3,26.7,26.6,40.1,39.9c0,8,0,16,0,24
			c-0.5,0.1-1.1,0-1.4,0.3c-12.9,12.8-25.8,25.7-38.5,38.7c-0.5,0.5-0.2,2.9,0.5,3.6c12.3,12.5,24.8,24.9,37.2,37.3
			c0.6,0.5,1.5,0.7,2.2,1.1c0,8.5,0,17,0,25.5c-1,0.6-2.2,1-3,1.8c-12,12-24,24-36,35.9c-2,2-2.3,3-0.1,5.2
			c12.3,12.1,24.4,24.3,36.6,36.4c0.7,0.7,1.7,1.1,2.5,1.7c0,8,0,16,0,24c-13.5,13.3-26.9,26.7-40.4,40.1c-0.4,0.4-0.4,1.9,0,2.3
			c13.4,13.4,26.9,26.7,40.4,40.1c0,8,0,16,0,24c-8,7.8-15.9,15.6-23.9,23.4c-0.3,0.2-0.1,0.9-0.1,1.4c-4.5,0-9,0-13.5,0
			c0.9-1.2,1.7-2.5,2.7-3.5c10.3-10.4,20.6-20.7,31-31c2.1-2.1,2-3.1-0.1-5.1c-14-13.9-27.9-27.9-42-41.7c-0.8-0.8-3.6-0.7-4.4,0
			c-14.3,14-28.4,28.1-42.4,42.4c-0.7,0.7-0.5,3.3,0.2,4c10.3,10.5,20.8,20.9,31.2,31.4c1,1,1.8,2.3,2.7,3.5c-4.5,0-9,0-13.5,0
			c-0.2-0.7-0.3-1.5-0.7-1.9c-9-9-17.9-18.1-27.1-27c-0.5-0.5-2.7-0.1-3.4,0.5c-8.5,8.3-16.9,16.7-25.2,25.1
			c-0.9,0.9-1.5,2.2-2.2,3.3c-4.3,0-8.5,0-12.8,0c0.7-1.1,1.3-2.3,2.2-3.3c10.4-10.5,20.9-20.8,31.1-31.4c0.8-0.8,0.8-3.6,0.1-4.4
			c-14-14.3-28.1-28.4-42.3-42.4c-0.7-0.6-3.1-0.6-3.7,0c-14.2,14-28.3,28.1-42.3,42.4c-0.8,0.8-0.8,3.6,0,4.4
			c10.2,10.5,20.6,20.7,30.9,31.1c1,1,1.6,2.3,2.4,3.5c-4.3,0-8.5,0-12.8,0c-0.1-0.5,0-1.1-0.3-1.4c-9.2-9.3-18.5-18.6-27.8-27.7
			c-0.4-0.4-2.1-0.3-2.6,0.2c-9.1,9-18.2,18.1-27.3,27.2c-0.4,0.4-0.4,1.1-0.5,1.7c-4.3,0-8.5,0-12.8,0c0.6-1.1,1.1-2.4,2-3.3
			c10.4-10.5,20.9-20.8,31.1-31.4c0.8-0.8,0.9-3.6,0.2-4.3c-14-14.3-28.1-28.4-42.3-42.4c-0.8-0.7-3.4-0.8-4.1-0.1
			c-14.3,14.1-28.5,28.3-42.6,42.6c-0.6,0.6-0.6,3,0.1,3.7c10.4,10.6,20.9,21.1,31.4,31.6c1,1,1.7,2.3,2.6,3.5c-4.5,0-9,0-13.5,0
			c-0.2-0.7-0.3-1.7-0.7-2.2c-8.9-9-17.7-17.9-26.8-26.7c-0.6-0.5-2.9-0.2-3.6,0.5c-8.2,8-16.3,16.1-24.4,24.3
			C274.1,706.6,273.2,708.1,272.3,709.5z M613.5,248.3c-0.6-0.7-1.1-1.3-1.6-1.8c-14.4-14.4-28.8-28.8-43.3-43.1
			c-0.6-0.6-2.9-0.5-3.6,0.2c-14.4,14.2-28.7,28.5-42.9,42.9c-0.6,0.6-0.6,2.9,0.1,3.6c14.2,14.4,28.5,28.7,42.9,42.9
			c0.6,0.6,3,0.7,3.6,0.1c14.5-14.3,28.9-28.7,43.3-43.1C612.5,249.5,613,249,613.5,248.3z M507.6,354.3c-0.6-0.7-1.1-1.2-1.7-1.8
			c-14.4-14.4-28.8-28.8-43.3-43.1c-0.6-0.6-2.9-0.5-3.5,0.1c-14.3,14.1-28.5,28.3-42.6,42.7c-0.7,0.7-0.7,3.4,0,4.1
			c14.1,14.3,28.3,28.6,42.6,42.7c0.7,0.7,3.1,0.6,3.8,0c14.4-14.2,28.7-28.5,43-42.8C506.4,355.6,507,355,507.6,354.3z
			 M566.9,413.9c-0.7,0.7-1.3,1.1-1.8,1.7c-14.4,14.4-28.8,28.8-43.1,43.3c-0.6,0.6-0.6,2.7,0,3.3c14.3,14.5,28.7,28.9,43.2,43.2
			c0.6,0.6,2.8,0.7,3.4,0.1c14.5-14.3,28.9-28.7,43.2-43.2c0.6-0.6,0.6-3-0.1-3.6c-14.2-14.4-28.5-28.7-42.8-43
			C568.3,415,567.6,414.5,566.9,413.9z M460.8,613c0.7-0.6,1.4-1.1,2-1.7c14.3-14.3,28.6-28.6,42.8-43c0.6-0.6,0.5-3.1-0.1-3.7
			c-14.2-14.4-28.5-28.7-42.9-42.9c-0.6-0.6-2.8-0.6-3.4-0.1c-14.4,14.2-28.7,28.5-42.8,42.9c-0.7,0.7-0.6,3.4,0.2,4.1
			c14,14.2,28.2,28.3,42.3,42.4C459.4,611.7,460.1,612.2,460.8,613z M248.9,613c0.7-0.6,1.3-1.1,1.8-1.6
			c14.4-14.4,28.8-28.8,43.1-43.2c0.5-0.5,0.4-2.6-0.1-3.2c-14.3-14.5-28.7-28.9-43.2-43.2c-0.6-0.6-2.9-0.7-3.5-0.1
			c-14.4,14.2-28.7,28.5-42.9,42.9c-0.6,0.6-0.6,3,0,3.6c14.2,14.4,28.5,28.7,42.8,43C247.5,611.8,248.2,612.3,248.9,613z
			 M248.9,95.8c-0.7,0.6-1.4,1.2-2,1.8c-14.3,14.3-28.6,28.6-42.8,43c-0.6,0.6-0.5,3.1,0.2,3.8c14,14.2,28.2,28.4,42.4,42.4
			c0.7,0.7,3.3,0.7,4,0c14.3-14.1,28.5-28.3,42.6-42.6c0.7-0.7,0.8-3.1,0.1-3.7c-14.1-14.3-28.3-28.5-42.5-42.7
			C250.4,97.1,249.7,96.5,248.9,95.8z M507.5,142.2c-0.5-0.6-0.9-1-1.4-1.5c-14.4-14.4-28.8-28.8-43.3-43.1
			c-0.6-0.6-3.2-0.5-3.9,0.2c-14.2,14-28.4,28.2-42.4,42.4c-0.7,0.7-0.7,3.4,0,4.1c14.1,14.3,28.3,28.6,42.7,42.7
			c0.6,0.6,2.8,0.7,3.4,0.1c14.5-14.3,28.9-28.7,43.3-43.1C506.4,143.5,506.9,142.8,507.5,142.2z M560.4,407.3
			c-0.6-0.7-1.2-1.4-1.8-2c-14.3-14.3-28.6-28.6-42.9-42.8c-0.6-0.6-2.6-0.6-3.2-0.1c-14.6,14.4-29,28.9-43.4,43.4
			c-0.6,0.6-0.6,2.7,0,3.2c14.2,14.4,28.5,28.7,42.9,42.9c0.7,0.7,3.1,0.6,3.8-0.1c14.3-14.1,28.5-28.3,42.7-42.5
			C559.1,408.8,559.7,408.1,560.4,407.3z M348.2,195.1c-0.5-0.6-0.9-1.1-1.3-1.6c-14.6-14.6-29.1-29.1-43.8-43.6
			c-0.5-0.4-2.2-0.4-2.7,0.1c-14.6,14.5-29.2,29.1-43.7,43.7c-0.5,0.5-0.4,2.6,0.2,3.2c14.2,14.4,28.5,28.7,42.9,42.9
			c0.6,0.6,3,0.6,3.6,0c14.4-14.2,28.7-28.5,43-42.8C347.1,196.5,347.6,195.8,348.2,195.1z M560.4,195.2c-0.6-0.7-1.1-1.2-1.6-1.7
			c-14.4-14.4-28.8-28.8-43.3-43.1c-0.5-0.5-2.6-0.4-3.3,0.2c-14.5,14.3-28.9,28.7-43.2,43.2c-0.6,0.6-0.5,2.8,0.1,3.4
			c14.1,14.3,28.4,28.6,42.7,42.7c0.7,0.7,3.2,0.6,3.9,0c14.3-14.1,28.5-28.4,42.8-42.6C559.1,196.6,559.7,195.9,560.4,195.2z
			 M407.9,454c0.7-0.6,1.3-1.1,1.8-1.6c14.4-14.4,28.8-28.8,43.1-43.2c0.5-0.5,0.5-2.6-0.1-3.2c-14.3-14.5-28.7-28.9-43.1-43.1
			c-0.6-0.6-2.9-0.7-3.5-0.1c-14.4,14.2-28.7,28.5-42.9,42.9c-0.6,0.6-0.6,2.9,0,3.6c14.2,14.4,28.5,28.7,42.8,43
			C406.6,452.7,407.2,453.3,407.9,454z M514.1,560c0.6-0.6,1.1-1.1,1.6-1.6c14.3-14.3,28.6-28.6,42.8-43c0.6-0.7,0.6-3.1-0.1-3.8
			c-14-14.2-28.1-28.4-42.3-42.3c-0.8-0.8-3.6-0.9-4.4-0.1c-14.3,14-28.4,28.1-42.4,42.3c-0.7,0.7-0.7,3-0.1,3.7
			c14.2,14.4,28.5,28.7,42.8,43C512.7,558.8,513.3,559.3,514.1,560z M348.2,513.6c-0.7-0.7-1.2-1.4-1.8-2
			c-14.2-14.2-28.4-28.5-42.7-42.6c-0.7-0.7-3.4-0.7-4.1,0c-14.3,14.1-28.5,28.3-42.6,42.6c-0.6,0.6-0.5,2.8,0.1,3.5
			c14.3,14.5,28.7,28.9,43.1,43.2c0.6,0.6,2.6,0.7,3.2,0.1c14.4-14.2,28.7-28.5,43-42.9C346.9,515.1,347.5,514.4,348.2,513.6z
			 M454.9,301.3c-1-0.9-1.7-1.3-2.3-1.9c-14.2-14.2-28.4-28.4-42.7-42.5c-0.7-0.7-3.3-0.6-4.1,0.1c-14.2,14-28.4,28.1-42.3,42.4
			c-0.7,0.7-0.7,3.5,0.1,4.3c13.9,14.2,27.9,28.2,42.1,42.1c0.7,0.7,3.3,0.7,4,0c14.3-14.1,28.5-28.3,42.7-42.5
			C453.1,302.6,453.8,302.1,454.9,301.3z M242.3,89.1c-0.7-0.7-1.2-1.4-1.8-2c-14.2-14.2-28.4-28.5-42.7-42.6
			c-0.7-0.7-3.4-0.6-4.1,0.1c-14.2,14-28.4,28.1-42.4,42.4c-0.7,0.7-0.8,3.4-0.1,4.1c14.1,14.3,28.3,28.6,42.7,42.7
			c0.7,0.6,3.1,0.6,3.8-0.1c14.3-14.1,28.5-28.4,42.7-42.6C241,90.5,241.6,89.8,242.3,89.1z M560.4,301.4c-0.7-0.7-1.2-1.3-1.7-1.8
			c-14.3-14.3-28.6-28.7-43-42.9c-0.7-0.6-3.1-0.6-3.8,0.1c-14.3,14.1-28.6,28.3-42.7,42.7c-0.6,0.6-0.5,2.9,0.1,3.5
			c14.3,14.5,28.7,28.9,43.2,43.2c0.6,0.6,2.7,0.6,3.2,0c14.4-14.2,28.7-28.6,43-42.9C559.3,302.8,559.8,302.1,560.4,301.4z
			 M454.3,89c-0.6-0.7-1.2-1.3-1.8-1.9c-14.2-14.2-28.4-28.5-42.7-42.5c-0.7-0.7-3.3-0.6-4.1,0.1c-14.1,13.9-28.1,28-42.2,42
			c-1.9,1.9-2.2,2.9-0.1,4.9c14.1,13.9,28.1,28,42.2,42c0.7,0.7,3.3,0.8,4,0.1c14.3-14.1,28.5-28.3,42.7-42.5
			C453,90.5,453.6,89.9,454.3,89z M401.4,460.4c-0.6-0.6-1-1.1-1.4-1.5c-14.6-14.6-29.1-29.2-43.8-43.6c-0.5-0.5-2.5-0.3-3.1,0.3
			c-14.5,14.3-28.9,28.7-43.2,43.2c-0.6,0.6-0.6,2.7,0,3.3c14.3,14.5,28.7,28.9,43.2,43.2c0.6,0.6,2.9,0.6,3.5,0
			c14.4-14.2,28.7-28.5,43-42.8C400.3,461.8,400.8,461.1,401.4,460.4z M454.3,619.7c-0.6-0.7-1.1-1.3-1.6-1.8
			c-14.5-14.5-28.9-29-43.5-43.4c-0.5-0.5-2.6-0.3-3.2,0.3c-14.3,14.1-28.5,28.3-42.6,42.6c-0.7,0.7-0.7,3.4,0,4.1
			c14.1,14.3,28.3,28.5,42.6,42.6c0.7,0.7,3.1,0.6,3.8,0c14.3-14.1,28.5-28.3,42.7-42.6C453.1,621,453.7,620.4,454.3,619.7z
			 M195.6,573.1c-0.6,0.6-1.1,1-1.6,1.5c-14.4,14.4-28.8,28.8-43.1,43.3c-0.6,0.6-0.4,3.1,0.3,3.8c13.9,14.1,28,28.1,42,42.3
			c1.9,1.9,2.9,2.1,4.9,0.1c13.9-14.1,28.1-28.1,42-42.3c0.7-0.7,0.8-3.4,0.1-4.1c-14.1-14.3-28.3-28.5-42.6-42.7
			C197.1,574.3,196.4,573.8,195.6,573.1z M355,201.8c-0.7,0.6-1.4,1.1-2,1.7c-14.3,14.3-28.7,28.6-42.8,43c-0.6,0.6-0.5,3.1,0.2,3.8
			c14,14.2,28.1,28.4,42.4,42.4c0.7,0.7,3.4,0.8,4.1,0.1c14.3-14.1,28.5-28.3,42.6-42.6c0.7-0.7,0.7-3.2,0-3.8
			c-14.1-14.3-28.3-28.5-42.5-42.7C356.4,203.1,355.7,202.5,355,201.8z M195.7,361.1c-0.8,0.7-1.5,1.3-2.2,2
			c-14.1,14.1-28.3,28.2-42.3,42.5c-0.7,0.7-0.5,3.3,0.2,4c13.9,14.2,28,28.2,42.1,42.1c0.8,0.8,3.6,0.9,4.4,0.1
			c14.3-14,28.4-28.1,42.4-42.4c0.7-0.7,0.7-3.1,0.1-3.7c-14.1-14.3-28.4-28.5-42.6-42.7C197.2,362.4,196.5,361.8,195.7,361.1z
			 M142.4,507.3c1-1,1.6-1.5,2.2-2.1c14.2-14.2,28.5-28.4,42.5-42.7c0.7-0.7,0.6-3.4-0.1-4.1c-14-14.2-28.1-28.4-42.4-42.4
			c-0.7-0.7-3.3-0.7-4,0c-14.2,13.9-28.2,28-42.1,42.1c-0.8,0.8-0.8,3.6-0.1,4.4c14,14.3,28.2,28.4,42.3,42.5
			C141.4,505.7,141.8,506.5,142.4,507.3z M248.7,414c-0.6,0.5-1,0.9-1.5,1.4c-14.5,14.5-29,28.9-43.3,43.5c-0.6,0.6-0.3,2.9,0.4,3.6
			c14.1,14.3,28.3,28.5,42.6,42.6c0.6,0.6,2.8,0.7,3.4,0.1c14.4-14.2,28.7-28.5,42.9-42.9c0.7-0.7,0.6-3.2-0.1-3.9
			c-14.1-14.3-28.3-28.5-42.5-42.7C249.9,415.2,249.3,414.6,248.7,414z M460.9,507.1c15-15,29.9-29.9,44.7-45
			c0.6-0.6,0.5-2.7-0.1-3.4c-14.3-14.5-28.7-28.9-43.2-43.2c-0.5-0.5-2.4-0.5-2.9,0c-14.5,14.3-28.9,28.7-43.2,43.2
			c-0.6,0.6-0.7,2.8-0.1,3.3C430.9,477.1,445.9,492,460.9,507.1z M136.1,513.5c-0.7-0.7-1.2-1.4-1.9-2
			c-14.2-14.2-28.4-28.5-42.7-42.6c-0.7-0.7-3.2-0.6-3.8,0.1c-14.3,14.1-28.6,28.3-42.7,42.6c-0.7,0.7-0.6,3.2,0.1,3.9
			c14.2,14.4,28.5,28.7,42.9,42.9c0.6,0.6,2.6,0.7,3.1,0.1c14.5-14.3,28.8-28.7,43.2-43.1C134.9,514.9,135.5,514.2,136.1,513.5z
			 M242.4,513.2c-0.6-0.5-1.2-0.8-1.6-1.3c-14.4-14.4-28.8-28.8-43.3-43.1c-0.6-0.6-3.1-0.4-3.8,0.3c-14.2,14-28.4,28.2-42.4,42.4
			c-0.7,0.7-0.7,3.1-0.1,3.7c14.1,14.3,28.4,28.6,42.7,42.7c0.7,0.6,3.1,0.6,3.9-0.1c14.3-14.1,28.5-28.4,42.8-42.6
			C241.1,514.6,241.6,514,242.4,513.2z M407.9,467c-0.7,0.7-1.3,1.2-1.8,1.7c-14.3,14.3-28.6,28.6-42.8,43c-0.6,0.6-0.6,3.1,0.1,3.8
			c14,14.2,28.1,28.4,42.4,42.4c0.7,0.7,3.2,0.8,3.9,0.1c14.5-14.3,28.9-28.7,43.2-43.1c0.5-0.5,0.6-2.4,0.1-2.9
			c-14.4-14.6-28.9-29-43.4-43.5C409.1,468,408.5,467.6,407.9,467z M189.6,566c-0.9-0.6-1.8-0.9-2.4-1.5
			c-14.1-14.1-28.2-28.3-42.5-42.3c-0.7-0.7-3.4-0.7-4.1,0.1c-14.3,14.1-28.5,28.3-42.6,42.6c-0.6,0.6-0.6,3,0.1,3.7
			c14,14.2,28.1,28.4,42.4,42.4c0.7,0.7,3.4,0.8,4.1,0.1c14.3-14.1,28.5-28.4,42.7-42.6C187.9,567.8,188.4,567.2,189.6,566z
			 M354.2,613.3c1.2-1,1.8-1.5,2.4-2.1c14.3-14.3,28.6-28.6,42.9-43c0.6-0.6,0.5-2.8-0.1-3.5c-14.1-14.3-28.4-28.6-42.7-42.7
			c-0.7-0.7-3.2-0.6-3.9,0.1c-14.3,14.1-28.6,28.3-42.7,42.7c-0.6,0.6-0.7,2.8-0.1,3.4c14.2,14.4,28.5,28.7,42.8,43
			C353.4,611.8,353.7,612.5,354.2,613.3z M613.4,566.6c-0.6-0.6-1.1-1.2-1.6-1.7c-14.2-14.2-28.4-28.5-42.7-42.5
			c-0.7-0.7-3.5-0.6-4.4,0.2c-14.2,13.9-28.2,28-42.1,42.1c-0.7,0.7-0.8,3-0.2,3.7c14.1,14.3,28.3,28.6,42.6,42.7
			c0.7,0.7,3.2,0.7,3.9,0c14.3-14.1,28.5-28.4,42.7-42.6C612.2,567.9,612.8,567.2,613.4,566.6z M136,619.5c-0.7-0.7-1.2-1.3-1.7-1.8
			c-14.4-14.4-28.8-28.8-43.3-43.1c-0.5-0.5-2.5-0.3-3.2,0.3c-14.3,14.1-28.5,28.3-42.6,42.7c-0.7,0.7-0.8,3.2-0.1,3.9
			c14.2,14.4,28.5,28.7,42.9,42.9c0.6,0.6,2.6,0.6,3.2,0c14.4-14.2,28.7-28.6,43-42.9C134.8,620.9,135.3,620.2,136,619.5z
			 M142.5,95.8c-0.7,0.7-1.4,1.2-2,1.8c-14.3,14.3-28.6,28.6-42.8,43c-0.6,0.6-0.6,2.6,0,3.2c14.3,14.5,28.7,28.9,43.2,43.2
			c0.6,0.6,3,0.6,3.6,0c14.3-14.1,28.5-28.3,42.6-42.7c0.7-0.7,0.6-3.1,0-3.8c-14.1-14.3-28.3-28.5-42.5-42.7
			C144,97.1,143.3,96.5,142.5,95.8z M301.9,572.9c-14.9,15-29.8,29.8-44.5,44.7c-0.7,0.7-0.7,3.2,0,3.9
			c14.1,14.3,28.3,28.6,42.7,42.7c0.6,0.6,2.8,0.6,3.5,0c14.3-14.1,28.5-28.3,42.7-42.7c0.7-0.7,0.8-3.2,0.2-3.9
			C331.7,602.7,316.8,587.9,301.9,572.9z M514.7,572.5c-1.1,1-1.5,1.3-1.8,1.7c-14.6,14.7-29.3,29.3-43.9,44
			c-0.5,0.5-0.1,2.7,0.5,3.4c14,14.2,28.2,28.3,42.4,42.3c0.7,0.7,3.3,0.7,4,0c14.2-14,28.4-28.1,42.4-42.4c0.7-0.7,0.8-3.4,0.1-4.1
			c-14.1-14.3-28.3-28.5-42.5-42.8C515.3,574.2,515.1,573.3,514.7,572.5z M89.6,42.7c-15,15-29.9,29.9-44.7,45
			c-0.6,0.6-0.4,2.7,0.2,3.3c14.3,14.5,28.7,28.9,43.2,43.2c0.5,0.5,2.4,0.5,2.9-0.1c14.5-14.3,28.9-28.7,43.2-43.2
			c0.6-0.6,0.7-2.8,0.1-3.3C119.6,72.6,104.6,57.7,89.6,42.7z M348.2,89.3c-0.6-0.7-1.2-1.4-1.8-2c-14.3-14.3-28.6-28.7-43-42.9
			c-0.6-0.6-2.8-0.5-3.5,0.1c-14.2,14-28.4,28.2-42.4,42.4c-0.7,0.7-0.8,3.4-0.1,4.1c14.1,14.3,28.3,28.6,42.6,42.7
			c0.6,0.6,2.8,0.7,3.4,0.1c14.3-14.1,28.5-28.4,42.7-42.6C346.9,90.7,347.4,90.1,348.2,89.3z M514,135.8c15-15,30-29.9,44.8-44.9
			c0.6-0.6,0.5-2.7-0.1-3.3c-14.3-14.5-28.7-28.9-43.2-43.2c-0.6-0.6-2.7-0.6-3.3-0.1c-14.4,14.2-28.7,28.5-42.9,42.9
			c-0.6,0.7-0.7,3-0.1,3.6C484.2,105.9,499.1,120.8,514,135.8z M308.2,142c15,15,29.8,29.8,44.7,44.6c0.7,0.7,3,0.8,3.6,0.2
			c14.5-14.3,28.9-28.7,43.2-43.2c0.5-0.5,0.5-2.4,0-3c-14.3-14.5-28.7-28.9-43.2-43.2c-0.6-0.6-2.8-0.7-3.4-0.1
			C338.1,112.2,323.2,127.1,308.2,142z M566.9,95.8c-0.8,0.8-1.4,1.3-2.1,1.9c-14.2,14.2-28.4,28.4-42.6,42.7
			c-0.6,0.6-0.5,2.8,0.1,3.4c14.1,14.3,28.3,28.5,42.7,42.7c0.7,0.7,3.2,0.7,3.9,0c14.3-14.1,28.5-28.3,42.7-42.7
			c0.6-0.6,0.6-3-0.1-3.7c-14-14.2-28.2-28.3-42.3-42.5C568.5,97.1,567.7,96.5,566.9,95.8z M136.1,195.2c-0.5-0.6-0.9-1.1-1.3-1.5
			c-14.6-14.7-29.3-29.3-44-43.9c-0.4-0.4-2.2-0.2-2.7,0.3c-14.4,14.3-28.8,28.7-43.1,43.2c-0.7,0.7-0.6,3.2,0.1,3.9
			c14.1,14.3,28.3,28.5,42.6,42.6c0.7,0.7,3.2,0.6,3.9,0c14.3-14.1,28.5-28.3,42.7-42.6C134.9,196.6,135.4,195.9,136.1,195.2z
			 M242.2,195.4c-0.6-0.6-1.1-1.1-1.6-1.7c-14.3-14.3-28.6-28.6-43-42.8c-0.7-0.7-3.3-0.5-4.1,0.3c-14.2,13.9-28.2,28-42.1,42.1
			c-0.7,0.7-0.7,3.3,0,4c13.9,14.2,28,28.2,42.2,42.1c0.8,0.8,3.6,0.9,4.4,0.1c14.3-14,28.4-28.2,42.5-42.3
			C241,196.6,241.6,196,242.2,195.4z M407.8,148.9c-0.6,0.6-1.2,1-1.7,1.5c-14.4,14.4-28.8,28.8-43.1,43.2c-0.5,0.6-0.4,2.7,0.2,3.3
			c14.2,14.4,28.5,28.7,42.9,42.9c0.7,0.7,3.2,0.6,3.9-0.1c14.3-14.1,28.5-28.3,42.6-42.6c0.6-0.6,0.7-2.8,0.1-3.4
			c-14.2-14.4-28.5-28.7-42.8-43C409.3,150.1,408.6,149.6,407.8,148.9z M189.2,248.3c-0.7-0.7-1.2-1.4-1.8-1.9
			c-14.3-14.3-28.6-28.7-43-42.9c-0.6-0.6-2.8-0.5-3.5,0.1c-14.3,14.1-28.5,28.3-42.6,42.7c-0.7,0.7-0.7,3.4,0,4.1
			c14,14.3,28.1,28.4,42.4,42.4c0.7,0.7,3.1,0.7,3.8,0.1c14.3-14.1,28.5-28.4,42.7-42.6C187.9,249.7,188.5,249.1,189.2,248.3z
			 M248.9,201.6c-0.8,0.8-1.3,1.3-1.9,1.8c-14.3,14.3-28.6,28.6-42.8,43c-0.7,0.7-0.5,3.3,0.2,4.1c14,14.2,28.1,28.4,42.4,42.4
			c0.7,0.7,3.2,0.5,4-0.2c14.1-13.9,28.2-27.9,42.1-42.1c0.8-0.8,0.7-3.6,0-4.4c-14-14.2-28.1-28.3-42.2-42.4
			C250,203.1,249.5,202.3,248.9,201.6z M460.7,294.9c0.8-0.7,1.4-1.3,2-1.9c14.2-14.2,28.5-28.4,42.6-42.8c0.7-0.7,0.5-3.3-0.2-4.1
			c-14-14.3-28.2-28.4-42.4-42.4c-0.6-0.6-3-0.6-3.7,0.1c-14.2,14-28.4,28.1-42.4,42.4c-0.7,0.7-0.8,3.4-0.1,4.1
			c14.1,14.3,28.3,28.5,42.6,42.7C459.6,293.5,460.1,294.1,460.7,294.9z M89.6,255c-0.6,0.6-1.1,1-1.5,1.4
			c-14.4,14.4-28.8,28.8-43.1,43.3c-0.6,0.6-0.6,3,0,3.6c14.3,14.5,28.7,28.9,43.1,43.2c0.5,0.5,2.6,0.4,3.2-0.2
			c14.4-14.2,28.7-28.5,42.9-42.9c0.6-0.6,0.7-3,0.1-3.6c-14.3-14.5-28.7-28.9-43.1-43.3C90.7,255.9,90.1,255.5,89.6,255z
			 M195.8,254.8c-0.6,0.6-1.1,0.9-1.5,1.4c-14.6,14.6-29.2,29.1-43.6,43.8c-0.5,0.5-0.3,2.4,0.3,3c14.2,14.4,28.5,28.7,42.9,42.9
			c0.7,0.6,3,0.7,3.6,0.1c14.5-14.3,28.9-28.7,43.2-43.2c0.6-0.6,0.5-2.6-0.1-3.2c-14.2-14.4-28.6-28.7-42.9-43
			C197.1,256,196.5,255.4,195.8,254.8z M301.9,348.1c15-15,29.9-29.9,44.7-44.9c0.6-0.6,0.5-2.7-0.1-3.3
			c-14.3-14.5-28.7-28.9-43.2-43.2c-0.6-0.6-2.9-0.5-3.5,0.2c-14.3,14.1-28.5,28.3-42.7,42.7c-0.6,0.7-0.7,3-0.1,3.6
			C271.9,318.1,286.9,333,301.9,348.1z M142.6,308c-0.7,0.6-1.2,1.1-1.8,1.6c-14.5,14.5-29,28.9-43.4,43.5c-0.5,0.5-0.4,2.2,0,2.7
			c14.4,14.5,28.9,29,43.4,43.4c0.6,0.6,2.8,0.6,3.4,0c14.5-14.3,28.9-28.7,43.2-43.1c0.6-0.6,0.5-2.7,0-3.3
			c-14.3-14.5-28.7-28.9-43.1-43.2C143.8,309,143.2,308.6,142.6,308z M295.9,354.3c-1-0.8-1.9-1.4-2.6-2.1c-14-14-28.1-28-42.1-42.2
			c-1.9-2-2.9-2-4.9,0c-13.9,14.1-27.8,28-41.8,41.9c-1.9,1.9-2.1,2.9-0.1,4.9c14.1,13.8,28,27.8,41.9,41.8c1.9,1.9,2.9,2.2,4.9,0.1
			c14-14.2,28.2-28.3,42.3-42.4C294.2,355.7,294.9,355.2,295.9,354.3z M308.2,354.4c14.9,14.9,29.7,29.7,44.7,44.5
			c0.7,0.6,3,0.7,3.6,0.1c14.5-14.3,28.9-28.7,43.2-43.2c0.5-0.5,0.4-2.4-0.1-2.9c-14.3-14.5-28.7-28.9-43.2-43.2
			c-0.6-0.6-2.8-0.6-3.3-0.1C338.1,324.5,323.2,339.4,308.2,354.4z M520.4,354.4c15.1,15,30,30,45,44.8c0.6,0.6,2.7,0.5,3.4-0.1
			c14.5-14.3,28.9-28.7,43.2-43.1c0.5-0.5,0.5-2.4,0-2.9c-14.3-14.5-28.7-28.9-43.2-43.2c-0.6-0.6-2.8-0.7-3.3-0.1
			C550.4,324.5,535.4,339.4,520.4,354.4z M136,407.4c-0.5-0.6-0.8-1.1-1.2-1.5c-14.6-14.7-29.3-29.3-44-43.9
			c-0.4-0.4-2.1-0.2-2.6,0.3C73.7,376.7,59.3,391,45,405.5c-0.6,0.6-0.6,3,0,3.6c14.2,14.4,28.5,28.7,42.9,42.9
			c0.6,0.6,2.9,0.5,3.5-0.1c14.3-14.1,28.5-28.4,42.7-42.6C134.7,408.8,135.3,408.2,136,407.4z M348.2,407.2c-0.6-0.6-1-1.1-1.4-1.5
			c-14.6-14.6-29.1-29.1-43.8-43.7c-0.4-0.4-1.9-0.4-2.4,0.1c-14.6,14.5-29.2,29.1-43.7,43.7c-0.6,0.6-0.5,2.7,0.1,3.3
			c14.2,14.4,28.5,28.7,42.9,42.9c0.6,0.6,2.9,0.6,3.5,0c14.4-14.2,28.7-28.5,43-42.9C347.1,408.6,347.6,407.9,348.2,407.2z"/>
		<path class="st1" d="M344.3,709.5c-0.9-1.2-1.6-2.5-2.6-3.5c-10.5-10.5-21-21-31.4-31.6c-0.7-0.7-0.7-3.1-0.1-3.7
			c14.1-14.3,28.3-28.5,42.6-42.6c0.7-0.7,3.4-0.6,4.1,0.1c14.2,14,28.4,28.1,42.3,42.4c0.7,0.7,0.6,3.5-0.2,4.3
			c-10.3,10.6-20.8,20.9-31.1,31.4c-0.9,0.9-1.3,2.2-2,3.3C358.8,709.5,351.5,709.5,344.3,709.5z"/>
		<path class="st1" d="M132,709.5c-0.8-1.2-1.5-2.5-2.5-3.5c-10.4-10.4-20.9-20.8-31.1-31.3c-0.7-0.8-0.7-3.5,0-4.3
			c13.9-14.2,27.9-28.2,42.1-42.1c0.7-0.7,3.4-0.8,4.1-0.1c14.3,14.1,28.6,28.3,42.6,42.7c0.7,0.7,0.5,3.3-0.2,4.1
			c-10.3,10.5-20.8,20.9-31.1,31.4c-0.9,0.9-1.4,2.2-2.1,3.3C146.5,709.5,139.3,709.5,132,709.5z"/>
		<path class="st2" d="M556.5,709.5c-0.9-1.2-1.7-2.4-2.7-3.5c-10.4-10.4-20.9-20.8-31.2-31.4c-0.7-0.7-0.9-3.3-0.2-4
			c14-14.3,28.1-28.4,42.4-42.4c0.8-0.8,3.6-0.8,4.4,0c14.1,13.8,28,27.8,42,41.7c2,2,2.2,3,0.1,5.1c-10.5,10.2-20.7,20.6-31,31
			c-1,1-1.8,2.3-2.7,3.5C570.5,709.5,563.5,709.5,556.5,709.5z"/>
		<path class="st1" d="M154.5,0.7c10.9,11,21.8,22,32.5,33.1c0.8,0.8,0.8,3.6,0,4.3c-14,14.3-28.1,28.4-42.4,42.4
			c-0.7,0.7-3.4,0.7-4.1-0.1c-14.2-14-28.4-28.2-42.4-42.4c-0.6-0.7-0.6-3.1,0-3.8c10.9-11.3,22-22.4,33.1-33.6
			C139,0.8,146.8,0.8,154.5,0.7z"/>
		<path class="st1" d="M366.8,0.8c8.8,9,17.5,18,26.3,26.9c8.4,8.5,8.4,8.4,0.1,16.7c-12.1,12.1-24.2,24.2-36.4,36.2
			c-0.7,0.7-3.4,0.8-4.1,0.1c-14.3-14-28.4-28.1-42.4-42.4c-0.7-0.7-0.7-3.3,0-4c11-11.3,22.1-22.4,33.2-33.5
			C351.3,0.8,359,0.8,366.8,0.8z"/>
		<path class="st2" d="M450,709.5c-0.8-1.2-1.4-2.5-2.4-3.5c-10.3-10.4-20.7-20.6-30.9-31.1c-0.8-0.8-0.8-3.6,0-4.4
			c14-14.2,28.1-28.4,42.3-42.4c0.7-0.7,3.1-0.7,3.7,0c14.2,14,28.4,28.1,42.3,42.4c0.7,0.8,0.7,3.6-0.1,4.4
			c-10.3,10.6-20.7,20.9-31.1,31.4c-0.9,0.9-1.5,2.2-2.2,3.3C464.5,709.5,457.3,709.5,450,709.5z"/>
		<path class="st1" d="M237.8,709.5c-0.7-1.1-1.3-2.3-2.2-3.3c-10.3-10.4-20.6-20.7-31-31c-1.9-1.8-2.3-2.8-0.2-4.9
			c14.2-13.9,28.1-28.1,42.3-42c0.8-0.7,3.5-0.7,4.3,0c14.1,13.8,27.9,27.9,42,41.7c2,2,2,3,0,4.9c-10.4,10.2-20.7,20.6-31,30.9
			c-1,1-1.6,2.3-2.4,3.5C252.3,709.5,245,709.5,237.8,709.5z"/>
		<path class="st3" d="M0.7,555.8c11.2-11.2,22.4-22.5,33.7-33.5c0.7-0.7,3.4-0.8,4.1-0.1c14.3,14.1,28.6,28.3,42.6,42.6
			c0.7,0.7,0.5,3.2-0.2,3.9c-13.8,14-27.8,27.9-41.7,41.9c-2,2-3.1,2.2-5.2,0.1c-11-11.2-22.3-22.1-33.4-33.2
			C0.8,570.3,0.8,563,0.7,555.8z"/>
		<path class="st2" d="M0.8,131.3c11.2-11,22.4-22.1,33.4-33.2c1.8-1.8,2.8-2.4,4.9-0.2c14,14.2,28.2,28.3,42.2,42.5
			c0.6,0.6,0.5,3-0.1,3.7c-14,14.2-28.2,28.3-42.2,42.5c-2,2-3,1.8-4.9-0.1C23,175.2,11.9,164.1,0.8,153
			C0.8,145.8,0.8,138.5,0.8,131.3z"/>
		<path class="st2" d="M0.7,343.5c11.2-11.1,22.4-22.1,33.4-33.3c1.9-2,2.9-2.1,4.9,0c13.9,14.1,28.1,28.1,42,42.3
			c0.7,0.7,0.7,3.2,0,3.9c-14,14.3-28.2,28.4-42.4,42.4c-0.7,0.7-3.4,0.7-4.1,0c-11.4-11-22.6-22.3-33.8-33.5
			C0.8,358,0.8,350.8,0.7,343.5z"/>
		<path class="st2" d="M578.3,0.7c11,11.1,22.1,22.1,33,33.2c0.8,0.8,0.9,3.5,0.2,4.3c-14,14.3-28.1,28.4-42.4,42.4
			c-0.7,0.7-3.4,0.7-4.1,0c-14.2-13.9-28.1-28-42.2-42c-1.9-1.8-2.2-2.8-0.1-4.8c11.2-10.9,22.1-22,33.2-33.1
			C563.3,0.8,570.8,0.8,578.3,0.7z"/>
		<path class="st1" d="M0.8,449.3c11.2-11,22.4-22.1,33.5-33.2c1.8-1.8,2.6-2,4.6-0.1c13.9,14.1,28.1,28.1,42,42.3
			c0.8,0.8,0.7,3.6,0,4.4c-13.9,14.2-28,28.1-42,42.3c-1.8,1.8-2.6,1.9-4.5,0c-11.1-11.2-22.3-22.2-33.5-33.2
			C0.8,464.3,0.8,456.8,0.8,449.3z"/>
		<path class="st2" d="M0.7,237c11.2-11.1,22.3-22.1,33.6-33.1c0.8-0.7,3.3-0.9,4-0.2c14.3,14,28.4,28.1,42.4,42.4
			c0.8,0.8,0.8,3.6,0.1,4.4c-13.9,14.2-28,28.2-42,42.3c-1.9,2-2.8,1.7-4.6-0.1c-11.1-11.1-22.3-22.1-33.5-33.2
			C0.8,252,0.8,244.5,0.7,237z"/>
		<path class="st2" d="M472.5,0.7c10.9,11,21.8,21.9,32.5,33.1c0.8,0.8,0.9,3.6,0.2,4.3c-14,14.3-28.1,28.4-42.4,42.4
			c-0.7,0.7-3.1,0.7-3.7,0c-14.2-14-28.4-28.1-42.4-42.4c-0.8-0.8-0.7-3.6,0-4.4c10.7-11.1,21.6-22.1,32.5-33.1
			C457,0.8,464.8,0.8,472.5,0.7z"/>
		<path class="st3" d="M260.3,0.8c10.9,11,21.7,22,32.7,33c1.9,1.9,2.1,2.9,0,4.9c-14.1,13.9-27.9,27.9-42,41.7
			c-0.8,0.7-3.5,0.7-4.3-0.1c-14.2-13.9-28.2-28-42.1-42.1c-0.8-0.8-0.8-3.6,0-4.3c10.7-11.1,21.6-22.1,32.5-33.1
			C244.8,0.8,252.5,0.8,260.3,0.8z"/>
		<path class="st1" d="M0.7,661.5c11.2-11.1,22.4-22.1,33.5-33.2c2-2,3-1.9,4.9,0c13.9,14,27.8,28,41.9,41.9c1.8,1.8,1.9,2.7,0,4.5
			c-10.6,10.4-21.1,21-31.6,31.5c-0.9,0.9-1.5,2.2-2.2,3.3c-7.3,0-14.5,0-21.8,0c-0.1-0.5,0-1.1-0.3-1.4C17.1,700.1,8.9,692,0.8,684
			C0.8,676.5,0.8,669,0.7,661.5z"/>
		<path class="st1" d="M48,0.7c11,11.1,21.8,22.2,32.9,33.1c2,2,1.9,2.9,0,4.8c-14,13.8-28,27.8-41.8,41.8c-2,2.1-3,1.9-4.9-0.1
			C23.1,69.3,11.9,58.3,0.8,47.3c0-7.5,0-15,0-22.5c8-8,16-16,24-24C32.5,0.8,40.3,0.8,48,0.7z"/>
		<path class="st2" d="M615,660.8c-13.5-13.3-26.9-26.7-40.4-40.1c-0.4-0.4-0.4-1.9,0-2.3c13.4-13.4,26.9-26.7,40.4-40.1
			C615,605.8,615,633.3,615,660.8z"/>
		<path class="st4" d="M615,236.3c-13.5-13.3-26.9-26.6-40.3-40c-0.4-0.4-0.2-2.1,0.3-2.6c13.3-13.4,26.6-26.6,40-39.9
			C615,181.3,615,208.8,615,236.3z"/>
		<path class="st3" d="M615,342.8c-13.4-13.3-26.8-26.5-40.1-39.9c-0.5-0.5-0.5-2.3,0-2.8c13.3-13.3,26.7-26.6,40.1-39.8
			C615,287.8,615,315.3,615,342.8z"/>
		<path class="st2" d="M615,129.8c-0.7-0.3-1.5-0.4-1.9-0.8c-12.6-12.6-25.2-25.2-37.7-37.9c-0.6-0.6-0.8-2.8-0.3-3.3
			c12.7-12.9,25.5-25.6,38.3-38.4c0.4-0.4,1.1-0.4,1.7-0.6C615,75.8,615,102.8,615,129.8z"/>
		<path class="st4" d="M615,554.3c-0.9-0.5-1.8-1-2.5-1.7c-12.2-12.1-24.3-24.4-36.6-36.4c-2.2-2.1-1.9-3.2,0.1-5.2
			c12.1-11.9,24-24,36-35.9c0.8-0.8,2-1.2,3-1.8C615,500.3,615,527.3,615,554.3z"/>
		<path class="st3" d="M615,447.8c-0.7-0.4-1.6-0.6-2.2-1.1c-12.4-12.4-24.9-24.8-37.2-37.3c-0.7-0.7-1-3-0.5-3.6
			c12.7-13,25.6-25.8,38.5-38.7c0.3-0.3,0.9-0.2,1.4-0.3C615,393.8,615,420.8,615,447.8z"/>
		<path class="st5" d="M60,709.5c3.2-3.5,6.4-7.2,9.7-10.6c5.9-6.1,11.9-12,18-17.9c0.7-0.7,2.6-1.1,3-0.7
			c9.4,9.2,18.7,18.6,28,27.9c0.3,0.3,0.3,0.9,0.5,1.4C99.5,709.5,79.8,709.5,60,709.5z"/>
		<path class="st6" d="M272.3,709.5c1-1.4,1.8-2.9,3-4c8.1-8.2,16.2-16.3,24.4-24.3c0.7-0.7,3-1,3.6-0.5c9,8.8,17.9,17.7,26.8,26.7
			c0.5,0.5,0.5,1.4,0.7,2.2C311.3,709.5,291.8,709.5,272.3,709.5z"/>
		<path class="st7" d="M166.5,709.5c0.9-1.3,1.6-2.7,2.7-3.8c8.1-8.2,16.3-16.4,24.6-24.5c0.7-0.7,2.8-1,3.3-0.5
			c9.2,9,18.2,18.1,27.3,27.2c0.4,0.4,0.4,1.1,0.6,1.7C205.5,709.5,186,709.5,166.5,709.5z"/>
		<path class="st7" d="M378.8,709.5c0.2-0.6,0.2-1.3,0.5-1.7c9-9.1,18.1-18.2,27.3-27.2c0.5-0.5,2.2-0.6,2.6-0.2
			c9.3,9.2,18.6,18.4,27.8,27.7c0.3,0.3,0.2,0.9,0.3,1.4C417.8,709.5,398.3,709.5,378.8,709.5z"/>
		<path class="st7" d="M484.5,709.5c0.7-1.1,1.3-2.3,2.2-3.3c8.3-8.4,16.7-16.8,25.2-25.1c0.7-0.7,2.9-1,3.4-0.5
			c9.1,8.9,18.1,17.9,27.1,27c0.4,0.4,0.5,1.3,0.7,1.9C523.5,709.5,504,709.5,484.5,709.5z"/>
		<path class="st6" d="M0.7,590.3c9.3,9.2,18.6,18.4,27.9,27.8c0.5,0.6,0.7,2.4,0.3,2.8c-9.3,9.4-18.8,18.6-28.2,27.9
			C0.8,629.3,0.8,609.8,0.7,590.3z"/>
		<path class="st6" d="M0.8,60.8c0.7,0.4,1.6,0.6,2.2,1.1c8.5,8.4,17,16.9,25.4,25.5c0.6,0.6,1,2.6,0.6,3.1
			c-9,9.2-18.1,18.2-27.2,27.3c-0.2,0.2-0.6,0-0.9,0.1C0.8,98.8,0.8,79.8,0.8,60.8z"/>
		<path class="st6" d="M0.8,378.8c7.5,7.2,15,14.4,22.4,21.6c7.1,7,7.1,7.1-0.1,14.2c-6.5,6.5-13,13-19.6,19.5
			c-0.7,0.7-1.8,1.1-2.7,1.6C0.8,416.8,0.8,397.8,0.8,378.8z"/>
		<path class="st7" d="M0.8,485.3c0.8,0.5,1.8,0.7,2.5,1.4c8.3,8.3,16.6,16.5,24.9,24.9c0.7,0.7,1.2,2.6,0.8,3
			c-9.3,9.3-18.7,18.5-28.1,27.8C0.8,523.3,0.8,504.3,0.8,485.3z"/>
		<path class="st7" d="M0.7,167.3c0.7,0.3,1.7,0.4,2.2,1c8.5,8.4,17,16.9,25.4,25.4c0.6,0.6,0.9,2.3,0.5,2.7
			c-9.3,9.4-18.7,18.6-28.1,27.9C0.8,205.2,0.8,186.3,0.7,167.3z"/>
		<path class="st5" d="M117.8,0.8c-1,1.3-1.8,2.7-2.9,3.8c-7.7,7.8-15.5,15.6-23.3,23.2c-0.7,0.6-2.9,0.8-3.5,0.2
			C78.8,19,69.8,9.9,60.8,0.8C79.8,0.8,98.8,0.8,117.8,0.8z"/>
		<path class="st1" d="M0.7,272.3c9.4,9.2,18.8,18.5,28.1,27.8c0.4,0.4,0.6,1.9,0.2,2.2c-9,9.1-18.1,18.2-27.2,27.2
			c-0.1,0.1-0.7-0.1-1.1-0.2C0.8,310.3,0.8,291.3,0.7,272.3z"/>
		<path class="st7" d="M542.3,0.7c-9,9.2-18,18.4-27.2,27.6c-0.4,0.4-2.1,0.4-2.6-0.1c-9.1-9.1-18.2-18.3-27.3-27.5
			C504.3,0.8,523.3,0.8,542.3,0.7z"/>
		<path class="st7" d="M224.3,0.7c-9,9.1-18,18.3-27.1,27.3c-0.5,0.5-2.3,0.5-2.8,0c-9.1-9-18.1-18.2-27.1-27.3
			C186.3,0.8,205.3,0.8,224.3,0.7z"/>
		<path class="st7" d="M435.8,0.7c-0.1,0.5,0,1.1-0.3,1.4c-8.6,8.7-17.2,17.3-25.9,25.8c-0.5,0.5-2.2,0.9-2.6,0.5
			c-9-8.9-18-17.9-26.9-26.9c-0.1-0.1,0.1-0.5,0.2-0.8C398.8,0.8,417.2,0.8,435.8,0.7z"/>
		<path class="st4" d="M329.3,0.7c-0.2,0.7-0.3,1.7-0.8,2.2c-8.3,8.4-16.7,16.8-25.1,25c-0.6,0.6-2.6,0.7-3.1,0.2
			c-8.9-8.7-17.7-17.5-26.4-26.3c-0.2-0.2-0.1-0.7-0.1-1.1C292.3,0.8,310.8,0.8,329.3,0.7z"/>
		<path class="st7" d="M591,709.5c0-0.5-0.1-1.1,0.1-1.4c7.9-7.8,15.9-15.6,23.9-23.4c0,7.6,0,15.3-0.1,22.9c0,0.6-1.2,1.8-1.8,1.8
			C605.8,709.5,598.4,709.5,591,709.5z"/>
		<path class="st7" d="M615,23.3c-0.3,0.1-0.7,0.4-0.8,0.3c-7.5-7.6-15-15.2-22.4-22.8c7.1,0,14.1-0.1,21.2,0.1c0.7,0,1.9,1.3,2,2
			C615.1,9.6,615,16.4,615,23.3z"/>
		<path class="st0" d="M0.8,684c8.2,8,16.3,16.1,24.4,24.1c0.3,0.3,0.2,0.9,0.3,1.4c-4.3,0-8.5,0-12.8,0c-4-4.3-8-8.5-12-12.8
			C0.8,692.5,0.8,688.3,0.8,684z"/>
		<path class="st0" d="M24.8,0.8c-8,8-16,16-24,24c0-4.5,0-9,0-13.5c3.5-3.5,7-7,10.5-10.5C15.8,0.8,20.3,0.8,24.8,0.8z"/>
		<path class="st7" d="M0.7,696.8c4,4.3,8,8.5,12,12.8c-4,0-9.6,1.6-11.6-0.4c-2-2-0.4-7.6-0.4-11.6C0.8,697.3,0.8,697,0.7,696.8z"
			/>
		<path class="st7" d="M11.3,0.8c-3.5,3.5-7,7-10.5,10.5C0.7,0.8,0.7,0.8,11.3,0.8z"/>
		<path class="st4" d="M613.5,248.3c-0.6,0.6-1,1.2-1.5,1.7c-14.4,14.4-28.8,28.8-43.3,43.1c-0.6,0.6-3,0.6-3.6-0.1
			c-14.4-14.2-28.7-28.5-42.9-42.9c-0.6-0.6-0.7-2.9-0.1-3.6c14.2-14.4,28.5-28.7,42.9-42.9c0.7-0.7,3-0.8,3.6-0.2
			c14.5,14.3,28.9,28.7,43.3,43.1C612.4,247.1,612.9,247.6,613.5,248.3z"/>
		<path class="st4" d="M507.6,354.3c-0.6,0.6-1.1,1.3-1.7,1.9c-14.3,14.3-28.6,28.6-43,42.8c-0.7,0.7-3.1,0.7-3.8,0
			c-14.3-14.1-28.5-28.3-42.6-42.7c-0.7-0.7-0.7-3.4,0-4.1c14.1-14.3,28.3-28.5,42.6-42.7c0.6-0.6,2.9-0.7,3.5-0.1
			c14.5,14.3,28.9,28.7,43.3,43.1C506.4,353.1,506.9,353.7,507.6,354.3z"/>
		<path class="st4" d="M566.9,413.9c0.7,0.6,1.4,1.1,2,1.7c14.3,14.3,28.6,28.6,42.8,43c0.6,0.7,0.7,3,0.1,3.6
			c-14.3,14.5-28.7,28.9-43.2,43.2c-0.6,0.6-2.8,0.5-3.4-0.1c-14.5-14.3-28.9-28.7-43.2-43.2c-0.6-0.6-0.6-2.8,0-3.3
			c14.3-14.5,28.7-28.9,43.1-43.3C565.7,415,566.2,414.5,566.9,413.9z"/>
		<path class="st8" d="M460.8,613c-0.8-0.7-1.4-1.3-2-1.9c-14.1-14.1-28.3-28.2-42.3-42.4c-0.7-0.8-0.8-3.4-0.2-4.1
			c14.2-14.4,28.5-28.7,42.8-42.9c0.6-0.6,2.8-0.5,3.4,0.1c14.4,14.2,28.7,28.5,42.9,42.9c0.7,0.7,0.8,3.1,0.1,3.7
			c-14.2,14.4-28.5,28.7-42.8,43C462.2,611.9,461.6,612.4,460.8,613z"/>
		<path class="st1" d="M248.9,613c-0.7-0.7-1.4-1.2-2-1.8c-14.3-14.3-28.6-28.6-42.8-43c-0.6-0.6-0.6-2.9,0-3.6
			c14.2-14.4,28.5-28.7,42.9-42.9c0.6-0.6,2.9-0.5,3.5,0.1c14.5,14.3,28.9,28.7,43.2,43.2c0.6,0.6,0.7,2.6,0.1,3.2
			c-14.3,14.5-28.7,28.9-43.1,43.2C250.2,611.9,249.6,612.3,248.9,613z"/>
		<path class="st1" d="M248.9,95.8c0.8,0.7,1.4,1.3,2.1,1.9c14.2,14.2,28.4,28.4,42.5,42.7c0.6,0.6,0.5,3-0.1,3.7
			c-14.1,14.3-28.3,28.5-42.6,42.6c-0.7,0.7-3.3,0.7-4,0c-14.2-14-28.4-28.1-42.4-42.4c-0.7-0.7-0.9-3.2-0.2-3.8
			c14.2-14.4,28.5-28.7,42.8-43C247.5,96.9,248.2,96.4,248.9,95.8z"/>
		<path class="st8" d="M507.5,142.2c-0.5,0.6-1.1,1.3-1.6,1.9c-14.4,14.4-28.8,28.8-43.3,43.1c-0.6,0.6-2.8,0.5-3.4-0.1
			c-14.3-14.1-28.6-28.3-42.7-42.7c-0.7-0.7-0.7-3.4,0-4.1c14-14.3,28.2-28.4,42.4-42.4c0.7-0.7,3.2-0.9,3.9-0.2
			c14.5,14.3,28.9,28.7,43.3,43.1C506.5,141.1,506.9,141.6,507.5,142.2z"/>
		<path class="st1" d="M560.4,407.3c-0.7,0.8-1.3,1.4-1.9,2c-14.2,14.2-28.4,28.4-42.7,42.5c-0.7,0.7-3.2,0.7-3.8,0.1
			c-14.4-14.2-28.7-28.5-42.9-42.9c-0.6-0.6-0.5-2.7,0-3.2c14.4-14.6,28.9-29,43.4-43.4c0.5-0.5,2.6-0.5,3.2,0.1
			c14.4,14.2,28.6,28.5,42.9,42.8C559.3,406,559.8,406.6,560.4,407.3z"/>
		<path class="st1" d="M348.2,195.1c-0.6,0.7-1.2,1.4-1.8,2c-14.3,14.3-28.6,28.6-43,42.8c-0.6,0.6-3,0.6-3.6,0
			c-14.4-14.2-28.7-28.5-42.9-42.9c-0.6-0.6-0.7-2.7-0.2-3.2c14.5-14.7,29.1-29.2,43.7-43.7c0.5-0.5,2.2-0.6,2.7-0.1
			c14.6,14.5,29.2,29.1,43.8,43.6C347.3,194,347.7,194.5,348.2,195.1z"/>
		<path class="st1" d="M560.4,195.2c-0.7,0.7-1.3,1.4-1.9,2c-14.2,14.2-28.4,28.5-42.8,42.6c-0.7,0.7-3.2,0.7-3.9,0
			c-14.3-14.1-28.6-28.3-42.7-42.7c-0.6-0.6-0.7-2.9-0.1-3.4c14.3-14.5,28.7-28.9,43.2-43.2c0.6-0.6,2.7-0.7,3.3-0.2
			c14.5,14.3,28.9,28.7,43.3,43.1C559.3,194,559.8,194.5,560.4,195.2z"/>
		<path class="st1" d="M407.9,454c-0.7-0.7-1.4-1.3-2-1.9c-14.3-14.3-28.6-28.6-42.8-43c-0.6-0.6-0.6-2.9,0-3.6
			c14.2-14.4,28.5-28.7,42.9-42.9c0.6-0.6,2.8-0.5,3.5,0.1c14.5,14.3,28.8,28.7,43.1,43.1c0.6,0.6,0.7,2.6,0.1,3.2
			c-14.3,14.5-28.7,28.8-43.1,43.2C409.2,452.9,408.6,453.3,407.9,454z"/>
		<path class="st1" d="M514.1,560c-0.7-0.7-1.4-1.2-2-1.8c-14.3-14.3-28.6-28.6-42.8-43c-0.6-0.6-0.6-3,0.1-3.7
			c14-14.2,28.1-28.4,42.4-42.3c0.8-0.7,3.6-0.7,4.4,0.1c14.2,14,28.3,28.1,42.3,42.3c0.7,0.7,0.8,3.2,0.1,3.8
			c-14.2,14.4-28.5,28.7-42.8,43C515.2,558.9,514.6,559.4,514.1,560z"/>
		<path class="st1" d="M348.2,513.6c-0.7,0.8-1.3,1.4-1.9,2.1c-14.3,14.3-28.6,28.6-43,42.9c-0.5,0.5-2.6,0.5-3.2-0.1
			c-14.5-14.3-28.8-28.7-43.1-43.2c-0.6-0.6-0.7-2.9-0.1-3.5c14.1-14.3,28.3-28.5,42.6-42.6c0.7-0.7,3.4-0.7,4.1,0
			c14.3,14.1,28.5,28.3,42.7,42.6C347,512.3,347.6,512.9,348.2,513.6z"/>
		<path class="st1" d="M454.9,301.3c-1.1,0.9-1.9,1.3-2.5,1.9c-14.2,14.2-28.4,28.4-42.7,42.5c-0.7,0.7-3.3,0.7-4,0
			c-14.1-13.9-28.2-27.9-42.1-42.1c-0.8-0.8-0.8-3.6-0.1-4.3c14-14.2,28.1-28.4,42.3-42.4c0.7-0.7,3.4-0.8,4.1-0.1
			c14.3,14.1,28.5,28.3,42.7,42.5C453.2,299.9,453.9,300.4,454.9,301.3z"/>
		<path class="st8" d="M242.3,89.1c-0.7,0.8-1.3,1.4-1.9,2c-14.2,14.2-28.4,28.5-42.7,42.6c-0.7,0.7-3.2,0.8-3.8,0.1
			c-14.3-14.1-28.6-28.3-42.7-42.7c-0.7-0.7-0.7-3.4,0.1-4.1c14-14.2,28.1-28.4,42.4-42.4c0.7-0.7,3.4-0.8,4.1-0.1
			c14.3,14.1,28.5,28.3,42.7,42.6C241,87.7,241.6,88.4,242.3,89.1z"/>
		<path class="st1" d="M560.4,301.4c-0.6,0.7-1.1,1.4-1.7,2c-14.3,14.3-28.6,28.7-43,42.9c-0.6,0.6-2.7,0.5-3.2,0
			c-14.5-14.3-28.9-28.7-43.2-43.2c-0.6-0.6-0.7-2.9-0.1-3.5c14.1-14.3,28.3-28.6,42.7-42.7c0.7-0.7,3.2-0.8,3.8-0.1
			c14.4,14.2,28.7,28.5,43,42.9C559.3,300.1,559.8,300.7,560.4,301.4z"/>
		<path class="st1" d="M454.3,89c-0.8,0.8-1.3,1.5-1.9,2.1c-14.2,14.2-28.4,28.5-42.7,42.5c-0.7,0.7-3.3,0.6-4-0.1
			c-14.1-13.9-28.1-28-42.2-42c-2.1-2.1-1.8-3,0.1-4.9c14.1-13.9,28.1-28.1,42.2-42c0.7-0.7,3.4-0.8,4.1-0.1
			c14.3,14.1,28.5,28.3,42.7,42.5C453.1,87.8,453.7,88.4,454.3,89z"/>
		<path class="st8" d="M401.4,460.4c-0.6,0.7-1.1,1.4-1.7,2c-14.3,14.3-28.6,28.6-43,42.8c-0.6,0.6-2.9,0.6-3.5,0
			c-14.5-14.3-28.9-28.7-43.2-43.2c-0.6-0.6-0.6-2.7,0-3.3c14.3-14.5,28.7-28.9,43.2-43.2c0.6-0.6,2.6-0.8,3.1-0.3
			c14.7,14.5,29.2,29.1,43.8,43.6C400.4,459.3,400.8,459.8,401.4,460.4z"/>
		<path class="st1" d="M454.3,619.7c-0.6,0.7-1.2,1.3-1.8,1.9c-14.2,14.2-28.4,28.5-42.7,42.6c-0.7,0.7-3.2,0.7-3.8,0
			c-14.3-14.1-28.5-28.3-42.6-42.6c-0.7-0.7-0.7-3.4,0-4.1c14.1-14.3,28.3-28.5,42.6-42.6c0.6-0.6,2.7-0.8,3.2-0.3
			c14.6,14.4,29,28.9,43.5,43.4C453.2,618.4,453.7,619,454.3,619.7z"/>
		<path class="st4" d="M195.6,573.1c0.8,0.7,1.5,1.3,2.1,1.9c14.2,14.2,28.5,28.4,42.6,42.7c0.7,0.7,0.6,3.3-0.1,4.1
			c-13.9,14.2-28,28.1-42,42.3c-2,2.1-3,1.9-4.9-0.1c-14-14.1-28.1-28.1-42-42.3c-0.7-0.7-1-3.2-0.3-3.8
			c14.3-14.5,28.7-28.9,43.1-43.3C194.5,574.1,195,573.6,195.6,573.1z"/>
		<path class="st8" d="M355,201.8c0.7,0.7,1.4,1.3,2,1.9c14.2,14.2,28.5,28.4,42.5,42.7c0.7,0.7,0.6,3.1,0,3.8
			c-14.1,14.3-28.3,28.5-42.6,42.6c-0.7,0.7-3.3,0.6-4.1-0.1c-14.2-14-28.4-28.1-42.4-42.4c-0.7-0.7-0.8-3.2-0.2-3.8
			c14.2-14.4,28.5-28.7,42.8-43C353.6,202.9,354.3,202.4,355,201.8z"/>
		<path class="st3" d="M195.7,361.1c0.9,0.8,1.5,1.3,2.1,2c14.2,14.2,28.5,28.4,42.6,42.7c0.6,0.6,0.6,3-0.1,3.7
			c-14,14.2-28.1,28.4-42.4,42.4c-0.8,0.7-3.6,0.7-4.4-0.1c-14.2-13.9-28.2-28-42.1-42.1c-0.7-0.8-0.9-3.4-0.2-4
			c14-14.3,28.2-28.4,42.3-42.5C194.1,362.4,194.9,361.8,195.7,361.1z"/>
		<path class="st3" d="M142.4,507.3c-0.6-0.8-1-1.6-1.7-2.3c-14.1-14.1-28.3-28.2-42.3-42.5c-0.8-0.8-0.7-3.6,0.1-4.4
			c13.9-14.2,28-28.2,42.1-42.1c0.7-0.7,3.3-0.7,4,0c14.2,14,28.4,28.1,42.4,42.4c0.7,0.8,0.8,3.4,0.1,4.1
			c-14.1,14.3-28.3,28.5-42.5,42.7C144.1,505.8,143.5,506.4,142.4,507.3z"/>
		<path class="st2" d="M248.7,414c0.6,0.6,1.3,1.1,1.9,1.7c14.2,14.2,28.4,28.4,42.5,42.7c0.7,0.7,0.7,3.2,0.1,3.9
			c-14.2,14.4-28.5,28.7-42.9,42.9c-0.6,0.6-2.8,0.5-3.4-0.1c-14.3-14.1-28.5-28.3-42.6-42.6c-0.7-0.7-0.9-3-0.4-3.6
			c14.4-14.6,28.8-29,43.3-43.5C247.6,415,248.1,414.6,248.7,414z"/>
		<path class="st2" d="M460.9,507.1c-15-15.1-30-30-44.8-45c-0.6-0.6-0.5-2.7,0.1-3.3c14.3-14.5,28.7-28.9,43.2-43.2
			c0.5-0.5,2.4-0.5,2.9,0c14.5,14.3,28.9,28.7,43.2,43.2c0.6,0.6,0.7,2.8,0.1,3.4C490.8,477.1,475.9,492.1,460.9,507.1z"/>
		<path class="st1" d="M136.1,513.5c-0.6,0.7-1.2,1.4-1.8,2c-14.4,14.4-28.7,28.8-43.2,43.1c-0.5,0.5-2.6,0.4-3.1-0.1
			c-14.4-14.2-28.7-28.5-42.9-42.9c-0.7-0.7-0.7-3.2-0.1-3.9c14.1-14.3,28.3-28.5,42.7-42.6c0.7-0.7,3.2-0.7,3.8-0.1
			c14.3,14.1,28.5,28.3,42.7,42.6C134.9,512.1,135.4,512.8,136.1,513.5z"/>
		<path class="st2" d="M242.4,513.2c-0.8,0.8-1.3,1.4-1.9,2c-14.2,14.2-28.4,28.5-42.8,42.6c-0.7,0.7-3.2,0.8-3.9,0.1
			c-14.3-14.1-28.6-28.3-42.7-42.7c-0.6-0.6-0.6-3,0.1-3.7c14-14.2,28.2-28.4,42.4-42.4c0.7-0.7,3.2-0.9,3.8-0.3
			c14.5,14.3,28.9,28.7,43.3,43.1C241.2,512.3,241.8,512.7,242.4,513.2z"/>
		<path class="st2" d="M407.9,467c0.6,0.5,1.2,1,1.7,1.5c14.5,14.5,29,28.9,43.4,43.5c0.5,0.5,0.4,2.4-0.1,2.9
			c-14.3,14.5-28.7,28.9-43.2,43.1c-0.7,0.6-3.2,0.6-3.9-0.1c-14.2-14-28.4-28.1-42.4-42.4c-0.7-0.7-0.8-3.1-0.1-3.8
			c14.2-14.4,28.5-28.7,42.8-43C406.7,468.2,407.2,467.7,407.9,467z"/>
		<path class="st1" d="M189.6,566c-1.1,1.2-1.7,1.8-2.3,2.4c-14.2,14.2-28.4,28.5-42.7,42.6c-0.7,0.7-3.4,0.7-4.1-0.1
			c-14.2-14-28.4-28.2-42.4-42.4c-0.6-0.7-0.7-3-0.1-3.7c14.1-14.3,28.3-28.5,42.6-42.6c0.7-0.7,3.4-0.8,4.1-0.1
			c14.2,14,28.3,28.2,42.5,42.3C187.8,565,188.7,565.4,189.6,566z"/>
		<path class="st2" d="M354.2,613.3c-0.5-0.8-0.8-1.6-1.3-2.1c-14.3-14.3-28.6-28.6-42.8-43c-0.6-0.6-0.5-2.8,0.1-3.4
			c14.1-14.3,28.4-28.5,42.7-42.7c0.7-0.7,3.2-0.7,3.9-0.1c14.3,14.1,28.6,28.3,42.7,42.7c0.6,0.6,0.7,2.9,0.1,3.5
			c-14.2,14.4-28.5,28.7-42.9,43C356,611.8,355.4,612.3,354.2,613.3z"/>
		<path class="st2" d="M613.4,566.6c-0.6,0.6-1.2,1.3-1.8,1.9c-14.2,14.2-28.4,28.5-42.7,42.6c-0.7,0.7-3.2,0.6-3.9,0
			c-14.3-14.1-28.5-28.4-42.6-42.7c-0.6-0.6-0.5-3,0.2-3.7c13.9-14.1,28-28.2,42.1-42.1c0.8-0.8,3.6-0.9,4.4-0.2
			c14.3,14.1,28.5,28.3,42.7,42.5C612.3,565.4,612.8,566,613.4,566.6z"/>
		<path class="st2" d="M136,619.5c-0.7,0.7-1.2,1.4-1.8,2c-14.3,14.3-28.6,28.6-43,42.9c-0.6,0.6-2.6,0.5-3.2,0
			c-14.4-14.2-28.7-28.5-42.9-42.9c-0.6-0.7-0.6-3.1,0.1-3.9c14.1-14.3,28.3-28.5,42.6-42.7c0.6-0.6,2.6-0.8,3.2-0.3
			c14.5,14.3,28.9,28.7,43.3,43.1C134.8,618.2,135.3,618.8,136,619.5z"/>
		<path class="st3" d="M142.5,95.8c0.8,0.8,1.5,1.3,2.1,1.9c14.2,14.2,28.4,28.4,42.5,42.7c0.7,0.7,0.7,3.1,0,3.8
			c-14.1,14.3-28.3,28.5-42.6,42.7c-0.6,0.6-3,0.6-3.6,0c-14.5-14.3-28.9-28.7-43.2-43.2c-0.5-0.6-0.5-2.6,0-3.2
			c14.2-14.4,28.5-28.7,42.8-43C141.1,97,141.8,96.4,142.5,95.8z"/>
		<path class="st2" d="M301.9,572.9c14.9,14.9,29.7,29.8,44.5,44.7c0.6,0.7,0.5,3.1-0.2,3.9c-14.1,14.3-28.3,28.5-42.7,42.7
			c-0.6,0.6-2.9,0.6-3.5,0c-14.3-14.1-28.6-28.3-42.7-42.7c-0.7-0.7-0.7-3.2,0-3.9C272.1,602.7,287,587.9,301.9,572.9z"/>
		<path class="st2" d="M514.7,572.5c0.4,0.7,0.7,1.6,1.2,2.2c14.2,14.2,28.4,28.4,42.5,42.8c0.7,0.7,0.6,3.4-0.1,4.1
			c-14,14.2-28.1,28.4-42.4,42.4c-0.7,0.7-3.3,0.7-4,0c-14.2-14-28.4-28.1-42.4-42.3c-0.7-0.7-1-2.9-0.5-3.4
			c14.5-14.8,29.2-29.4,43.9-44C513.2,573.9,513.6,573.5,514.7,572.5z"/>
		<path class="st2" d="M89.6,42.7c15,15,30,29.9,44.8,44.9c0.6,0.6,0.5,2.7-0.1,3.3c-14.3,14.5-28.7,28.9-43.2,43.2
			c-0.5,0.5-2.4,0.6-2.9,0.1C73.7,119.9,59.3,105.5,45,91c-0.6-0.6-0.7-2.8-0.2-3.3C59.7,72.6,74.6,57.7,89.6,42.7z"/>
		<path class="st2" d="M348.2,89.3c-0.8,0.8-1.3,1.4-2,2c-14.2,14.2-28.4,28.5-42.7,42.6c-0.6,0.6-2.8,0.5-3.4-0.1
			c-14.3-14.1-28.5-28.3-42.6-42.7c-0.7-0.7-0.6-3.4,0.1-4.1c14-14.3,28.2-28.4,42.4-42.4c0.6-0.6,2.9-0.7,3.5-0.1
			c14.4,14.2,28.7,28.6,43,42.9C347,87.9,347.6,88.6,348.2,89.3z"/>
		<path class="st3" d="M514,135.8c-15-15-29.9-29.9-44.7-44.9c-0.6-0.6-0.6-3,0.1-3.6c14.2-14.4,28.5-28.7,42.9-42.9
			c0.6-0.6,2.7-0.5,3.3,0.1c14.5,14.3,28.9,28.7,43.2,43.2c0.6,0.6,0.6,2.7,0.1,3.3C544,105.9,529.1,120.8,514,135.8z"/>
		<path class="st2" d="M308.2,142c15-14.9,29.9-29.9,44.9-44.7c0.6-0.6,2.7-0.5,3.4,0.1c14.5,14.3,28.9,28.7,43.2,43.2
			c0.5,0.5,0.5,2.4,0,3c-14.3,14.5-28.7,28.9-43.2,43.2c-0.6,0.6-2.9,0.4-3.6-0.2C338,171.9,323.2,157,308.2,142z"/>
		<path class="st2" d="M566.9,95.8c0.8,0.7,1.6,1.3,2.2,2c14.1,14.1,28.3,28.2,42.3,42.5c0.7,0.7,0.7,3,0.1,3.7
			c-14.1,14.3-28.3,28.6-42.7,42.7c-0.7,0.7-3.2,0.6-3.9,0c-14.3-14.1-28.5-28.3-42.7-42.7c-0.6-0.6-0.7-2.8-0.1-3.4
			c14.1-14.3,28.3-28.5,42.6-42.7C565.5,97.2,566.1,96.6,566.9,95.8z"/>
		<path class="st3" d="M136.1,195.2c-0.7,0.7-1.2,1.4-1.8,2c-14.2,14.2-28.4,28.5-42.7,42.6c-0.7,0.7-3.2,0.7-3.9,0
			c-14.3-14.1-28.5-28.3-42.6-42.6c-0.7-0.7-0.7-3.2-0.1-3.9c14.3-14.5,28.7-28.9,43.1-43.2c0.5-0.5,2.3-0.7,2.7-0.3
			c14.7,14.6,29.4,29.2,44,43.9C135.2,194.1,135.6,194.6,136.1,195.2z"/>
		<path class="st2" d="M242.2,195.4c-0.6,0.7-1.2,1.3-1.8,1.9c-14.1,14.1-28.2,28.3-42.5,42.3c-0.8,0.7-3.6,0.6-4.4-0.1
			c-14.2-13.9-28.2-28-42.2-42.1c-0.7-0.7-0.7-3.3,0-4c13.9-14.2,28-28.2,42.1-42.1c0.8-0.8,3.4-1,4.1-0.3
			c14.4,14.2,28.7,28.5,43,42.8C241.1,194.2,241.6,194.8,242.2,195.4z"/>
		<path class="st3" d="M407.8,148.9c0.8,0.7,1.4,1.3,2,1.9c14.3,14.3,28.6,28.6,42.8,43c0.6,0.6,0.5,2.8-0.1,3.4
			c-14.1,14.3-28.3,28.5-42.6,42.6c-0.7,0.7-3.2,0.7-3.9,0.1c-14.4-14.2-28.7-28.5-42.9-42.9c-0.6-0.6-0.7-2.7-0.2-3.3
			c14.3-14.5,28.7-28.9,43.1-43.2C406.6,149.9,407.2,149.4,407.8,148.9z"/>
		<path class="st2" d="M189.2,248.3c-0.8,0.8-1.3,1.4-2,2c-14.2,14.2-28.4,28.5-42.7,42.6c-0.7,0.6-3.1,0.6-3.8-0.1
			c-14.2-14-28.4-28.2-42.4-42.4c-0.7-0.7-0.7-3.4,0-4.1c14.1-14.3,28.3-28.6,42.6-42.7c0.6-0.6,2.9-0.7,3.5-0.1
			c14.4,14.2,28.7,28.5,43,42.9C188,246.9,188.6,247.6,189.2,248.3z"/>
		<path class="st2" d="M248.9,201.6c0.6,0.8,1.1,1.5,1.7,2.1c14.1,14.1,28.3,28.2,42.2,42.4c0.8,0.8,0.8,3.6,0,4.4
			c-13.9,14.2-27.9,28.2-42.1,42.1c-0.7,0.7-3.3,0.8-4,0.2c-14.2-14-28.4-28.1-42.4-42.4c-0.7-0.8-0.9-3.4-0.2-4.1
			c14.2-14.4,28.5-28.7,42.8-43C247.6,202.8,248.1,202.3,248.9,201.6z"/>
		<path class="st2" d="M460.7,294.9c-0.6-0.7-1.1-1.3-1.6-1.9c-14.2-14.2-28.5-28.4-42.6-42.7c-0.7-0.7-0.7-3.4,0.1-4.1
			c14-14.2,28.1-28.4,42.4-42.4c0.7-0.6,3-0.7,3.7-0.1c14.2,14,28.4,28.2,42.4,42.4c0.7,0.8,0.9,3.4,0.2,4.1
			c-14.1,14.4-28.3,28.5-42.6,42.8C462.1,293.6,461.5,294.1,460.7,294.9z"/>
		<path class="st2" d="M89.6,255c0.6,0.5,1.1,0.9,1.6,1.4c14.4,14.4,28.8,28.8,43.1,43.3c0.6,0.6,0.6,2.9-0.1,3.6
			c-14.2,14.4-28.5,28.7-42.9,42.9c-0.6,0.6-2.6,0.7-3.2,0.2c-14.5-14.3-28.9-28.7-43.1-43.2c-0.6-0.6-0.6-3,0-3.6
			c14.3-14.5,28.7-28.9,43.1-43.3C88.5,255.9,89,255.5,89.6,255z"/>
		<path class="st2" d="M195.8,254.8c0.7,0.7,1.4,1.2,1.9,1.8c14.3,14.3,28.6,28.6,42.9,43c0.6,0.6,0.6,2.7,0.1,3.2
			c-14.3,14.5-28.7,28.9-43.2,43.2c-0.6,0.6-3,0.6-3.6-0.1c-14.4-14.2-28.7-28.5-42.9-42.9c-0.6-0.6-0.7-2.5-0.3-3
			c14.5-14.7,29.1-29.2,43.6-43.8C194.6,255.7,195.1,255.3,195.8,254.8z"/>
		<path class="st3" d="M301.9,348.1c-15-15-30-30-44.8-45c-0.6-0.6-0.6-3,0.1-3.6c14.1-14.3,28.3-28.5,42.7-42.7
			c0.7-0.6,2.9-0.8,3.5-0.2c14.5,14.3,28.9,28.7,43.2,43.2c0.6,0.6,0.6,2.8,0.1,3.3C331.8,318.2,316.9,333.1,301.9,348.1z"/>
		<path class="st2" d="M142.6,308c0.7,0.6,1.2,1,1.7,1.5c14.4,14.4,28.8,28.8,43.1,43.2c0.6,0.6,0.6,2.7,0,3.3
			c-14.3,14.5-28.7,28.9-43.2,43.1c-0.6,0.6-2.8,0.6-3.4,0c-14.6-14.4-29-28.8-43.4-43.4c-0.5-0.5-0.5-2.2,0-2.7
			c14.4-14.5,28.9-29,43.4-43.5C141.3,309.1,141.9,308.6,142.6,308z"/>
		<path class="st3" d="M295.9,354.3c-1.1,0.9-1.8,1.4-2.4,2c-14.1,14.1-28.3,28.2-42.3,42.4c-2,2.1-3,1.8-4.9-0.1
			c-13.9-14-27.8-28-41.9-41.8c-2.1-2-1.9-3,0.1-4.9c14-13.9,28-27.8,41.8-41.9c2-2,3-1.9,4.9,0c13.9,14.1,28,28.1,42.1,42.2
			C294.1,352.9,294.9,353.5,295.9,354.3z"/>
		<path class="st2" d="M308.2,354.4c15-15,29.9-29.9,44.9-44.8c0.6-0.6,2.7-0.5,3.3,0.1c14.5,14.3,28.9,28.7,43.2,43.2
			c0.5,0.5,0.6,2.4,0.1,2.9c-14.3,14.5-28.7,28.9-43.2,43.2c-0.6,0.6-2.9,0.5-3.6-0.1C338,384.2,323.1,369.3,308.2,354.4z"/>
		<path class="st2" d="M520.4,354.4c15-15,30-29.9,45-44.7c0.6-0.6,2.7-0.5,3.3,0.1c14.5,14.3,28.9,28.7,43.2,43.2
			c0.5,0.5,0.5,2.4,0,2.9c-14.3,14.5-28.7,28.9-43.2,43.1c-0.6,0.6-2.8,0.7-3.4,0.1C550.4,384.3,535.5,369.4,520.4,354.4z"/>
		<path class="st2" d="M136,407.4c-0.7,0.8-1.3,1.4-1.9,2c-14.2,14.2-28.4,28.5-42.7,42.6c-0.6,0.6-2.9,0.7-3.5,0.1
			c-14.4-14.2-28.7-28.5-42.9-42.9c-0.6-0.6-0.6-3,0-3.6c14.3-14.5,28.7-28.9,43.1-43.2c0.5-0.5,2.2-0.7,2.6-0.3
			c14.7,14.6,29.4,29.2,44,43.9C135.2,406.3,135.5,406.8,136,407.4z"/>
		<path class="st3" d="M348.2,407.2c-0.6,0.7-1.1,1.3-1.7,1.9c-14.3,14.3-28.6,28.7-43,42.9c-0.6,0.6-2.9,0.7-3.5,0
			c-14.4-14.2-28.7-28.5-42.9-42.9c-0.6-0.6-0.6-2.8-0.1-3.3c14.5-14.7,29-29.2,43.7-43.7c0.4-0.4,2-0.5,2.4-0.1
			c14.6,14.5,29.2,29.1,43.8,43.7C347.2,406.1,347.6,406.6,348.2,407.2z"/>
	</g>
</g>
</svg>
