<?xml version="1.0" encoding="UTF-8" standalone="no"?>
<svg
   xmlns:dc="http://purl.org/dc/elements/1.1/"
   xmlns:cc="http://creativecommons.org/ns#"
   xmlns:rdf="http://www.w3.org/1999/02/22-rdf-syntax-ns#"
   xmlns:svg="http://www.w3.org/2000/svg"
   xmlns="http://www.w3.org/2000/svg"
   xmlns:sodipodi="http://sodipodi.sourceforge.net/DTD/sodipodi-0.dtd"
   xmlns:inkscape="http://www.inkscape.org/namespaces/inkscape"
   width="216px"
   height="91px"
   viewBox="0 0 216 91"
   version="1.1"
   id="svg3781"
   sodipodi:docname="bash2.svg"
   inkscape:version="0.92.2 (5c3e80d, 2017-08-06)">
  <metadata
     id="metadata3785">
    <rdf:RDF>
      <cc:Work
         rdf:about="">
        <dc:format>image/svg+xml</dc:format>
        <dc:type
           rdf:resource="http://purl.org/dc/dcmitype/StillImage" />
        <dc:title>Page 1</dc:title>
      </cc:Work>
    </rdf:RDF>
  </metadata>
  <sodipodi:namedview
     pagecolor="#ffffff"
     bordercolor="#666666"
     borderopacity="1"
     objecttolerance="10"
     gridtolerance="10"
     guidetolerance="10"
     inkscape:pageopacity="0"
     inkscape:pageshadow="2"
     inkscape:window-width="1280"
     inkscape:window-height="697"
     id="namedview3783"
     showgrid="false"
     inkscape:zoom="5.2083333"
     inkscape:cx="108"
     inkscape:cy="45.5"
     inkscape:window-x="-8"
     inkscape:window-y="-8"
     inkscape:window-maximized="1"
     inkscape:current-layer="Page-1" />
  <!-- Generator: Sketch 41.1 (35376) - http://www.bohemiancoding.com/sketch -->
  <title
     id="title3743">Page 1</title>
  <desc
     id="desc3745">Created with Sketch.</desc>
  <defs
     id="defs3747" />
  <g
     id="Page-1"
     style="fill:none;fill-rule:evenodd;stroke:none;stroke-width:1">
    <g
       transform="translate(0,-1)"
       id="Group-48">
      <g
         transform="translate(0,0.945)"
         id="g3777">
        <path
           d="M 73.9497,18.7117 45.3127,1.7127 c -3.418,-2.029 -7.631,-2.029 -11.049,0 l -28.637,16.999 c -3.417,2.029 -5.523,5.778 -5.523,9.836 v 33.998 c 0,4.057 2.106,7.808 5.524,9.837 l 28.637,16.996 c 1.709,1.015 3.615,1.521 5.524,1.521 1.908,0 3.814,-0.506 5.523,-1.521 l 28.637,-16.996 c 3.418,-2.029 5.525,-5.78 5.525,-9.837 v -33.998 c 0,-4.058 -2.107,-7.807 -5.524,-9.836 z"
           id="Fill-2"
           inkscape:connector-curvature="0"
           style="fill:#fefefe" />
        <path
           d="M 35.2656,87.6382 6.6286,70.6422 c -2.801,-1.663 -4.541,-4.765 -4.541,-8.097 v -33.997 c 0,-3.332 1.74,-6.434 4.54,-8.096 l 28.638,-16.999 c 1.373,-0.815 2.937,-1.246 4.523,-1.246 1.585,0 3.149,0.431 4.523,1.246 l 28.637,16.999 c 2.36,1.401 3.952,3.827 4.4,6.548 -0.95,-2.027 -3.092,-2.578 -5.588,-1.12 l -27.092,16.734 c -3.378,1.975 -5.869,4.191 -5.871,8.264 v 33.383 c -0.002,2.439 0.983,4.019 2.496,4.477 -0.497,0.086 -0.998,0.146 -1.505,0.146 -1.586,0 -3.15,-0.431 -4.523,-1.246 m 38.684,-68.927 -28.637,-16.998 c -1.709,-1.015 -3.617,-1.522 -5.524,-1.522 -1.908,0 -3.816,0.507 -5.525,1.522 l -28.637,16.998 c -3.417,2.029 -5.523,5.779 -5.523,9.837 v 33.997 c 0,4.057 2.106,7.808 5.524,9.837 l 28.637,16.997 c 1.71,1.014 3.616,1.521 5.524,1.521 1.908,0 3.814,-0.507 5.523,-1.521 l 28.638,-16.997 c 3.418,-2.029 5.524,-5.78 5.524,-9.837 v -33.997 c 0,-4.058 -2.106,-7.808 -5.524,-9.837"
           id="Fill-4"
           inkscape:connector-curvature="0"
           style="fill:#3e474a" />
        <path
           d="m 66.4428,65.8321 -7.131,4.268 c -0.189,0.11 -0.328,0.234 -0.329,0.461 v 1.866 c 0,0.228 0.153,0.323 0.342,0.212 l 7.241,-4.401 c 0.189,-0.11 0.218,-0.321 0.219,-0.548 v -1.646 c 0,-0.227 -0.153,-0.322 -0.342,-0.212"
           id="Fill-6"
           inkscape:connector-curvature="0"
           style="fill:#47b353" />
        <path
           d="m 51.258,50.1254 c 0.231,-0.117 0.421,0.027 0.424,0.329 l 0.024,2.467 c 1.033,-0.411 1.93,-0.521 2.743,-0.333 0.176,0.047 0.254,0.287 0.182,0.572 l -0.543,2.186 c -0.042,0.165 -0.135,0.332 -0.247,0.436 -0.047,0.046 -0.095,0.082 -0.143,0.106 -0.073,0.037 -0.145,0.049 -0.214,0.035 -0.371,-0.084 -1.253,-0.277 -2.641,0.426 -1.456,0.737 -1.965,2.002 -1.955,2.941 0.012,1.121 0.587,1.461 2.573,1.495 2.646,0.044 3.789,1.2 3.817,3.865 0.027,2.617 -1.37,5.427 -3.507,7.149 l 0.047,2.442 c 0.003,0.294 -0.188,0.631 -0.419,0.748 l -1.446,0.833 c -0.232,0.117 -0.422,-0.027 -0.425,-0.321 l -0.025,-2.402 c -1.239,0.515 -2.494,0.639 -3.296,0.317 -0.151,-0.059 -0.216,-0.282 -0.156,-0.536 l 0.524,-2.208 c 0.042,-0.174 0.134,-0.348 0.259,-0.459 0.044,-0.043 0.09,-0.076 0.136,-0.099 0.083,-0.042 0.164,-0.051 0.233,-0.025 0.864,0.291 1.969,0.155 3.032,-0.383 1.35,-0.683 2.253,-2.06 2.239,-3.428 -0.013,-1.241 -0.685,-1.757 -2.319,-1.769 -2.08,0.006 -4.019,-0.404 -4.051,-3.466 -0.026,-2.521 1.285,-5.144 3.36,-6.803 l -0.026,-2.465 c -0.003,-0.303 0.182,-0.636 0.42,-0.756 z"
           id="Fill-8"
           inkscape:connector-curvature="0"
           style="fill:#fefefe" />
        <path
           d="m 90.291659,49.310107 h 7.480786 c 1.056152,0.03073 2.04474,0.18876 2.939685,0.467511 0.85227,0.263387 1.60142,0.6442 2.22847,1.130368 0.61283,0.476291 1.08342,1.044768 1.43428,1.732865 0.34375,0.679319 0.51089,1.484843 0.49311,2.423158 0,0.885638 -0.18847,1.674701 -0.56186,2.346337 -0.38524,0.693585 -0.89139,1.262061 -1.54215,1.736157 -0.67921,0.492753 -1.47695,0.88454 -2.36953,1.164389 -0.91035,0.284238 -1.88827,0.43788 -2.876857,0.452147 H 90.291659 Z M 103.14211,39.104969 c -0.38998,0.613472 -0.88546,1.116102 -1.51489,1.535325 -0.65313,0.433491 -1.41413,0.772601 -2.266397,1.004162 -0.884276,0.242536 -1.800557,0.373131 -2.69076,0.388496 h -6.378404 v -9.767257 h 6.188747 c 0.994514,0.01646 1.977175,0.130596 2.923089,0.341305 0.870055,0.192053 1.642905,0.49385 2.294855,0.89332 0.61045,0.374228 1.0846,0.842837 1.45087,1.431068 0.34968,0.564086 0.52749,1.287302 0.52749,2.148796 0,0.79455 -0.17544,1.456309 -0.5346,2.024785 z m 8.33898,8.849794 c -0.84634,-0.945997 -1.86693,-1.764691 -3.03332,-2.433035 -0.14343,-0.08121 -0.28805,-0.160227 -0.43503,-0.238145 0.93051,-0.575061 1.75788,-1.252185 2.46317,-2.014909 0.75389,-0.815401 1.35249,-1.744937 1.78278,-2.760073 0.43265,-1.021721 0.6638,-2.157576 0.68869,-3.386714 0.0237,-2.131237 -0.45873,-4.00677 -1.43547,-5.576116 -0.96014,-1.543007 -2.26521,-2.829212 -3.8773,-3.826789 -1.56348,-0.964654 -3.36404,-1.685675 -5.35307,-2.144407 -1.9262,-0.443368 -3.923529,-0.678221 -5.956416,-0.697975 H 82.737382 c -0.948286,0 -1.717582,0.677123 -1.717582,1.512279 v 40.222442 c 0,0.835156 0.769296,1.512279 1.717582,1.512279 h 14.641524 c 2.107564,-0.01975 4.183124,-0.313869 6.168594,-0.872468 2.01629,-0.568477 3.82752,-1.40034 5.38389,-2.474738 1.59312,-1.098542 2.88042,-2.480225 3.82633,-4.10554 0.96133,-1.648362 1.43666,-3.559013 1.41295,-5.662815 0,-1.360831 -0.23826,-2.652523 -0.70647,-3.838861 -0.46822,-1.18524 -1.13558,-2.266223 -1.98311,-3.214415 z"
           id="Fill-10"
           inkscape:connector-curvature="0"
           style="fill:#3e474a;stroke-width:1.14055395" />
        <path
           d="m 136.08741,49.820814 h -7.32535 l 3.69161,-10.688851 z m 0.36697,-24.09152 C 136.23327,25.107129 135.58733,24.6851 134.85572,24.6851 h -4.74968 c -0.72814,0 -1.37177,0.418765 -1.59519,1.037668 l -14.40414,39.866468 c -0.16438,0.455747 -0.0752,0.953915 0.24078,1.342224 0.31603,0.387223 0.81959,0.61564 1.35557,0.61564 h 5.66997 c 0.73392,0 1.38334,-0.427467 1.60097,-1.053984 l 3.21932,-9.269399 h 12.41537 l 3.16259,9.262873 c 0.21532,0.630868 0.86705,1.06051 1.60445,1.06051 h 5.63872 c 0.53481,0 1.03722,-0.22733 1.35324,-0.613464 0.31603,-0.385047 0.40632,-0.882127 0.24426,-1.337874 z"
           id="Fill-12"
           inkscape:connector-curvature="0"
           style="fill:#3e474a;stroke-width:1.12211204" />
        <path
           d="m 180.56055,48.95718 c -0.73555,-0.899866 -1.60362,-1.71296 -2.58399,-2.419998 -0.94219,-0.681327 -1.96972,-1.298378 -3.0534,-1.838298 -1.06347,-0.529207 -2.18758,-1.00485 -3.34201,-1.416218 -1.10952,-0.392085 -2.23363,-0.752031 -3.35661,-1.073412 -0.9523,-0.264603 -1.97197,-0.575272 -3.03095,-0.922363 -0.98261,-0.320309 -1.90571,-0.726321 -2.74458,-1.20732 -0.75914,-0.434936 -1.39026,-0.969499 -1.87763,-1.589764 -0.42225,-0.537778 -0.63561,-1.205178 -0.64909,-2.01613 0,-0.804523 0.16508,-1.476208 0.50647,-2.056836 0.35711,-0.605268 0.82202,-1.101266 1.4217,-1.513704 0.62101,-0.428508 1.34646,-0.756316 2.15501,-0.973784 1.89111,-0.510996 4.01244,-0.434936 5.54531,0.108198 0.82989,0.293528 1.5531,0.709181 2.14603,1.23196 0.60192,0.53135 1.09379,1.18161 1.46326,1.931499 0.38855,0.789525 0.65582,1.689392 0.79395,2.672817 0.10219,0.735962 0.79395,1.288737 1.61373,1.288737 h 5.6475 c 0.43797,0 0.85684,-0.158548 1.1623,-0.442434 0.30657,-0.282815 0.4739,-0.66633 0.46491,-1.0627 -0.0449,-2.011843 -0.53342,-3.869424 -1.45314,-5.519179 -0.90962,-1.627258 -2.13705,-3.034906 -3.64634,-4.184379 -1.48908,-1.132331 -3.21736,-2.021485 -5.13655,-2.646035 -3.64185,-1.181611 -7.68909,-1.244815 -11.55554,-0.153192 -1.85966,0.525994 -3.54864,1.309092 -5.01975,2.324655 -1.50031,1.034846 -2.73111,2.322512 -3.65869,3.823361 -0.95679,1.546912 -1.44192,3.313436 -1.44192,5.252433 0,1.951853 0.49299,3.689452 1.46438,5.165661 0.92197,1.400149 2.12581,2.631038 3.57783,3.656242 1.39812,0.988782 2.96469,1.831872 4.65479,2.506771 1.62271,0.648118 3.23982,1.209463 4.80975,1.67118 1.0309,0.301027 2.1056,0.635263 3.2241,1.005923 1.0163,0.337449 1.95961,0.762743 2.80185,1.264097 0.77262,0.459575 1.38577,1.006993 1.8709,1.67118 0.42786,0.587056 0.63561,1.31659 0.63561,2.232526 0,0.814165 -0.17743,1.479423 -0.5424,2.033269 -0.39866,0.605267 -0.89727,1.091624 -1.52277,1.486922 -0.65134,0.409225 -1.40935,0.717751 -2.25833,0.914864 -2.03485,0.475644 -4.24826,0.400655 -5.99339,-0.11034 -0.93544,-0.273174 -1.7687,-0.681328 -2.47618,-1.213749 -0.70524,-0.530278 -1.29144,-1.19018 -1.744,-1.959352 -0.46043,-0.782026 -0.77037,-1.707603 -0.92197,-2.747805 -0.10669,-0.73382 -0.79733,-1.28231 -1.61261,-1.28231 h -5.61831 c -0.44021,0 -0.86133,0.160691 -1.16678,0.44672 -0.30658,0.286029 -0.47278,0.672757 -0.46043,1.071268 0.0674,2.102902 0.62775,4.016189 1.66651,5.686299 1.01406,1.631543 2.35266,3.031692 3.97763,4.164024 1.59576,1.11412 3.42735,1.978634 5.44199,2.568904 1.99555,0.583841 4.06409,0.879512 6.14836,0.879512 1.86416,0 3.75302,-0.241035 5.61269,-0.715608 1.89336,-0.483142 3.62051,-1.218033 5.13205,-2.182175 1.54972,-0.988782 2.83105,-2.242168 3.80693,-3.728018 1.01069,-1.537272 1.52277,-3.344503 1.52277,-5.36706 0,-1.32516 -0.21561,-2.563548 -0.6401,-3.678739 -0.42,-1.100193 -1.01181,-2.122185 -1.76085,-3.03812"
           id="Fill-14"
           inkscape:connector-curvature="0"
           style="fill:#3e474a;stroke-width:1.09682369" />
        <path
           d="m 213.74605,25.645 h -5.11055 c -0.88246,0 -1.59835,0.655018 -1.59835,1.46422 V 42.401121 H 192.80087 V 27.10922 c 0,-0.809202 -0.71479,-1.46422 -1.59725,-1.46422 h -5.08187 c -0.88245,0 -1.59835,0.655018 -1.59835,1.46422 v 38.97356 c 0,0.809202 0.7159,1.46422 1.59835,1.46422 h 5.08187 c 0.88246,0 1.59725,-0.655018 1.59725,-1.46422 V 49.532947 h 14.23628 V 66.08278 c 0,0.809202 0.71589,1.46422 1.59835,1.46422 h 5.11055 c 0.88245,0 1.59835,-0.655018 1.59835,-1.46422 V 27.10922 c 0,-0.809202 -0.7159,-1.46422 -1.59835,-1.46422"
           id="Fill-16"
           inkscape:connector-curvature="0"
           style="fill:#3e474a;stroke-width:1.08302522" />
      </g>
    </g>
  </g>
</svg>
