<?xml version="1.0" encoding="UTF-8" standalone="no"?>
<svg
   xmlns:dc="http://purl.org/dc/elements/1.1/"
   xmlns:cc="http://creativecommons.org/ns#"
   xmlns:rdf="http://www.w3.org/1999/02/22-rdf-syntax-ns#"
   xmlns:svg="http://www.w3.org/2000/svg"
   xmlns="http://www.w3.org/2000/svg"
   xmlns:sodipodi="http://sodipodi.sourceforge.net/DTD/sodipodi-0.dtd"
   xmlns:inkscape="http://www.inkscape.org/namespaces/inkscape"
   width="216px"
   height="91px"
   viewBox="0 0 216 91"
   version="1.1"
   id="svg3781"
   sodipodi:docname="bash.svg"
   inkscape:version="0.92.2 (5c3e80d, 2017-08-06)">
  <metadata
     id="metadata3785">
    <rdf:RDF>
      <cc:Work
         rdf:about="">
        <dc:format>image/svg+xml</dc:format>
        <dc:type
           rdf:resource="http://purl.org/dc/dcmitype/StillImage" />
      </cc:Work>
    </rdf:RDF>
  </metadata>
  <sodipodi:namedview
     pagecolor="#ffffff"
     bordercolor="#666666"
     borderopacity="1"
     objecttolerance="10"
     gridtolerance="10"
     guidetolerance="10"
     inkscape:pageopacity="0"
     inkscape:pageshadow="2"
     inkscape:window-width="1280"
     inkscape:window-height="697"
     id="namedview3783"
     showgrid="false"
     inkscape:zoom="5.2083333"
     inkscape:cx="108"
     inkscape:cy="45.5"
     inkscape:window-x="-8"
     inkscape:window-y="-8"
     inkscape:window-maximized="1"
     inkscape:current-layer="Page-1" />
  <!-- Generator: Sketch 41.1 (35376) - http://www.bohemiancoding.com/sketch -->
  <title
     id="title3743">Page 1</title>
  <desc
     id="desc3745">Created with Sketch.</desc>
  <defs
     id="defs3747" />
  <g
     id="Page-1"
     style="fill:none;fill-rule:evenodd;stroke:none;stroke-width:1">
    <g
       transform="translate(0,-1)"
       id="Group-48">
      <g
         transform="translate(0,0.945)"
         id="g3777">
        <path
           d="M 73.9497,18.7117 45.3127,1.7127 c -3.418,-2.029 -7.631,-2.029 -11.049,0 l -28.637,16.999 c -3.417,2.029 -5.523,5.778 -5.523,9.836 v 33.998 c 0,4.057 2.106,7.808 5.524,9.837 l 28.637,16.996 c 1.709,1.015 3.615,1.521 5.524,1.521 1.908,0 3.814,-0.506 5.523,-1.521 l 28.637,-16.996 c 3.418,-2.029 5.525,-5.78 5.525,-9.837 v -33.998 c 0,-4.058 -2.107,-7.807 -5.524,-9.836 z"
           id="Fill-2"
           inkscape:connector-curvature="0"
           style="fill:#fefefe" />
        <path
           d="M 35.2656,87.6382 6.6286,70.6422 c -2.801,-1.663 -4.541,-4.765 -4.541,-8.097 v -33.997 c 0,-3.332 1.74,-6.434 4.54,-8.096 l 28.638,-16.999 c 1.373,-0.815 2.937,-1.246 4.523,-1.246 1.585,0 3.149,0.431 4.523,1.246 l 28.637,16.999 c 2.36,1.401 3.952,3.827 4.4,6.548 -0.95,-2.027 -3.092,-2.578 -5.588,-1.12 l -27.092,16.734 c -3.378,1.975 -5.869,4.191 -5.871,8.264 v 33.383 c -0.002,2.439 0.983,4.019 2.496,4.477 -0.497,0.086 -0.998,0.146 -1.505,0.146 -1.586,0 -3.15,-0.431 -4.523,-1.246 m 38.684,-68.927 -28.637,-16.998 c -1.709,-1.015 -3.617,-1.522 -5.524,-1.522 -1.908,0 -3.816,0.507 -5.525,1.522 l -28.637,16.998 c -3.417,2.029 -5.523,5.779 -5.523,9.837 v 33.997 c 0,4.057 2.106,7.808 5.524,9.837 l 28.637,16.997 c 1.71,1.014 3.616,1.521 5.524,1.521 1.908,0 3.814,-0.507 5.523,-1.521 l 28.638,-16.997 c 3.418,-2.029 5.524,-5.78 5.524,-9.837 v -33.997 c 0,-4.058 -2.106,-7.808 -5.524,-9.837"
           id="Fill-4"
           inkscape:connector-curvature="0"
           style="fill:#3e474a" />
        <path
           d="m 66.4428,65.8321 -7.131,4.268 c -0.189,0.11 -0.328,0.234 -0.329,0.461 v 1.866 c 0,0.228 0.153,0.323 0.342,0.212 l 7.241,-4.401 c 0.189,-0.11 0.218,-0.321 0.219,-0.548 v -1.646 c 0,-0.227 -0.153,-0.322 -0.342,-0.212"
           id="Fill-6"
           inkscape:connector-curvature="0"
           style="fill:#47b353" />
        <path
           d="m 51.258,50.1254 c 0.231,-0.117 0.421,0.027 0.424,0.329 l 0.024,2.467 c 1.033,-0.411 1.93,-0.521 2.743,-0.333 0.176,0.047 0.254,0.287 0.182,0.572 l -0.543,2.186 c -0.042,0.165 -0.135,0.332 -0.247,0.436 -0.047,0.046 -0.095,0.082 -0.143,0.106 -0.073,0.037 -0.145,0.049 -0.214,0.035 -0.371,-0.084 -1.253,-0.277 -2.641,0.426 -1.456,0.737 -1.965,2.002 -1.955,2.941 0.012,1.121 0.587,1.461 2.573,1.495 2.646,0.044 3.789,1.2 3.817,3.865 0.027,2.617 -1.37,5.427 -3.507,7.149 l 0.047,2.442 c 0.003,0.294 -0.188,0.631 -0.419,0.748 l -1.446,0.833 c -0.232,0.117 -0.422,-0.027 -0.425,-0.321 l -0.025,-2.402 c -1.239,0.515 -2.494,0.639 -3.296,0.317 -0.151,-0.059 -0.216,-0.282 -0.156,-0.536 l 0.524,-2.208 c 0.042,-0.174 0.134,-0.348 0.259,-0.459 0.044,-0.043 0.09,-0.076 0.136,-0.099 0.083,-0.042 0.164,-0.051 0.233,-0.025 0.864,0.291 1.969,0.155 3.032,-0.383 1.35,-0.683 2.253,-2.06 2.239,-3.428 -0.013,-1.241 -0.685,-1.757 -2.319,-1.769 -2.08,0.006 -4.019,-0.404 -4.051,-3.466 -0.026,-2.521 1.285,-5.144 3.36,-6.803 l -0.026,-2.465 c -0.003,-0.303 0.182,-0.636 0.42,-0.756 z"
           id="Fill-8"
           inkscape:connector-curvature="0"
           style="fill:#fefefe" />
        <path
           d="m 98.6338,48.1006 h 6.311 c 0.891,0.028 1.725,0.172 2.48,0.426 0.719,0.24 1.351,0.587 1.88,1.03 0.517,0.434 0.914,0.952 1.21,1.579 0.29,0.619 0.431,1.353 0.416,2.208 0,0.807 -0.159,1.526 -0.474,2.138 -0.325,0.632 -0.752,1.15 -1.301,1.582 -0.573,0.449 -1.246,0.806 -1.999,1.061 -0.768,0.259 -1.593,0.399 -2.427,0.412 h -6.096 z m 10.841,-9.299 c -0.329,0.559 -0.747,1.017 -1.278,1.399 -0.551,0.395 -1.193,0.704 -1.912,0.915 -0.746,0.221 -1.519,0.34 -2.27,0.354 h -5.381 v -8.9 h 5.221 c 0.839,0.015 1.668,0.119 2.466,0.311 0.734,0.175 1.386,0.45 1.936,0.814 0.515,0.341 0.915,0.768 1.224,1.304 0.295,0.514 0.445,1.173 0.445,1.958 0,0.724 -0.148,1.327 -0.451,1.845 z m 7.035,8.064 c -0.714,-0.862 -1.575,-1.608 -2.559,-2.217 -0.121,-0.074 -0.243,-0.146 -0.367,-0.217 0.785,-0.524 1.483,-1.141 2.078,-1.836 0.636,-0.743 1.141,-1.59 1.504,-2.515 0.365,-0.931 0.56,-1.966 0.581,-3.086 0.02,-1.942 -0.387,-3.651 -1.211,-5.081 -0.81,-1.406 -1.911,-2.578 -3.271,-3.487 -1.319,-0.879 -2.838,-1.536 -4.516,-1.954 -1.625,-0.404 -3.31,-0.618 -5.025,-0.636 h -11.463 c -0.8,0 -1.449,0.617 -1.449,1.378 v 36.651 c 0,0.761 0.649,1.378 1.449,1.378 h 12.352 c 1.778,-0.018 3.529,-0.286 5.204,-0.795 1.701,-0.518 3.229,-1.276 4.542,-2.255 1.344,-1.001 2.43,-2.26 3.228,-3.741 0.811,-1.502 1.212,-3.243 1.192,-5.16 0,-1.24 -0.201,-2.417 -0.596,-3.498 -0.395,-1.08 -0.958,-2.065 -1.673,-2.929 z"
           id="Fill-10"
           inkscape:connector-curvature="0"
           style="fill:#3e474a" />
        <path
           d="m 139.9957,48.9461 h -6.328 l 3.189,-9.827 z m 0.317,-22.149 c -0.191,-0.572 -0.749,-0.96 -1.381,-0.96 h -4.103 c -0.629,0 -1.185,0.385 -1.378,0.954 l -12.443,36.652 c -0.142,0.419 -0.065,0.877 0.208,1.234 0.273,0.356 0.708,0.566 1.171,0.566 h 4.898 c 0.634,0 1.195,-0.393 1.383,-0.969 l 2.781,-8.522 h 10.725 l 2.732,8.516 c 0.186,0.58 0.749,0.975 1.386,0.975 h 4.871 c 0.462,0 0.896,-0.209 1.169,-0.564 0.273,-0.354 0.351,-0.811 0.211,-1.23 z"
           id="Fill-12"
           inkscape:connector-curvature="0"
           style="fill:#3e474a" />
        <path
           d="m 181.9755,48.2819 c -0.655,-0.84 -1.428,-1.599 -2.301,-2.259 -0.839,-0.636 -1.754,-1.212 -2.719,-1.716 -0.947,-0.494 -1.948,-0.938 -2.976,-1.322 -0.988,-0.366 -1.989,-0.702 -2.989,-1.002 -0.848,-0.247 -1.756,-0.537 -2.699,-0.861 -0.875,-0.299 -1.697,-0.678 -2.444,-1.127 -0.676,-0.406 -1.238,-0.905 -1.672,-1.484 -0.376,-0.502 -0.566,-1.125 -0.578,-1.882 0,-0.751 0.147,-1.378 0.451,-1.92 0.318,-0.565 0.732,-1.028 1.266,-1.413 0.553,-0.4 1.199,-0.706 1.919,-0.909 1.684,-0.477 3.573,-0.406 4.938,0.101 0.739,0.274 1.383,0.662 1.911,1.15 0.536,0.496 0.974,1.103 1.303,1.803 0.346,0.737 0.584,1.577 0.707,2.495 0.091,0.687 0.707,1.203 1.437,1.203 h 5.029 c 0.39,0 0.763,-0.148 1.035,-0.413 0.273,-0.264 0.422,-0.622 0.414,-0.992 -0.04,-1.878 -0.475,-3.612 -1.294,-5.152 -0.81,-1.519 -1.903,-2.833 -3.247,-3.906 -1.326,-1.057 -2.865,-1.887 -4.574,-2.47 -3.243,-1.103 -6.847,-1.162 -10.29,-0.143 -1.656,0.491 -3.16,1.222 -4.47,2.17 -1.336,0.966 -2.432,2.168 -3.258,3.569 -0.852,1.444 -1.284,3.093 -1.284,4.903 0,1.822 0.439,3.444 1.304,4.822 0.821,1.307 1.893,2.456 3.186,3.413 1.245,0.923 2.64,1.71 4.145,2.34 1.445,0.605 2.885,1.129 4.283,1.56 0.918,0.281 1.875,0.593 2.871,0.939 0.905,0.315 1.745,0.712 2.495,1.18 0.688,0.429 1.234,0.94 1.666,1.56 0.381,0.548 0.566,1.229 0.566,2.084 0,0.76 -0.158,1.381 -0.483,1.898 -0.355,0.565 -0.799,1.019 -1.356,1.388 -0.58,0.382 -1.255,0.67 -2.011,0.854 -1.812,0.444 -3.783,0.374 -5.337,-0.103 -0.833,-0.255 -1.575,-0.636 -2.205,-1.133 -0.628,-0.495 -1.15,-1.111 -1.553,-1.829 -0.41,-0.73 -0.686,-1.594 -0.821,-2.565 -0.095,-0.685 -0.71,-1.197 -1.436,-1.197 h -5.003 c -0.392,0 -0.767,0.15 -1.039,0.417 -0.273,0.267 -0.421,0.628 -0.41,1 0.06,1.963 0.559,3.749 1.484,5.308 0.903,1.523 2.095,2.83 3.542,3.887 1.421,1.04 3.052,1.847 4.846,2.398 1.777,0.545 3.619,0.821 5.475,0.821 1.66,0 3.342,-0.225 4.998,-0.668 1.686,-0.451 3.224,-1.137 4.57,-2.037 1.38,-0.923 2.521,-2.093 3.39,-3.48 0.9,-1.435 1.356,-3.122 1.356,-5.01 0,-1.237 -0.192,-2.393 -0.57,-3.434 -0.374,-1.027 -0.901,-1.981 -1.568,-2.836"
           id="Fill-14"
           inkscape:connector-curvature="0"
           style="fill:#3e474a" />
        <path
           d="m 214.0874,25.837 h -4.633 c -0.8,0 -1.449,0.616 -1.449,1.377 v 14.381 h -12.906 V 27.214 c 0,-0.761 -0.648,-1.377 -1.448,-1.377 h -4.607 c -0.8,0 -1.449,0.616 -1.449,1.377 v 36.652 c 0,0.761 0.649,1.377 1.449,1.377 h 4.607 c 0.8,0 1.448,-0.616 1.448,-1.377 V 48.302 h 12.906 v 15.564 c 0,0.761 0.649,1.377 1.449,1.377 h 4.633 c 0.8,0 1.449,-0.616 1.449,-1.377 V 27.214 c 0,-0.761 -0.649,-1.377 -1.449,-1.377"
           id="Fill-16"
           inkscape:connector-curvature="0"
           style="fill:#3e474a" />
      </g>
    </g>
  </g>
</svg>
