<?xml version="1.0" encoding="UTF-8" standalone="no"?>
<!-- Generator: Adobe Illustrator 17.0.0, SVG Export Plug-In . SVG Version: 6.00 Build 0)  -->

<svg
   xmlns:dc="http://purl.org/dc/elements/1.1/"
   xmlns:cc="http://creativecommons.org/ns#"
   xmlns:rdf="http://www.w3.org/1999/02/22-rdf-syntax-ns#"
   xmlns:svg="http://www.w3.org/2000/svg"
   xmlns="http://www.w3.org/2000/svg"
   xmlns:sodipodi="http://sodipodi.sourceforge.net/DTD/sodipodi-0.dtd"
   xmlns:inkscape="http://www.inkscape.org/namespaces/inkscape"
   version="1.1"
   id="Layer_1"
   x="0px"
   y="0px"
   width="256px"
   height="295px"
   viewBox="0 0 256 295"
   enable-background="new 0 0 256 295"
   xml:space="preserve"
   sodipodi:docname="cli.svg"
   inkscape:version="0.92.2 (5c3e80d, 2017-08-06)"><metadata
     id="metadata8724"><rdf:RDF><cc:Work
         rdf:about=""><dc:format>image/svg+xml</dc:format><dc:type
           rdf:resource="http://purl.org/dc/dcmitype/StillImage" /></cc:Work></rdf:RDF></metadata><defs
     id="defs8722" /><sodipodi:namedview
     pagecolor="#ffffff"
     bordercolor="#666666"
     borderopacity="1"
     objecttolerance="10"
     gridtolerance="10"
     guidetolerance="10"
     inkscape:pageopacity="0"
     inkscape:pageshadow="2"
     inkscape:window-width="1280"
     inkscape:window-height="697"
     id="namedview8720"
     showgrid="false"
     inkscape:zoom="0.8"
     inkscape:cx="128"
     inkscape:cy="147.5"
     inkscape:window-x="-8"
     inkscape:window-y="-8"
     inkscape:window-maximized="1"
     inkscape:current-layer="Layer_1" /><g
     id="g8705"><path
       id="Frame_1_"
       d="M255.856,241.04c0,1.836-1.907,3.325-4.258,3.325H3.565c-2.352,0-4.258-1.489-4.258-3.325V52.562   c0-1.836,1.906-3.325,4.258-3.325h248.033c2.351,0,4.258,1.489,4.258,3.325V241.04z" /><path
       opacity="0.5"
       fill="#595959"
       d="M251.598,244.552H3.565c-2.451,0-4.445-1.575-4.445-3.512V52.562   c0-1.937,1.994-3.512,4.445-3.512h248.033c2.451,0,4.445,1.575,4.445,3.512V241.04   C256.043,242.977,254.049,244.552,251.598,244.552z M3.565,49.425c-2.245,0-4.071,1.408-4.071,3.138V241.04   c0,1.73,1.826,3.137,4.071,3.137h248.033c2.245,0,4.071-1.407,4.071-3.137V52.562c0-1.73-1.826-3.138-4.071-3.138H3.565z"
       id="path8703" /></g><g
     id="g8715"><g
       id="g8713"><linearGradient
         id="Screen_Black_1_"
         gradientUnits="userSpaceOnUse"
         x1="127.5815"
         y1="227.1365"
         x2="127.5815"
         y2="66.4656"><stop
           offset="0"
           style="stop-color:#1A1A1A"
           id="stop8707" /><stop
           offset="1"
           style="stop-color:#000000"
           id="stop8709" /></linearGradient><rect
         id="Screen_Black_8_"
         x="16.16"
         y="66.466"
         fill="url(#Screen_Black_1_)"
         width="222.842"
         height="160.671" /></g></g><polygon
     id="Carrot"
     fill="#EAEAEA"
     points="34.636,92.433 60.104,103.045 34.636,113.531 34.636,121.771 71.465,107.102   71.465,99.174 34.636,84.069 " /><rect
     id="Underscore"
     x="74.835"
     y="126.14"
     fill="#EAEAEA"
     width="35.829"
     height="7.49" /><text
     xml:space="preserve"
     style="font-style:normal;font-weight:normal;font-size:40px;line-height:1.25;font-family:sans-serif;letter-spacing:0px;word-spacing:0px;fill:#000000;fill-opacity:1;stroke:none"
     x="190"
     y="236.25"
     id="text8728"><tspan
       sodipodi:role="line"
       id="tspan8726"
       x="190"
       y="236.25"
       style="fill:#ffffff;stroke:#ffffff">CLI</tspan></text>
</svg>