<?xml version="1.0" encoding="utf-8"?>
<!-- Generator: Adobe Illustrator 21.0.0, SVG Export Plug-In . SVG Version: 6.00 Build 0)  -->
<svg version="1.1" id="Layer_1" xmlns="http://www.w3.org/2000/svg" xmlns:xlink="http://www.w3.org/1999/xlink" x="0px" y="0px"
	 viewBox="0 0 70 70" style="enable-background:new 0 0 70 70;" xml:space="preserve">
<style type="text/css">
	.st0{fill:#092E20;}
	.st1{fill:#FFFFFF;}
</style>
<g>
	<circle class="st0" cx="35" cy="35" r="35"/>
	<g>
		<path class="st1" d="M20.4,38.2c0,4.7,3.4,7.5,8.9,6.2V32C23.8,30.3,20.5,33.7,20.4,38.2 M29.5,13.9h7.6v35.9
			C29.8,51,22.9,51.8,17.9,49c-6.4-3.6-6.9-15-1.9-20c2.6-2.6,7.8-4.4,13.3-3.2V14.4C29.3,14.2,29.3,14,29.5,13.9 M49.5,21.9h-7.6
			v-7.9h7.6L49.5,21.9L49.5,21.9z"/>
		<path class="st1" d="M49.6,26c0,5.6,0,9.6,0,16.4c-0.3,6.7-0.2,12-2.7,15.2c-0.5,0.6-1.5,1.5-2.4,2.2c-0.7,0.5-2.1,1.6-2.9,1.7
			c-0.8,0-2.8-1.1-3.7-1.5c-1.2-0.6-2.3-1.3-3.5-1.7c2.9-1.8,5.6-3.1,6.7-6.7c1-3.1,0.8-7.7,0.8-12.1c0-4.4,0-9.5,0-13.3L49.6,26
			L49.6,26z"/>
	</g>
</g>
</svg>
