<?xml version="1.0" encoding="UTF-8" standalone="no"?>
<svg
   xmlns:dc="http://purl.org/dc/elements/1.1/"
   xmlns:cc="http://creativecommons.org/ns#"
   xmlns:rdf="http://www.w3.org/1999/02/22-rdf-syntax-ns#"
   xmlns:svg="http://www.w3.org/2000/svg"
   xmlns="http://www.w3.org/2000/svg"
   xmlns:sodipodi="http://sodipodi.sourceforge.net/DTD/sodipodi-0.dtd"
   xmlns:inkscape="http://www.inkscape.org/namespaces/inkscape"
   width="300"
   height="300"
   viewBox="0 0 360 334.99"
   version="1.1"
   id="svg9001"
   sodipodi:docname="grunt.svg"
   inkscape:version="0.92.2 (5c3e80d, 2017-08-06)">
  <metadata
     id="metadata9007">
    <rdf:RDF>
      <cc:Work
         rdf:about="">
        <dc:format>image/svg+xml</dc:format>
        <dc:type
           rdf:resource="http://purl.org/dc/dcmitype/StillImage" />
      </cc:Work>
    </rdf:RDF>
  </metadata>
  <defs
     id="defs9005" />
  <sodipodi:namedview
     pagecolor="#ffffff"
     bordercolor="#666666"
     borderopacity="1"
     objecttolerance="10"
     gridtolerance="10"
     guidetolerance="10"
     inkscape:pageopacity="0"
     inkscape:pageshadow="2"
     inkscape:window-width="1280"
     inkscape:window-height="697"
     id="namedview9003"
     showgrid="false"
     inkscape:zoom="0.78666667"
     inkscape:cx="150"
     inkscape:cy="150"
     inkscape:window-x="-8"
     inkscape:window-y="-8"
     inkscape:window-maximized="1"
     inkscape:current-layer="svg9001" />
  <path
     d="m 81.671313,63.655433 c 0,0 5.208511,20.614742 5.951157,27.487875 0.744462,6.87127 -13.391238,22.141792 -13.391238,29.777062 0,7.63712 2.971493,21.38059 19.342396,28.25373 16.370892,6.8722 18.600652,24.43284 18.600652,35.125 0,10.68936 -5.95116,31.30318 -5.95116,31.30318 0,0 -3.71867,51.15765 16.36909,60.31996 20.08595,9.16139 15.62462,9.16139 20.08595,9.16139 4.45769,0 37.19587,13.75185 56.5428,8.40391 19.34694,-5.33863 24.54909,-11.45056 24.54909,-11.45056 0,0 19.34694,1.52798 25.29356,-16.03452 5.95569,-17.55318 9.66892,-54.20617 7.43554,-71.00468 -2.23339,-16.79851 -5.21124,-38.93564 8.18,-46.57556 13.39124,-7.63061 27.52694,-16.79851 25.29356,-24.42912 -2.23339,-7.6306 -14.13571,-18.32649 -14.13571,-18.32649 0,0 -2.97784,-19.081167 -0.75354,-23.665119 2.23339,-4.574635 15.62463,-16.034517 8.18001,-24.429112 -7.43554,-8.394596 -20.83586,-8.394596 -20.83586,-8.394596 l -17.10447,1.518667 c 0,0 -29.00588,-26.731337 -66.95529,-25.203353 -37.92217,1.527984 -61.73588,25.193104 -61.73588,25.193104 0,0 -12.64677,-4.582089 -23.807344,0 -11.166931,4.583953 -13.391239,0 -11.157852,12.978549 z"
     id="path8907"
     inkscape:connector-curvature="0"
     style="fill:#fba919;stroke-width:0.91971201" />
  <path
     d="m 149.65613,177.33838 c 0,0 -14.7349,23.12008 -25.54141,39.52728 -1.67231,2.53794 10.80741,2.71403 10.80741,2.71403 l 14.73491,-42.24131 z m 7.01519,-47.93304 c 0,0 -4.44135,11.37043 -6.87447,17.39852 -2.64193,6.55356 -12.71033,9.81357 -12.71033,9.81357 0,0 5.22032,-5.61814 5.22032,-19.85075 0,-5.96287 7.51089,-8.3387 7.51089,-8.3387 l 6.8545,0.9876 z"
     id="path8909"
     inkscape:connector-curvature="0"
     style="fill:#e78724;stroke-width:0.91971201" />
  <path
     d="m 152.18458,135.83405 c 0,0 -9.09969,11.11515 -25.99535,4.89141 -16.89929,-6.22374 -18.63152,-28.45963 -18.63152,-34.68524 0,-6.225602 32.06361,6.22561 36.39693,8.89399 4.33331,2.66838 12.56234,13.33911 8.22994,20.89984 z M 88.360577,17.051916 c 0,0 15.597383,-3.115597 25.996243,5.333969 10.4025,8.447703 13.43119,15.11959 13.43119,15.11959 l -17.52664,14.257769 c 0,0 -8.4687,-4.030524 -11.069777,-15.592892 C 96.593238,24.609848 98.326383,19.274947 88.360577,17.051916 Z"
     id="path8911"
     inkscape:connector-curvature="0"
     style="fill:#e78724;stroke-width:0.91971201" />
  <path
     d="m 147.63609,103.72495 c -6.7165,-9.782822 -17.78356,-14.049997 -26.61905,-14.758087 -15.06809,-1.208412 -22.221283,4.257858 -22.221283,4.257858 0,0 24.676183,1.071452 31.788523,10.658619 13.24053,17.84201 32.5566,19.29173 35.64521,15.37301 -3.5716,0.18262 -7.50091,-1.63326 -11.70621,-5.7141 -2.62741,-2.55285 -4.7573,-6.71195 -6.88809,-9.8173 z m -41.65718,34.59114 c 0,0 -27.378049,-9.65891 -22.175893,-19.43894 5.199432,-9.78469 1.06222,-15.11493 1.06222,-15.11493 0,0 -15.288709,11.71144 -11.393901,24.16078 2.394989,7.63993 6.411452,13.17421 28.466594,23.77693 10.57862,20.16194 2.18436,56.46088 2.68733,56.62858 0.83797,0.27951 14.85292,-7.10885 13.89601,-41.06923 -0.29052,-10.43501 -1.09853,-24.66204 -12.53782,-28.95716 z M 141.85653,34.450438 c -11.48015,5.985226 -27.20737,14.320193 -27.20737,14.320193 l 6.18993,3.177089 c -0.59012,0.982941 -0.8761,1.568979 -0.8761,1.568979 l 6.34608,2.964662 c 0,0 15.5066,11.529758 25.01211,18.941413 -3.1685,-10.011091 -12.47428,-25.740011 -12.47428,-25.740011 0,0 -2.64193,-7.227179 2.99601,-15.233257 z m 38.13643,243.974342 c -35.28478,0 -47.23703,-18.38239 -47.23703,-18.38239 l 5.51447,13.77981 c 2.08449,5.96286 24.3203,24.51296 41.6699,24.51296"
     id="path8913"
     inkscape:connector-curvature="0"
     style="fill:#e78724;stroke-width:0.91971201" />
  <path
     d="m 136.6235,247.61913 c 0,0 3.24568,20.36226 16.24471,20.36226 11.04618,0 14.30094,-17.19914 14.30094,-20.75357 l -30.54656,0.39131 z m -21.63298,-30.70689 c 1.15483,-3.2628 5.19853,-16.45378 6.49771,-28.4587 1.55247,-14.37796 0.98959,-35.40731 0.98959,-35.40731 0,0 -3.46811,13.78447 -6.50951,16.01216 -3.03232,2.2221 -8.67026,17.33889 -8.67026,17.33889 0,0 -3.02324,22.50609 -4.45769,30.07054 3.97651,0.8171 7.31752,-1.58668 12.12928,0.44442 z M 83.599651,127.70219 c 0,0 7.362912,-2.67024 9.532747,-19.1203 2.165295,-16.453777 -2.601986,-30.682664 -2.601986,-30.682664 0,0 0.433059,22.677524 -2.165295,27.125444 -2.601986,4.4442 -4.766373,5.77932 -7.80051,11.56237 -3.035045,5.78212 1.298269,9.33561 3.035044,11.11515 z"
     id="path8915"
     inkscape:connector-curvature="0"
     style="fill:#e78724;stroke-width:0.91971201" />
  <path
     d="m 92.391567,20.942686 -1.502542,-0.978283 c -4.433181,0.154662 1.50345,0.978283 1.50345,0.978283 z"
     id="path8917"
     inkscape:connector-curvature="0"
     style="fill:#fdc168;stroke-width:0.91971201" />
  <path
     d="m 147.85035,29.579523 c 0,0 -6.93076,-1.18512 -10.39886,-6.52002 C 133.98339,17.722738 124.16375,7.0492104 108.50826,6.9299531 92.856402,6.8088324 77.367959,11.199923 77.367959,11.199923 l 13.518342,8.757958 c 1.43082,-0.04659 3.931123,-0.02795 8.065611,0.111804 16.966468,0.577652 19.578438,17.795425 19.578438,17.795425 l 59.80209,-8.450498"
     id="path8919"
     inkscape:connector-curvature="0"
     style="fill:#fba919;stroke-width:0.91971201" />
  <path
     d="m 153.62811,124.70213 c 0,0 -8.08922,8.30142 -20.51084,5.63118 -12.42253,-2.66652 -19.93434,-8.29957 -20.51175,-18.08425 -0.57741,-9.78283 2.60199,-13.6354 2.60199,-13.6354 0,0 13.87241,4.45351 20.5181,10.37911 6.64568,5.93492 11.55732,15.4196 17.91248,15.71774 z"
     id="path8921"
     inkscape:connector-curvature="0"
     style="fill:#ffffff;stroke-width:0.91971201" />
  <path
     d="m 143.83934,121.73746 c 0,0 -7.0152,3.2889 -14.85656,0.60933 -10.2645,-3.5125 -10.94904,-14.46926 -10.94904,-14.46926 0,0 -6.29615,18.96471 11.35759,22.6151 14.16112,2.92739 22.53541,-5.49329 22.53541,-5.49329 l -8.0874,-3.26094 z"
     id="path8923"
     inkscape:connector-curvature="0"
     style="fill:#c9c9c9;stroke-width:0.91971201" />
  <path
     d="m 148.82542,25.556452 c -0.75536,-16.2637138 12.23641,-29.2180378 16.73768,-29.7677394 0.24876,2.7550299 -0.25057,13.5049573 4.24889,16.8106204 1.31098,-8.7775233 5.74143,-18.4578618 23.23629,-24.802723 -3.74682,10.1983627 -0.49933,18.7410984 1.04588,22.700813 11.94771,-11.12819635 19.99607,-9.2890252 19.99607,-9.2890252 0,0 -8.30075,14.6993932 -5.05417,24.3452592 -23.98258,-1.930477 -60.09443,2.614344 -60.21064,0.0028 z M 97.981388,50.330293 C 92.259017,45.457514 96.52424,40.935985 96.072115,35.40077 95.826987,32.456605 95.600017,29.676419 94.653098,28.142845 89.38739,19.610358 76.967584,17.02117 76.840481,16.994151 l -5.828594,-1.172076 3.858493,-4.633332 c 0.499334,-0.600013 16.350929,-16.1183693 40.88186,-7.9939658 17.15894,5.6796287 29.86019,24.9359558 30.33229,25.7148548 l -8.59763,4.150713 C 137.38703,32.896366 127.34587,14.796276 112.62913,9.9262926 100.7359,5.9852117 89.7687,9.7334311 85.065879,12.190318 c 4.993343,2.046008 11.521004,5.771867 15.461201,12.14561 1.86116,3.009384 2.16984,6.801393 2.46944,10.470419 0.39947,4.858803 0.7717,9.44555 4.25795,12.415802 l -9.260372,3.107212 z M 82.698126,121.44864 c 0,0 7.208572,-9.17443 9.344815,-27.026688 0.838882,-7.031522 -0.65095,-20.900773 -3.035045,-26.236605 0.433059,13.118302 -2.816245,26.236605 -2.816245,26.236605 0,0 -2.187993,24.358308 -3.486262,27.026688 z"
     id="path8925"
     inkscape:connector-curvature="0"
     style="fill:#463014;stroke-width:0.91971201" />
  <path
     d="m 120.7138,41.063628 c -0.004,-0.01863 -2.31328,-10.377248 -8.71565,-15.605936 -9.03341,-7.373455 -20.062339,-3.451008 -20.168561,-3.416535 l -1.59787,-5.077752 c 0.53565,-0.177023 13.146111,-4.2532 24.757901,4.12742 11.68442,8.428137 13.09163,16.068058 13.20966,16.912176 l -7.48094,3.060627 z m -15.37223,73.805362 c 0,0 -3.78223,-5.55665 -3.10222,-11.66765 0.33864,-3.0187 1.70136,-6.115664 4.13448,-7.215067 4.52124,-2.031101 6.52766,3.223674 6.52766,3.223674 0,0 -6.36424,1.611833 -7.55356,15.661833 z"
     id="path8927"
     inkscape:connector-curvature="0"
     style="fill:#463014;stroke-width:0.91971201" />
  <path
     d="m 146.87075,123.33812 c 0.15797,0.3028 0.23877,0.47237 0.23877,0.47237 0,0 -11.797,9.08592 -23.88633,-0.13416 -6.47319,-4.938 -5.86128,-17.15256 -3.87847,-22.3328 5.15676,1.20189 9.52911,3.36343 13.18424,5.88833 -4.6193,-4.2299 -8.663,-7.341774 -8.6521,-7.41631 l -5.25027,-1.527984 -10.20458,-3.587036 c -0.13074,0.80126 -3.85304,18.70849 6.89081,30.90441 4.76184,5.41316 27.08662,17.52523 37.68612,-3.18641 l -6.12819,0.94102 z"
     id="path8929"
     inkscape:connector-curvature="0"
     style="fill:#463014;stroke-width:0.91971201" />
  <path
     d="m 145.76586,124.66952 c 6.64205,10.37445 23.40062,4.44606 23.11192,-6.52189 0,0 -11.1978,6.34207 -21.09007,-5.3349 -5.77684,-6.81071 -24.28581,-25.612366 -49.384158,-19.360675 17.333248,3.91313 40.279928,20.161935 47.362308,31.230505 z"
     id="path8931"
     inkscape:connector-curvature="0"
     style="fill:#463014;stroke-width:0.91971201" />
  <path
     d="m 96.059405,153.94905 c 1.59787,0.94753 7.232175,6.93649 7.235805,15.89476 0,4.49078 -0.43578,27.0565 -2.60198,40.84097 3.25929,2.17271 5.52898,2.63484 8.77284,4.84948 1.62511,-15.96557 2.78901,-39.10521 2.2461,-48.44641 -0.61736,-10.64931 -6.17359,-17.79543 -11.32127,-20.84208 -1.606946,-0.95219 -3.295604,-1.88855 -4.99334,-2.8305 -8.8246,-4.89327 -17.9488,-9.95519 -17.9488,-18.59855 0,-6.76133 2.560224,-8.87628 5.274787,-11.11794 l 0.290522,-0.24224 c 1.797603,-1.49258 3.840334,-3.18455 5.047816,-5.96287 3.295606,-7.596131 3.831256,-26.944696 0,-31.857537 -1.90655,-2.450365 -7.026996,-10.686572 -5.55623,-16.211539 0.562886,-2.114954 1.861156,-3.680206 3.967439,-4.788926 2.233386,-1.173939 5.247549,-1.770226 8.960781,-1.770226 7.290275,0 15.379495,2.273342 19.546665,3.633621 14.9074,4.844828 32.89251,18.820292 38.04927,22.994298 l 0.25421,0.195656 3.29561,2.357195 -2.06089,-3.549768 c -0.12711,-0.223607 -13.19151,-22.27689 -36.56035,-30.364026 -4.54849,-1.574569 -13.47295,-4.211273 -22.252151,-4.211273 -5.220313,0 -9.659849,0.931697 -13.173347,2.776459 -4.276118,2.245391 -7.172257,5.832427 -8.379738,10.360478 -2.950612,11.105835 6.663843,23.469463 6.99068,23.870093 1.125772,2.049735 1.59787,16.956897 -0.989589,22.929075 -0.354074,0.8199 -1.325506,1.63048 -2.569302,2.65534 -0.38131,0.31678 -0.817093,0.65219 -1.280112,1.00624 -3.64968,2.82304 -9.169594,7.09953 -9.169594,16.94758 0,13.47234 13.318608,20.78617 24.013442,26.65587 1.761288,0.96896 3.431788,1.88203 4.947949,2.77646 z"
     id="path8933"
     inkscape:connector-curvature="0"
     style="fill:#463014;stroke-width:0.91971201" />
  <path
     d="M 97.981388,50.329361 C 92.259017,45.456582 96.52424,40.935985 96.072115,35.40077 95.826987,32.456605 95.600017,29.676419 94.653098,28.142845 89.38739,19.610358 76.967584,17.02117 76.840481,16.994151 l -5.828594,-1.172076 3.858493,-4.633332 c 0.499334,-0.600013 16.350929,-16.1183693 40.88186,-7.9939658 17.15894,5.6796287 29.86019,24.9359558 30.33229,25.7148548 l -8.59763,4.150713 C 137.38703,32.896366 127.34587,14.796276 112.62913,9.9262926 100.7359,5.9852117 89.7687,9.7334311 85.065879,12.190318 c 4.993343,2.046008 11.521004,5.771867 15.461201,12.14561 1.86116,3.009384 2.16984,6.801393 2.46944,10.470419 0.39947,4.858803 0.7717,9.44555 4.25795,12.415802 l -9.260372,3.107212 z"
     id="path8935"
     inkscape:connector-curvature="0"
     style="fill:#463014;stroke-width:0.91971201" />
  <path
     d="m 97.795272,51.327209 -0.369507,-0.313982 c -4.243434,-3.60567 -3.490801,-7.174072 -2.761773,-10.612036 0.331377,-1.583886 0.680911,-3.232991 0.539281,-4.919364 -0.231509,-2.83236 -0.45394,-5.506333 -1.285559,-6.857294 -5.0115,-8.124404 -17.131706,-10.72384 -17.249731,-10.751791 l -7.281202,-1.472082 4.829925,-5.785843 c 0.09079,-0.102487 10.268129,-10.64930385 27.499704,-10.64930385 4.70281,0 9.51458,0.80126001 14.29911,2.39446295 17.90341,5.9255971 30.68637,25.8918779 30.80439,26.0875339 l 0.51749,0.847845 -10.17734,4.919364 -0.40855,-0.661506 c -1.08945,-1.90998 -10.74022,-18.24264 -24.39475,-22.761373 -3.35008,-1.1180375 -6.88173,-1.6770561 -10.49509,-1.6770561 -6.536741,0 -11.838763,1.8354441 -14.662272,3.0559681 4.720979,2.180173 10.431548,5.851061 14.053992,11.71144 1.9701,3.195723 2.28786,7.090219 2.59654,10.854277 0.38131,4.686439 0.74446,9.093369 3.94927,11.823243 l 1.20748,1.024868 -11.203237,3.773375 z"
     id="path8937"
     inkscape:connector-curvature="0"
     style="fill:#463014;stroke-width:0.91971201" />
  <path
     d="m 120.7138,41.063628 c -0.004,-0.01863 -2.31328,-10.377248 -8.71565,-15.605936 -9.03341,-7.373455 -20.062339,-3.451008 -20.168561,-3.416535 l -1.59787,-5.077752 c 0.53565,-0.177023 13.146111,-4.2532 24.757901,4.12742 11.68442,8.428137 13.09163,16.068058 13.20966,16.912176 l -7.48094,3.060627 z"
     id="path8939"
     inkscape:connector-curvature="0"
     style="fill:#463014;stroke-width:0.91971201" />
  <path
     d="m 120.09281,42.274835 -0.22515,-1.019277 c -0.0236,-0.09969 -2.28786,-10.10333 -8.41242,-15.100024 -3.4899,-2.850995 -7.69883,-4.295126 -12.501512,-4.295126 -3.749547,0 -6.53674,0.92238 -6.84088,1.024867 l -0.827987,0.288826 -2.142599,-6.773441 0.826172,-0.270193 c 0.372231,-0.12112 3.713231,-1.192573 8.452368,-1.192573 6.246218,0 12.147438,1.882029 17.077228,5.441114 11.98402,8.646155 13.44571,16.630804 13.57281,17.515916 l 0.10895,0.698774 -9.06065,3.708156 z M 98.953728,20.079934 c 5.131342,0 9.832342,1.61929 13.581882,4.680849 5.43821,4.444197 7.99571,12.289092 8.77013,15.102818 l 5.89215,-2.410301 c -0.53293,-2.135451 -2.88252,-8.543668 -12.71033,-15.633887 -4.70101,-3.391379 -10.10925,-5.10943 -16.07856,-5.10943 -3.275633,0 -5.819515,0.534795 -7.077837,0.860889 l 1.06222,3.372745 c 1.234717,-0.341001 3.606102,-0.863683 6.560345,-0.863683 z M 152.3253,263.09649 c -2.56023,0 -5.17311,-0.95312 -6.98433,-2.56216 -1.38633,-1.22612 -6.07372,-5.64609 -8.14187,-11.05925 -0.7717,-2.02458 -0.5992,-3.64294 0.52112,-4.80943 0.7717,-0.79846 2.3732,-1.75345 5.62432,-1.75345 l 2.31328,-0.004 c 2.75996,-0.003 7.39923,-0.003 11.36667,-0.003 h 3.80402 c 2.47851,0 4.24888,0.54971 5.2657,1.62116 1.30735,1.37891 0.88973,3.13982 0.52658,4.0622 -0.63552,1.62115 -3.26837,6.89456 -7.73515,11.78598 -1.59787,1.7609 -3.92204,2.72987 -6.54582,2.72987 z m 2.68278,-137.81671 -9.24222,-0.61026 c 0,0 2.36231,4.27463 3.89299,9.80332 1.72861,6.25169 -1.57971,15.39164 -1.57971,15.39164 0,0 12.32448,-14.32019 6.92985,-24.5875 z m -11.53916,162.86541 c -32.89977,-2.59478 -44.475245,-34.4989 -44.475245,-41.14377 l 8.592175,0.004 h -4.29609 4.29609 c 0.0427,2.87895 8.78647,30.16837 36.54219,32.35786 l -0.65821,8.79523 z"
     id="path8941"
     inkscape:connector-curvature="0"
     style="fill:#463014;stroke-width:0.91971201" />
  <path
     d="m 134.22397,230.9846 c -0.51386,-3.04944 -0.56742,-5.94143 0.0599,-8.78311 -2.5003,-1.92861 -6.98704,-2.64602 -10.35347,-3.77338 -2.75995,-1.78886 -16.84118,1.82613 -27.063909,-10.86359 -12.810196,-15.89476 -10.11379,-25.38876 -10.11379,-25.38876 -3.286528,3.74542 -6.46411,2.31061 -11.475611,19.77062 -5.011501,17.46002 2.351411,29.62799 16.078565,41.84254 6.482268,5.76721 15.651855,8.14304 23.532255,9.05611 -2.64193,-2.72056 4.51217,-3.00007 9.44196,-4.89142 -0.39947,-4.09015 0.26329,-8.04986 3.23206,-11.24559 1.78852,-1.92861 4.09454,-3.0746 6.48226,-3.99698 0.13619,-0.31678 0.24513,-0.6056 0.37223,-0.91306 -0.0817,-0.27951 -0.15433,-0.55902 -0.20881,-0.85717 z"
     id="path8943"
     inkscape:connector-curvature="0"
     style="fill:#ffffff;stroke-width:0.91971201" />
  <path
     d="m 124.27633,247.88001 c -0.28417,-0.85716 -0.49934,-1.73296 -0.71087,-2.61155 -0.22697,-0.95965 -1.36182,-3.68207 0.0363,-0.57486 -0.35952,-0.79567 -0.59466,-1.61556 -0.76807,-2.44105 -22.22491,-0.0298 -41.562762,-15.68978 -37.822294,-48.61598 -2.905218,-3.96437 -6.981602,7.99397 -6.981602,7.99397 0,0 -11.121537,33.15725 17.612884,46.00723 9.578142,4.28581 18.039582,7.35855 20.036922,6.11846 4.15809,0.86647 7.91671,-2.10844 9.32393,-4.065 -0.26329,-0.60095 -0.49934,-1.20189 -0.70815,-1.81215 z"
     id="path8945"
     inkscape:connector-curvature="0"
     style="fill:#c9c9c9;stroke-width:0.91971201" />
  <path
     d="m 133.8236,226.21058 c 0.0345,-2.77925 0.5874,-5.47092 1.89747,-8.15235 0.0908,-0.18634 0.19701,-0.36336 0.29506,-0.54225 -8.55223,-0.0745 -18.40274,-0.91586 -26.79156,-4.36034 -9.21498,-3.78549 -20.74506,-16.73329 -22.733319,-31.94605 0,0 -17.358677,13.74999 -12.256388,43.18046 4.784531,27.63601 27.318127,36.64553 53.020217,38.16979 0.0182,-0.17889 -2.88706,-6.33555 -1.9701,-10.10426 -14.58964,1.09008 -30.913325,-4.69576 -38.78465,-18.0004 -7.208572,-12.16797 -5.183998,-32.95415 -2.224307,-36.0008 7.235808,23.41356 33.246577,28.17454 49.561197,27.76459 z"
     id="path8947"
     inkscape:connector-curvature="0"
     style="fill:#463014;stroke-width:0.91971201" />
  <path
     d="m 136.51637,209.44934 c -4.62474,13.92888 -14.07215,25.19963 -14.07215,25.19963 0,0 12.99541,-0.61492 13.71263,-2.97212 0.53111,-1.74227 11.73345,-28.6497 16.03317,-60.17835 -4.0446,6.82003 -15.27781,36.74616 -15.67365,37.93873 z"
     id="path8949"
     inkscape:connector-curvature="0"
     style="fill:#463014;stroke-width:0.91971201" />
  <path
     d="m 210.13732,177.33838 c 0,0 14.73036,23.12008 25.5414,39.52728 1.67232,2.53794 -10.81104,2.71403 -10.81104,2.71403 z m -7.01792,-47.93304 c 0,0 4.44317,11.37043 6.87266,17.39852 2.64193,6.55356 12.71032,9.81357 12.71032,9.81357 0,0 -5.22031,-5.61814 -5.22031,-19.85075 0,-5.96287 -7.50999,-8.3387 -7.50999,-8.3387 l -6.84542,0.9876 z"
     id="path8951"
     inkscape:connector-curvature="0"
     style="fill:#e78724;stroke-width:0.91971201" />
  <path
     d="m 207.60615,135.83405 c 0,0 9.09968,11.11515 25.99988,4.89141 16.9002,-6.22374 18.63153,-28.45963 18.63153,-34.68524 0,-6.225602 -32.06362,6.22561 -36.39694,8.89399 -4.33513,2.66838 -12.56506,13.33911 -8.23447,20.89984 z m 63.824,-118.782134 c 0,0 -15.59739,-3.115597 -25.99807,5.333969 -10.40431,8.447703 -13.43663,15.11959 -13.43663,15.11959 l 17.5221,14.256837 c 0,0 8.47052,-4.029592 11.06706,-15.59196 2.59654,-11.560504 0.86249,-16.895405 10.83102,-19.118436 z"
     id="path8953"
     inkscape:connector-curvature="0"
     style="fill:#e78724;stroke-width:0.91971201" />
  <path
     d="m 212.15735,103.72495 c 6.71559,-9.782822 17.77903,-14.049997 26.61906,-14.758087 15.06809,-1.208412 22.21765,4.257858 22.21765,4.257858 0,0 -24.67619,1.071452 -31.78943,10.658619 -13.24144,17.84201 -32.55115,19.29173 -35.63976,15.37301 3.56797,0.18262 7.49909,-1.63326 11.70258,-5.7141 2.62377,-2.55285 4.75729,-6.71195 6.88173,-9.8173 z m 41.65538,34.59114 c 0,0 27.37623,-9.65891 22.1768,-19.43987 -5.19853,-9.79214 -1.06404,-15.12145 -1.06404,-15.12145 0,0 15.29144,11.71144 11.39209,24.15892 -2.39408,7.63992 -6.40964,13.1742 -28.46569,23.77692 -10.58589,20.16194 -2.18799,56.46088 -2.68733,56.62858 -0.84433,0.27951 -14.85292,-7.10885 -13.89965,-41.06923 0.29052,-10.42569 1.09854,-24.66203 12.53783,-28.95716 z M 217.93692,34.450438 c 11.47561,5.985226 27.20646,14.320193 27.20646,14.320193 l -6.18267,3.177089 c 0.59012,0.982941 0.88064,1.568979 0.88064,1.568979 l -6.34608,2.964662 c 0,0 -15.5066,11.529758 -25.01211,18.941413 3.1685,-10.011091 12.4652,-25.740011 12.4652,-25.740011 0,0 2.64193,-7.227179 -2.99601,-15.233257 z M 179.80049,278.42478 c 35.28024,0 47.23249,-18.38239 47.23249,-18.38239 l -5.51084,13.77981 c -2.08449,5.96286 -24.32212,24.51296 -41.66809,24.51296"
     id="path8955"
     inkscape:connector-curvature="0"
     style="fill:#e78724;stroke-width:0.91971201" />
  <path
     d="m 223.16994,247.61913 c 0,0 -3.25021,20.36226 -16.24561,20.36226 -11.04437,0 -14.29912,-17.19914 -14.29912,-20.75357 z m 21.63207,-30.70689 c -1.15482,-3.2628 -5.19852,-16.45378 -6.50042,-28.4587 -1.55792,-14.37796 -0.98687,-35.40731 -0.98687,-35.40731 0,0 3.46811,13.78447 6.4968,16.01216 3.03595,2.2221 8.66662,17.33889 8.66662,17.33889 0,0 3.0178,22.50609 4.45407,30.07054 -3.9738,0.8171 -7.31752,-1.58668 -12.12929,0.44442 z m 31.39452,-89.21005 c 0,0 -7.36836,-2.67024 -9.53275,-19.1203 -2.1662,-16.453777 2.60017,-30.682664 2.60017,-30.682664 0,0 -0.43578,22.677524 2.16075,27.125444 2.59654,4.44699 4.76638,5.77932 7.7987,11.56237 3.03232,5.78118 -1.30735,9.33561 -3.03232,11.11515 z"
     id="path8957"
     inkscape:connector-curvature="0"
     style="fill:#e78724;stroke-width:0.91971201" />
  <path
     d="m 267.39916,20.942686 1.50708,-0.978283 c 4.43318,0.154662 -1.50708,0.978283 -1.50708,0.978283 z"
     id="path8959"
     inkscape:connector-curvature="0"
     style="fill:#fdc168;stroke-width:0.91971201" />
  <path
     d="m 211.93946,29.579523 c 0,0 6.93439,-1.18512 10.39886,-6.52002 3.46811,-5.336765 13.29138,-16.0102926 28.94596,-16.1295499 15.65368,-0.1211207 31.14031,4.2699699 31.14031,4.2699699 l -13.51835,8.757958 c -1.43082,-0.04659 -3.93112,-0.02795 -8.06924,0.111804 -16.96375,0.577652 -19.57572,17.795425 -19.57572,17.795425 l -59.79302,-8.450498"
     id="path8961"
     inkscape:connector-curvature="0"
     style="fill:#fba919;stroke-width:0.91971201" />
  <path
     d="m 206.16352,124.70213 c 0,0 8.08922,8.30142 20.50903,5.63118 12.42343,-2.66652 19.93433,-8.29957 20.51265,-18.08425 0.57651,-9.78283 -2.59926,-13.6354 -2.59926,-13.6354 0,0 -13.86788,4.45351 -20.51175,10.37911 -6.64387,5.9256 -11.55369,15.4196 -17.91067,15.71774 z"
     id="path8963"
     inkscape:connector-curvature="0"
     style="fill:#ffffff;stroke-width:0.91971201" />
  <path
     d="m 215.95048,121.73746 c 0,0 7.01791,3.2889 14.85655,0.60933 10.26813,-3.5125 10.95086,-14.46926 10.95086,-14.46926 0,0 6.29343,18.96471 -11.36122,22.6151 -14.15749,2.92739 -22.53359,-5.49329 -22.53359,-5.49329 l 8.0874,-3.26094 z"
     id="path8965"
     inkscape:connector-curvature="0"
     style="fill:#c9c9c9;stroke-width:0.91971201" />
  <path
     d="m 261.81116,50.329361 c 5.72146,-4.872779 1.45987,-9.393376 1.91199,-14.928591 0.2415,-2.944165 0.46847,-5.724351 1.4163,-7.257925 5.2657,-8.532487 17.68733,-11.121675 17.81534,-11.148694 l 5.82859,-1.172076 -3.85849,-4.633332 C 284.42555,10.58873 268.57396,-4.9296263 244.04303,3.1947772 226.88408,8.8744059 214.18283,28.130733 213.71074,28.909632 l 8.59762,4.150713 c 0.0999,-0.163979 10.14103,-18.264069 24.86685,-23.1340524 11.89324,-3.9410809 22.86044,-0.1928615 27.55418,2.2640254 -4.99334,2.046008 -11.521,5.771867 -15.46121,12.14561 -1.86115,3.009384 -2.16983,6.801393 -2.46943,10.470419 -0.39947,4.858803 -0.78078,9.44555 -4.26704,12.415802 l 9.2513,3.107212 z m 15.27963,71.119279 c 0,0 -7.20585,-9.17443 -9.34209,-27.026688 -0.83798,-7.031522 0.64913,-20.900773 3.03232,-26.236605 -0.43306,13.118302 2.81897,26.236605 2.81897,26.236605 0,0 2.19162,24.358308 3.4908,27.026688 z"
     id="path8967"
     inkscape:connector-curvature="0"
     style="fill:#463014;stroke-width:0.91971201" />
  <path
     d="m 239.07783,41.063628 c 0.005,-0.01863 2.31509,-10.377248 8.71837,-15.605936 9.0316,-7.373455 20.06144,-3.451008 20.16403,-3.416535 l 1.60695,-5.077752 c -0.53565,-0.177023 -13.14066,-4.2532 -24.76153,4.12742 -11.69351,8.428137 -13.09164,16.068058 -13.21875,16.912176 l 7.48094,3.060627 z m 15.37314,73.805362 c 0,0 3.78223,-5.55665 3.0986,-11.66765 -0.33592,-3.0187 -1.69774,-6.115664 -4.13086,-7.215067 -4.52125,-2.031101 -6.52585,3.223674 -6.52585,3.223674 0,0 6.36425,1.611833 7.55811,15.661833 z"
     id="path8969"
     inkscape:connector-curvature="0"
     style="fill:#463014;stroke-width:0.91971201" />
  <path
     d="m 212.92179,123.33812 c -0.15707,0.3028 -0.23878,0.47237 -0.23878,0.47237 0,0 11.79337,9.08592 23.88362,-0.13416 6.47591,-4.938 5.86491,-17.15256 3.87665,-22.3328 -5.15222,1.20189 -9.52367,3.36343 -13.18243,5.88833 4.62112,-4.2299 8.66482,-7.341774 8.65029,-7.41631 l 5.2539,-1.527984 10.1955,-3.587036 c 0.12711,0.80126 3.84942,18.70849 -6.89989,30.90441 -4.76637,5.41316 -27.09116,17.52523 -37.68612,-3.18641 l 6.12819,0.94102 z"
     id="path8971"
     inkscape:connector-curvature="0"
     style="fill:#463014;stroke-width:0.91971201" />
  <path
     d="m 214.02395,124.66952 c -6.64205,10.37445 -23.39608,4.44606 -23.10556,-6.52189 0,0 11.19417,6.34207 21.08644,-5.3349 5.77593,-6.81071 24.28762,-25.612366 49.38598,-19.360675 -17.33144,3.91313 -40.28085,20.161935 -47.36686,31.230505 z"
     id="path8973"
     inkscape:connector-curvature="0"
     style="fill:#463014;stroke-width:0.91971201" />
  <path
     d="m 263.73586,153.94905 c -1.59787,0.94753 -7.2358,6.93649 -7.2358,15.89476 -0.004,4.49078 0.43305,27.0565 2.60198,40.84097 -3.25929,2.17271 -5.52899,2.63484 -8.77376,4.84948 -1.6251,-15.96557 -2.79264,-39.10521 -2.24609,-48.44641 0.62008,-10.64931 6.17358,-17.79543 11.3249,-20.84208 1.6133,-0.95219 3.30015,-1.88855 5.00242,-2.8305 8.8246,-4.89327 17.9488,-9.95519 17.9488,-18.59855 0,-6.76133 -2.56385,-8.87628 -5.27479,-11.11794 l -0.29052,-0.24224 c -1.7976,-1.49258 -3.83852,-3.18455 -5.04146,-5.96287 -3.2956,-7.596131 -3.84033,-26.944696 -0.009,-31.857537 1.90655,-2.450365 7.027,-10.686572 5.55623,-16.211539 -0.56288,-2.114954 -1.86115,-3.680206 -3.96744,-4.788926 -2.23338,-1.173939 -5.24755,-1.770226 -8.96078,-1.770226 -7.29028,0 -15.37949,2.273342 -19.54667,3.633621 -14.9074,4.844828 -32.89251,18.820292 -38.05835,22.994298 -0.14526,0.111804 -0.23605,0.186339 -0.25421,0.195656 l -3.30468,2.357195 2.06089,-3.549768 c 0.1271,-0.223607 13.1915,-22.27689 36.56035,-30.364026 4.54848,-1.574569 13.47295,-4.211273 22.25215,-4.211273 5.22031,0 9.65077,0.931697 13.16427,2.776459 4.27612,2.245391 7.17226,5.832427 8.37974,10.360478 2.95061,11.105835 -6.65477,23.469463 -6.99068,23.870093 -1.12578,2.049735 -1.59787,16.956897 0.98959,22.929075 0.35407,0.8199 1.33458,1.63048 2.5693,2.65534 0.39039,0.31678 0.81709,0.65219 1.28011,1.00624 3.64968,2.82304 9.16959,7.09953 9.16959,16.94758 0,13.47234 -13.30953,20.78617 -24.00436,26.65587 -1.75221,0.96896 -3.43179,1.88203 -4.93887,2.77646 z"
     id="path8975"
     inkscape:connector-curvature="0"
     style="fill:#463014;stroke-width:0.91971201" />
  <path
     d="m 247.85703,48.743612 c -2.11718,-3.680206 -7.53177,-10.786264 -20.0115,-17.031433 -13.92689,-6.965372 -30.0454,-10.500233 -47.91522,-10.50955 v -0.0037 h -0.0635 v 0.0093 c -17.86709,0.0093 -33.99105,3.549768 -47.91793,10.50955 -12.47428,6.251691 -17.88525,13.351227 -20.00969,17.031433 l -0.90788,1.239158 10.68484,2.440116 0.34318,-0.437898 0.17885,-0.404357 c 0.16342,-0.726724 1.59787,-4.639854 13.5129,-10.602719 12.73756,-6.374675 27.59049,-9.605803 44.15023,-9.61512 16.55974,0.0075 31.41267,3.239513 44.15024,9.61512 11.91139,5.962865 13.35492,9.875995 13.51834,10.600856 l 0.17249,0.403425 0.33592,0.437898 10.68576,-2.441048 -0.90789,-1.233568 z"
     id="path8977"
     inkscape:connector-curvature="0"
     style="fill:#463014;stroke-width:0.91971201" />
  <path
     d="m 261.81116,50.329361 c 5.72146,-4.872779 1.45987,-9.393376 1.91199,-14.928591 0.2415,-2.944165 0.46847,-5.724351 1.4163,-7.257925 5.2657,-8.532487 17.68733,-11.121675 17.81534,-11.148694 l 5.82859,-1.172076 -3.85849,-4.633332 C 284.42555,10.58873 268.57396,-4.9296263 244.04303,3.1947772 226.88408,8.8744059 214.18283,28.130733 213.71074,28.909632 l 8.59762,4.150713 c 0.0999,-0.163979 10.14103,-18.264069 24.86685,-23.1340524 11.89324,-3.9410809 22.86044,-0.1928615 27.55418,2.2640254 -4.99334,2.046008 -11.521,5.771867 -15.46121,12.14561 -1.86115,3.009384 -2.16983,6.801393 -2.46943,10.470419 -0.39947,4.858803 -0.78078,9.44555 -4.26704,12.415802 l 9.2513,3.107212 z"
     id="path8979"
     inkscape:connector-curvature="0"
     style="fill:#463014;stroke-width:0.91971201" />
  <path
     d="m 250.79675,47.562219 1.20385,-1.028594 c 3.20482,-2.728011 3.56434,-7.134009 3.9511,-11.817653 0.31049,-3.773376 0.63097,-7.667872 2.59835,-10.863595 3.61518,-5.860378 9.33846,-9.52195 14.05399,-11.711439 -2.82351,-1.229841 -8.12735,-3.0559684 -14.66772,-3.0559684 -3.61336,0 -7.13775,0.5590186 -10.49147,1.6677384 -13.65452,4.518734 -23.30166,20.842077 -24.39475,22.761374 l -0.40854,0.661505 -10.17734,-4.910046 0.51749,-0.847845 c 0.12075,-0.195657 12.8919,-20.1619371 30.79985,-26.0875342 4.79361,-1.59320297 9.60537,-2.39446297 14.30819,-2.39446297 17.24066,0 27.418,10.54681717 27.49971,10.64930417 l 4.82992,5.795159 -7.2812,1.462765 c -0.11802,0.01863 -12.23823,2.627388 -17.24973,10.751791 -0.82617,1.350962 -1.04406,4.024934 -1.28011,6.857295 -0.13618,1.686373 0.20881,3.326161 0.54473,4.919364 0.7263,3.437964 1.47984,7.006366 -2.75996,10.612036 l -0.36315,0.30746 -11.20325,-3.773375 z"
     id="path8981"
     inkscape:connector-curvature="0"
     style="fill:#463014;stroke-width:0.91971201" />
  <path
     d="m 239.07783,41.063628 c 0.005,-0.01863 2.31509,-10.377248 8.71837,-15.605936 9.0316,-7.373455 20.06144,-3.451008 20.16403,-3.416535 l 1.60695,-5.077752 c -0.53565,-0.177023 -13.14066,-4.2532 -24.76153,4.12742 -11.69351,8.428137 -13.09164,16.068058 -13.21875,16.912176 l 7.48094,3.060627 z"
     id="path8983"
     inkscape:connector-curvature="0"
     style="fill:#463014;stroke-width:0.91971201" />
  <path
     d="m 230.63908,38.569473 0.0999,-0.696909 c 0.12711,-0.881386 1.59152,-8.869762 13.56919,-17.510326 4.92979,-3.553495 10.84009,-5.433661 17.07723,-5.433661 4.73914,0 8.08014,1.071453 8.45237,1.192573 l 0.82617,0.27951 -2.1426,6.773441 -0.82617,-0.279509 c -0.30868,-0.102487 -3.09587,-1.024867 -6.83634,-1.024867 -4.80269,0 -9.00618,1.453448 -12.49244,4.304443 -6.11911,5.003216 -8.38881,15.000332 -8.40697,15.102819 l -0.21789,1.024867 -9.06065,-3.708156 z m 36.76008,-17.627719 1.06676,-3.370882 c -1.25832,-0.327958 -3.80583,-0.860889 -7.08147,-0.860889 -5.9684,0 -11.37846,1.719914 -16.07856,5.10943 -9.82963,7.090219 -12.17922,13.498436 -12.71215,15.633887 l 5.8985,2.410301 c 0.7717,-2.813726 3.32648,-10.660484 8.7665,-15.102818 3.75862,-3.061559 8.45237,-4.680849 13.58189,-4.680849 2.95061,0 5.32926,0.52175 6.56398,0.862752 z M 200.92142,260.37407 c -4.46405,-4.89886 -7.10507,-10.16948 -7.74422,-11.78877 -0.36315,-0.92238 -0.78078,-2.68049 0.52929,-4.0622 1.02046,-1.06866 2.78901,-1.61743 5.26208,-1.61743 h 3.8131 c 3.96744,0 8.60671,0 11.36666,0.009 l 2.3151,0.009 c 3.25021,0 4.85716,0.95965 5.61978,1.75159 1.12577,1.16462 1.29827,2.78578 0.52657,4.81688 -2.06997,5.41316 -6.75463,9.83872 -8.14369,11.05925 -1.81576,1.61184 -4.42138,2.56217 -6.9816,2.56217 -2.62377,0 -4.94795,-0.96897 -6.54582,-2.72056 z m 3.86394,-135.09429 9.23859,-0.61026 c 0,0 -2.36049,4.27463 -3.89026,9.80332 -1.73406,6.25169 1.57971,15.39164 1.57971,15.39164 0,0 -12.32902,-14.32019 -6.93621,-24.5875 z"
     id="path8985"
     inkscape:connector-curvature="0"
     style="fill:#463014;stroke-width:0.91971201" />
  <path
     d="m 179.89763,91.410706 c -5.89214,0 -13.57281,-0.164911 -19.33604,-4.416247 0,0 7.5463,13.576701 19.32605,13.576701 l 0.009,-1.718054 0.0109,1.718054 c 11.78066,0 19.32605,-13.574838 19.32605,-13.574838 -5.76322,4.248541 -13.45025,4.416247 -19.33604,4.416247 z"
     id="path8987"
     inkscape:connector-curvature="0"
     style="fill:#e78724;stroke-width:0.91971201" />
  <path
     d="m 196.11873,91.345487 c -5.9103,3.670888 -11.1869,4.942656 -16.2211,5.055391 -5.0351,-0.111804 -10.3108,-1.384503 -16.2211,-5.05446 0,0 8.60671,10.779742 16.17843,10.863592 v 0.009 h 0.0418 c 0.0136,0 0.0272,0.009 0.0427,0.009 7.57173,-0.0839 16.18751,-10.854281 16.18751,-10.854281 z m 20.20489,196.799703 -0.65913,-8.79057 c 27.75391,-2.18949 36.4968,-29.48171 36.5422,-32.35413 h 8.59763 c 0.009,6.643 -11.57548,38.54992 -44.46799,41.14376 z"
     id="path8989"
     inkscape:connector-curvature="0"
     style="fill:#463014;stroke-width:0.91971201" />
  <path
     d="m 225.56856,230.9846 c 0.51568,-3.04944 0.56561,-5.94143 -0.0608,-8.78311 2.50393,-1.92861 6.98705,-2.64602 10.35347,-3.77338 2.75269,-1.78886 16.843,1.82613 27.06392,-10.86359 12.80384,-15.89476 10.10471,-25.38876 10.10471,-25.38876 3.28653,3.74542 6.46592,2.31061 11.47379,19.77062 5.0115,17.46002 -2.35595,29.62799 -16.08038,41.84254 -6.48227,5.76721 -15.65004,8.14304 -23.53408,9.05611 2.64193,-2.72056 -4.50309,-3.00007 -9.43288,-4.89142 0.39947,-4.09015 -0.26328,-8.04986 -3.23205,-11.24559 -1.77945,-1.92861 -4.08547,-3.0746 -6.47319,-3.99698 -0.13618,-0.31678 -0.24513,-0.6056 -0.37223,-0.91306 0.0817,-0.27951 0.15434,-0.55902 0.20881,-0.85717 z"
     id="path8991"
     inkscape:connector-curvature="0"
     style="fill:#ffffff;stroke-width:0.91971201" />
  <path
     d="m 235.51167,247.88001 c 0.28871,-0.85716 0.49934,-1.73296 0.71178,-2.61155 0.23151,-0.95965 1.36636,-3.68207 -0.0345,-0.57486 0.35952,-0.79567 0.59466,-1.61556 0.76807,-2.44105 22.22673,-0.0298 41.56277,-15.68978 37.82412,-48.61598 2.90976,-3.96437 6.98705,7.99397 6.98705,7.99397 0,0 11.12789,33.15725 -17.61016,46.00723 -9.57542,4.28581 -18.03687,7.35855 -20.0342,6.11846 -4.16264,0.86647 -7.91672,-2.10844 -9.32121,-4.065 0.26328,-0.60095 0.50841,-1.20189 0.71722,-1.81215 z"
     id="path8993"
     inkscape:connector-curvature="0"
     style="fill:#c9c9c9;stroke-width:0.91971201" />
  <path
     d="m 225.96531,226.21058 c -0.0309,-2.77925 -0.5874,-5.47092 -1.89293,-8.15235 -0.0926,-0.18634 -0.19974,-0.36336 -0.29597,-0.54225 8.55223,-0.0745 18.40274,-0.91586 26.79155,-4.36034 9.21862,-3.78549 20.75143,-16.73329 22.73333,-31.94605 0,0 17.36413,13.74999 12.26184,43.18046 -4.79361,27.63601 -27.32448,36.64553 -53.02386,38.16979 -0.0136,-0.17889 2.8916,-6.33555 1.97283,-10.10426 14.58964,1.09008 30.91333,-4.69576 38.79373,-18.0004 7.20858,-12.16797 5.184,-32.95415 2.22431,-36.0008 -7.22673,23.41356 -33.24659,28.17454 -49.5612,27.76459 z"
     id="path8995"
     inkscape:connector-curvature="0"
     style="fill:#463014;stroke-width:0.91971201" />
  <path
     d="m 236.34329,233.14242 c -3.07045,-3.40629 -8.71565,-7.46663 -21.73194,-7.46663 l -34.66288,-0.0214 h -0.0817 c -9.98668,0.007 -34.67196,0.0214 -34.67196,0.0214 -13.00993,0 -18.65694,4.0622 -21.72558,7.46663 -4.47585,4.95663 -5.17492,11.85398 -2.07905,20.47405 8.2254,22.94399 19.7918,46.25413 58.48567,46.28674 v 0.004 h 0.0454 c 0.0182,0 0.0272,0.009 0.0454,0.009 38.69387,-0.0279 50.26027,-23.33902 58.48567,-46.28674 3.09587,-8.6182 2.3968,-15.51276 -2.07905,-20.46939 z m -6.02469,18.86501 c -3.91933,11.52137 -14.45346,39.40895 -50.42369,39.45739 -35.97386,-0.0484 -46.50346,-27.93509 -50.42369,-39.45739 -2.16802,-6.39145 -2.00279,-11.12261 0.50841,-14.06118 1.7159,-2.00874 5.6561,-4.40693 14.63504,-4.40693 l 9.38113,-0.003 c 6.92077,-0.007 15.6101,-0.014 25.90183,-0.0186 10.28629,0.005 18.98015,0.0121 25.89911,0.0186 l 9.37841,0.004 c 8.98166,0 12.92095,2.39446 14.63685,4.39761 2.50847,2.93485 2.67552,7.66787 0.5066,14.05932 z"
     id="path8997"
     inkscape:connector-curvature="0"
     style="fill:#463014;stroke-width:0.91971201" />
  <path
     d="m 223.27435,209.44934 c 4.62474,13.92888 14.07033,25.19963 14.07033,25.19963 0,0 -12.99177,-0.61492 -13.70899,-2.97212 -0.52657,-1.74227 -11.72982,-28.6497 -16.0241,-60.17835 4.04915,6.82003 15.27963,36.74616 15.6791,37.93873 z"
     id="path8999"
     inkscape:connector-curvature="0"
     style="fill:#463014;stroke-width:0.91971201" />
  <text
     xml:space="preserve"
     style="font-style:normal;font-variant:normal;font-weight:normal;font-stretch:normal;font-size:48px;line-height:1.25;font-family:Arial;-inkscape-font-specification:Arial;letter-spacing:0px;word-spacing:0px;fill:#000000;fill-opacity:1;stroke:none;stroke-width:1.20000005"
     x="99.152542"
     y="310.88483"
     id="text9011"><tspan
       sodipodi:role="line"
       id="tspan9009"
       x="99.152542"
       y="354.12103"
       style="stroke-width:1.20000005"></tspan></text>
  <text
     xml:space="preserve"
     style="font-style:normal;font-variant:normal;font-weight:900;font-stretch:normal;font-size:51.20000076px;line-height:0;font-family:Arial;-inkscape-font-specification:'Arial Heavy';letter-spacing:0px;word-spacing:0px;fill:#000000;fill-opacity:1;stroke:none;stroke-width:1.20000005"
     x="77.796616"
     y="341.39331"
     id="text9015"><tspan
       sodipodi:role="line"
       id="tspan9013"
       x="77.796616"
       y="341.39331"
       style="font-style:normal;font-variant:normal;font-weight:900;font-stretch:normal;font-size:51.20000076px;line-height:0;font-family:Arial;-inkscape-font-specification:'Arial Heavy';stroke-width:1.20000005">GRUNT</tspan></text>
</svg>
