<?xml version="1.0" encoding="UTF-8" standalone="no"?>
<!-- Generator: Adobe Illustrator 16.0.0, SVG Export Plug-In . SVG Version: 6.00 Build 0)  -->

<svg
   xmlns:dc="http://purl.org/dc/elements/1.1/"
   xmlns:cc="http://creativecommons.org/ns#"
   xmlns:rdf="http://www.w3.org/1999/02/22-rdf-syntax-ns#"
   xmlns:svg="http://www.w3.org/2000/svg"
   xmlns="http://www.w3.org/2000/svg"
   xmlns:sodipodi="http://sodipodi.sourceforge.net/DTD/sodipodi-0.dtd"
   xmlns:inkscape="http://www.inkscape.org/namespaces/inkscape"
   version="1.1"
   id="Layer_1"
   x="0px"
   y="0px"
   width="389.728px"
   height="403.946px"
   viewBox="0 0 389.728 403.946"
   enable-background="new 0 0 389.728 403.946"
   xml:space="preserve"
   sodipodi:docname="linux.svg"
   inkscape:version="0.92.2 (5c3e80d, 2017-08-06)"><metadata
     id="metadata8786"><rdf:RDF><cc:Work
         rdf:about=""><dc:format>image/svg+xml</dc:format><dc:type
           rdf:resource="http://purl.org/dc/dcmitype/StillImage" /></cc:Work></rdf:RDF></metadata><defs
     id="defs8784" /><sodipodi:namedview
     pagecolor="#ffffff"
     bordercolor="#666666"
     borderopacity="1"
     objecttolerance="10"
     gridtolerance="10"
     guidetolerance="10"
     inkscape:pageopacity="0"
     inkscape:pageshadow="2"
     inkscape:window-width="1280"
     inkscape:window-height="697"
     id="namedview8782"
     showgrid="false"
     inkscape:zoom="1.3513272"
     inkscape:cx="192.2395"
     inkscape:cy="201.10551"
     inkscape:window-x="-8"
     inkscape:window-y="-8"
     inkscape:window-maximized="1"
     inkscape:current-layer="Layer_1" /><path
     fill="#FFFFFF"
     d="M188.345,6.737c-10.721,0-12.518,0.133-19.643,1.998c-8.789,2.33-13.916,5.26-19.907,11.319  c-3.063,2.996-4.593,4.926-6.059,7.39c-3.662,6.325-6.059,13.516-7.524,23.236c-0.799,4.727-0.866,6.458-0.799,18.176  c0,12.317,1.466,49.869,2.331,61.122c0.599,7.457,0.333,8.255-5.927,16.977c-2.197,3.062-5.259,7.524-6.791,9.92  c-4.194,6.458-10.119,14.781-14.979,21.173c-8.989,11.585-11.252,15.847-16.913,31.227c-5.46,15.046-8.789,22.503-16.845,38.15  c-4.128,7.857-5.193,11.187-5.393,16.777c-0.267,4.795,0.398,11.453,1.132,12.649c0.599,0.801,1.331,1,2.795,0.6  c-0.199,0.201-0.332,0.334-0.464,0.4c-2.331,1.532-4.994,4.794-6.659,8.92c-0.067,0.066-0.067,0.199-0.132,0.268  c-0.6,0.932-1.266,2.53-2.065,4.993c-2.396,6.791-4.394,9.788-7.99,11.719c-3.062,1.663-5.793,2.062-13.782,2.062  c-8.255,0-10.053,0.4-12.516,2.53c-4.395,3.729-5.06,11.119-2.064,21.373c2.73,9.254,2.596,13.516-0.933,23.902  c-1.93,5.725-2.197,6.924-2.197,9.387c0,1.864,0.2,3.262,0.599,4.129c0.865,1.798,3.596,3.996,6.259,5.126  c2.995,1.132,18.043,4.86,28.829,6.99c16.711,3.396,22.704,5.194,38.217,11.386c13.782,5.46,19.642,7.459,24.302,8.191  c2.197,0.331,6.725-0.066,8.789-0.867c2.463-0.866,4.794-2.463,9.92-6.791c9.055-7.59,13.982-9.986,24.103-11.585  c3.795-0.6,7.257-0.666,36.219-0.666c17.579,0,33.091,0.133,34.49,0.332c3.262,0.4,4.526,1.466,7.257,6.26  c4.194,7.523,9.321,10.852,18.644,12.251c4.393,0.666,11.916,0.732,15.381,0.199c7.588-1.267,11.385-3.529,19.973-12.118  c9.987-10.053,19.31-16.379,32.426-22.104c6.656-2.93,9.652-4.593,17.512-9.92c9.652-6.526,11.517-8.591,11.517-12.851  c0-4.46-2.397-7.258-11.253-13.115c-8.455-5.595-12.251-8.989-15.778-14.184c-2.464-3.66-3.33-6.457-3.662-11.917  c-0.133-2.53-0.398-4.262-0.732-5.325c-0.334-3.795-1.864-8.123-4.593-9.522c-3.797-1.997-5.128-1.397-6.393-0.599  c4.261-4.795,5.658-7.057,7.058-11.186c2.464-7.324,1.931-15.515-2.33-36.819c-4.927-24.769-13.315-42.479-30.628-64.717  c-10.985-14.182-15.446-21.24-26.164-41.346c-5.326-10.054-6.858-13.517-8.124-18.909c-1.865-7.79-2.729-14.781-4.127-34.688  c-1.333-18.577-2.264-26.234-3.995-32.692c-4.594-17.577-18.376-30.893-37.616-36.419C202.925,7.203,199.397,6.736,188.345,6.737  L188.345,6.737z"
     id="path8765" /><g
     transform="translate(-200.8403,-238.943)"
     id="g8773"><path
       fill="#F8BF11"
       d="M430.072,355.547c0,9.286-11.063,11.247-16.429,14.577c-4.994,4.625-33.741,17.686-41.363,17.686   c-12.247-2.589-27.156-20.867-29.079-33.002c0-7.066,8.989-12.727,14.021-17.352c4.994-4.625,10.766-8.99,20.608-7.141   c7.622,0,19.534,3.625,24.529,8.25C412.351,341.894,430.072,344.04,430.072,355.547z"
       id="path8767" /><path
       fill="#F8BF11"
       d="M228.652,603.693c11.377,5.181,37.886,11.804,47.209,12.913c6.253,2.59,47.542,12.209,57.051,12.209   c14.096-9.988,16.427-25.122,12.469-40.439c-17.575-28.376-31.152-65.56-64.008-78.362c-3.292,1.629-5.994,6.031-7.177,6.772   c-2.368,1.515-4.994,4.81-6.66,8.917c-1.738,4.291-3.33,9.545-5.269,17.204c-3.795,7.622-19.294,0.739-29.91,6.29   C228.489,560.922,235.094,589.857,228.652,603.693z"
       id="path8769" /><path
       fill="#F8BF11"
       d="M534.479,560.221c7.104,5.809,18.242,10.137,23.273,19.795c-9.583,11.432-17.834,15.465-29.97,21.236   c-16.647,7.917-27.082,15.354-34.702,20.532c-7.624,6.66-25.308,10.73-33.336,9.621c-5.069-3.331-10.767-43.77-8.918-56.979   c0-7.03-8.62-35.185,5.181-52.353c13.356-2.553,24.826,9.656,33.297,17.981c6.994-4.699,18.059-11.915,26.418-13.726   c2.738-0.63,2.85-3.479,8.583-0.482c2.738,1.443,4.329,5.957,4.627,9.805C529.413,541.869,530.04,555.04,534.479,560.221   L534.479,560.221z"
       id="path8771" /></g><g
     transform="translate(-200.8403,-238.943)"
     id="g8779"><g
       transform="matrix(0.55569,0,0,0.55569,249.6684,292.4824)"
       id="g8777"><path
         d="M133.894,621.23c-8.389-1.33-18.975-4.659-43.745-14.648c-27.964-11.316-38.683-13.982-68.776-20.637    c-19.376-3.33-46.547-10.323-51.854-12.453c-4.801-1.928-9.787-5.924-11.312-9.188c-0.712-1.464-1.086-4.06-1.086-7.392    c0-4.525,0.482-6.525,3.97-16.845c6.335-18.774,6.643-26.433,1.715-43.075c-5.454-18.444-4.178-31.759,3.683-38.483    c4.441-3.794,7.676-4.46,22.504-4.46c14.408,0,19.275-0.733,24.855-3.794c6.424-3.529,10.04-8.855,14.302-21.108    c2.728-7.924,4.525-11.05,6.255-11.05c1.4,0,2.599,3.46,2.599,7.655c0,3.726-4.196,19.438-6.259,23.5    c-2.197,4.395-5.194,7.79-8.65,9.787c-6.443,3.796-18.862,4.796-32.484,2.731c-8.702-1.395-13.696-1.065-17.024,0.931    c-4.927,2.996-5.733,9.724-2.157,18.047c6.924,16.043,8.249,19.507,9.715,24.899c1.737,6.458,2.017,12.119,0.924,18.843    c-1.085,6.659-2.996,10.852-8.649,18.776c-2.915,4.126-5.586,8.522-5.939,9.854c-0.998,3.597,0.473,6.327,4.441,8.388    c3.37,1.666,51.415,14.115,85.358,21.774c10.453,2.661,29.494,7.323,42.278,10.65c12.851,3.332,26.167,5.993,29.628,6.659    c10.719,1.33,20.641,0,27.496-3.996c9.522-5.989,16.18-19.772,16.979-35.819c0.532-10.586-1.797-20.108-7.989-32.426    c-4.727-9.453-7.058-13.115-29.495-47.003c-39.615-59.658-56.793-79.564-71.44-82.629c-4.727-0.931-7.856-0.401-14.183,2.464    c-6.058,2.729-8.123,2.863-9.587,0.664c-1.4-2.128-2.529-14.047-2.132-22.704c0.468-10.054,2.398-16.045,9.722-30.292    C62.073,320.752,68,307.301,77.918,280.27c10.187-27.698,14.316-35.356,30.361-56.263c8.788-11.384,19.443-26.431,26.966-38.018    c2.864-4.328,8.389-12.383,12.317-17.91c11.187-15.713,11.719-17.178,10.654-30.561c-1.6-20.174-4.263-87.821-4.263-109.925    c-0.068-21.039,0.067-24.235,1.4-32.758c2.73-17.418,6.989-30.486,13.647-41.806c2.529-4.422,5.393-7.917,10.786-13.363    c10.786-10.879,20.108-16.099,35.887-20.227c12.85-3.364,16.113-3.698,35.357-3.681c19.837,0.017,26.164,0.802,40.945,5.049    c34.622,9.947,59.456,33.93,67.781,65.508c3.061,11.651,4.726,25.5,7.123,58.924c2.529,35.754,4.06,48.336,7.457,62.451    c2.262,9.588,4.993,15.914,14.583,33.957c19.308,36.219,27.297,48.871,47.072,74.303c31.158,40.081,46.209,71.907,55.129,116.517    c7.655,38.35,8.59,53.063,4.193,66.315c-2.661,7.989-5.258,11.982-14.381,22.036c-19.177,21.24-40.547,34.557-55.194,34.557    c-13.316,0-25.5-9.054-34.223-25.5c-4.06-9.054-3.529-16.314-15.179-13.716c-5.661,1.529-10.321,8.388-11.72,17.245    c-1.065,6.327-0.863,30.561,0.271,36.617c0.464,2.731,2.06,10.854,3.395,17.98c2.394,12.316,2.527,13.646,2.527,26.298    c0,11.651-0.265,15.18-2.199,27.964c-1.796,11.987-2.13,16.115-1.93,22.637c0.265,7.594,0.399,8.325,2.662,13.05    c2.729,5.993,8.722,12.651,13.913,15.982c11.453,7.325,27.431,7.989,40.88,1.332c3.796-2,9.325-5.993,18.644-13.318    c15.115-12.251,26.368-20.039,34.889-24.37c3.262-1.597,11.121-4.594,17.446-6.659c26.234-8.453,38.216-13.511,44.873-19.04    c7.926-6.46,11.72-13.449,10.321-18.709c-1.796-6.525-9.321-11.186-24.702-15.182c-11.583-3.061-14.381-4.46-19.108-9.652    c-4.193-4.597-7.457-11.188-9.852-19.974c-2.332-8.59-2.666-22.503-0.666-27.964c1.395-3.864,2.796-5.662,4.392-5.662    c1.868,0,2.8,3.262,3.332,11.985c0.664,9.724,2.197,14.848,6.657,21.373c6.325,9.39,13.05,15.446,28.296,25.565    c15.913,10.521,20.308,15.583,20.308,23.637c0,7.659-3.395,11.386-20.707,23.036c-14.18,9.59-19.507,12.651-31.489,17.846    c-23.637,10.319-40.418,21.772-58.461,39.747c-15.446,15.314-22.169,19.976-35.953,21.973c-6.191,0.664-19.709,0.664-27.63-0.666    c-16.78-1.996-25.9-7.989-33.557-21.971c-4.859-8.655-7.126-10.651-12.982-11.321c-2.532,0-30.494-0.664-62.187-0.664    c-52.066,0-58.324,0.664-65.051,1.334c-18.241,3.327-27.23,7.323-43.477,20.641c-9.188,7.989-13.381,10.651-17.844,12.648    c-3.661,1.334-11.852,2-15.779,1.334L133.894,621.23z M193.949,578.288c1.467-1.267,3.664-4.195,4.927-6.525    c1.998-3.731,2.266-4.861,2.464-10.587c0.467-10.521-1.795-16.446-9.255-24.303c-5.126-5.392-5.858-7.722-2.929-9.054    c2.731-1.197,6.191,0.332,12.385,5.525c11.716,9.917,18.64,11.586,44.208,11.05c27.498-0.664,42.48-3.525,57.593-11.119    c9.785-4.928,16.245-10.518,24.435-21.37c5.792-7.594,8.388-10.191,11.651-11.518c5.393-2.267,8.256,2.13,8.123,12.583    c-0.067,4.859-0.599,7.924-2.798,16.047c-5.991,21.637-7.856,33.823-6.191,40.014c0.996,3.597,4.126,6.323,6.991,6.061    c1.998-0.202,2.063-0.334,2.596-4.198c0.269-2.197,1.399-9.65,2.532-16.642c1.065-6.926,2.395-15.915,2.993-19.973    c1.399-10.521,2.466-43.147,2.532-78.568c0.067-30.557,0.067-30.626,1.666-35.288c1.262-3.592,2.394-5.392,4.993-7.989    c4.061-3.993,7.856-5.46,16.446-6.058l5.724-0.467l0.801-4.061c1.928-9.254,7.457-14.514,18.374-17.442    c3.529-0.935,7.058-1.265,14.648-1.265c10.985,0,14.05,0.664,23.967,5.46c4.465,2.13,8.325,2.863,8.325,1.597    c0-1-5.392-6.058-9.724-9.123c-2.258-1.666-6.19-3.796-8.652-4.796c-3.395-1.395-4.661-2.26-4.794-3.262    c-0.134-0.796,0.866-5.258,2.198-9.984c3.859-13.982,5.123-22.841,5.19-36.156c0.137-21.902-3.726-36.417-16.442-60.985    c-11.787-22.772-24.238-39.483-34.09-45.743c-2.865-1.733-6.26-2.93-6.26-2.197c0,0.266,2.397,3.793,5.26,7.921    c13.583,19.243,27.698,43.813,33.691,58.791c4.859,11.985,8.521,28.231,9.655,43.01c1.928,24.236-4.662,44.942-15.98,50.005    c-2.265,1.065-4.794,1.464-10.323,1.596c-8.787,0.336-9.985-0.132-12.316-4.792l-1.664-3.328l-0.399-26.633    c-0.734-45.342-2.865-53.064-26.631-96.01c-7.327-13.181-8.79-16.645-11.919-28.627c-6.393-24.636-12.585-39.084-22.307-52.136    c-14.846-19.84-16.778-28.096-10.852-46.406c3.792-11.918,3.727-18.043-0.267-22.105c-2.93-2.995-5.193-4.061-18.576-8.322    c-20.307-6.458-29.693-12.251-32.292-19.909c-2.597-7.522-0.735-19.773,3.93-25.833c3.327-4.393,7.59-6.258,14.115-6.258    c4.327,0.067,6.058,0.399,9.054,1.731c4.594,2.198,8.254,5.327,10.119,8.855c2,3.794,1.933,12.782-0.132,19.375    c-3.397,10.719-3.263,9.588-0.866,11.718c4.33,3.862,11.186,4.194,14.182,0.599c2.597-3.063,3.395-6.192,3.731-14.981    c0.399-9.587-0.601-15.979-4.529-28.031c-5.392-16.512-10.785-21.306-27.097-23.969c-12.184-1.996-18.843-0.399-24.967,5.926    c-9.59,9.987-14.383,25.9-12.453,41.88c1.067,8.855,0.866,9.254-4.126,7.657c-4.46-1.399-14.249-2.53-19.909-2.331    c-6.06,0.266-6.59-0.266-6.59-7.059c-0.069-27.63-8.39-42.678-23.638-42.545c-10.586,0-19.176,8.058-22.371,20.84    c-1.265,4.994-0.999,19.309,0.4,27.63c2.864,16.378,9.054,24.568,13.914,18.177c1.998-2.73,3.73-6.191,3.73-7.324    c0-0.466-1.532-1.532-3.331-2.396c-1.996-0.932-3.793-2.398-4.594-3.729c-3.795-6.059-5.658-16.912-4.061-22.705    c2.065-7.325,12.119-11.851,19.043-8.588c5.86,2.795,12.119,15.713,11.454,23.835c-0.532,6.459-1.732,8.457-7.592,12.782    c-2.93,2.132-7.656,5.993-10.586,8.589c-2.93,2.598-6.523,5.593-7.989,6.659c-7.457,5.393-11.652,11.718-11.652,17.71    c0,3.929,1.6,6.059,6.593,8.522c3.929,1.997,7.458,5.459,11.186,10.919c4.995,7.192,10.919,9.456,24.502,9.389    c16.578-0.067,31.426-3.596,59.256-13.982c15.114-5.661,19.308-7.458,20.175-8.788c2.464-3.597,5.327-6.126,7.058-6.126    c2.33,0,4.395,2.197,4.395,4.595c0,4.061-6.258,7.39-27.964,14.78c-6.392,2.198-16.314,6.193-21.971,8.855    c-11.453,5.46-14.65,6.592-22.173,8.057c-6.195,1.198-20.507,1.331-28.363,0.266c-6.392-0.866-10.253-0.399-9.92,1.265    c0.334,1.731,15.114,13.249,18.511,14.514c4.792,1.664,14.248,1.997,20.371,0.599c9.254-1.998,38.485-14.582,52.999-22.705    c4.859-2.729,7.59-3.862,9.321-3.862c2.931-0.067,5.193,1.798,5.193,4.128c0,2.531-4.928,6.857-10.319,9.122    c-9.522,3.862-11.518,4.928-20.973,10.919c-12.917,8.255-18.577,12.383-27.099,19.841c-9.123,7.922-11.718,8.988-21.839,9.121    c-8.056,0.066-10.518-0.733-15.779-5.26c-4.127-3.529-13.982-15.78-16.779-20.906c-2.928-5.328-9.453-12.718-11.185-12.718    c-1.132,0-1.264,0.266-3.196,8.656c-1.333,5.993-6.259,17.311-14.249,32.956c-9.586,18.843-10.054,20.508-10.054,40.282    c0,16.511,0.4,15.114-7.658,26.3c-9.853,13.849-25.166,50.002-28.827,68.244c-2.797,13.65-4.728,36.888-4.196,49.936    c0.399,10.39-0.134,13.451-2.596,14.983c-2.532,1.597-5.527-0.069-11.719-6.195c-9.723-9.787-12.849-17.91-12.784-33.422    c0.069-9.855,0.933-17.447,2.863-24.77c1.666-6.258,1.731-8.056,0.202-7.722c-1.601,0.265-5.195,7.657-6.925,14.247    c-1.065,3.928-1.466,7.987-1.732,16.247c-0.268,10.119-0.199,11.585,1.398,18.641c1.998,8.855,5.791,17.112,11.052,24.036    c8.055,10.653,48.871,46.873,76.033,67.579c6.525,4.928,13.782,11.122,16.18,13.72c14.381,15.577,11.586,29.826-8.056,40.812    c-3.063,1.731-5.596,3.263-5.596,3.395c0,0.134,2.532,3.662,5.596,7.724c11.25,15.18,17.775,26.303,20.041,34.09    c1.531,5.126,1.464,12.514-0.201,17.245c-0.666,2.128-1.065,3.859-0.799,3.859C191.088,580.618,192.483,579.284,193.949,578.288    L193.949,578.288z M205.469,82.526c-2.064-3.928,1.797-7.323,8.389-7.323c2.33,0,4.393,0.265,4.594,0.664    c0.467,0.8-1.8,1.997-3.795,1.997c-1.198,0-1.864,0.666-2.862,2.864c-1.067,2.33-1.663,2.863-3.462,2.996    C206.733,83.858,206.066,83.592,205.469,82.526z M244.951,79.664c-3.863-1.398-6.857-3.33-6.126-4.062    c0.2-0.199,2.464-0.532,4.993-0.798c5.993-0.533,8.256,0.333,8.256,2.995c0,1.332-0.466,2.264-1.264,2.73    c-0.733,0.333-1.399,0.665-1.532,0.599C249.211,81.128,247.213,80.464,244.951,79.664z M106.329,266.292    c6.392-6.594,8.19-9.921,7.79-14.65c-0.199-3.263-1.466-4.394-4.128-3.728c-1.931,0.466-2.996,2.464-4.727,8.522    c-0.734,2.93-1.931,4.86-4.661,7.925c-3.662,4.125-4.328,5.655-2.864,7.121C99.271,273.014,100.538,272.281,106.329,266.292    L106.329,266.292z M362.399,153.902c1.397-0.866,4.195-7.724,4.195-10.32c0-2.065-0.399-2.996-2.063-4.528    c-1.134-1.066-2.332-1.93-2.666-1.93c-0.332,0-2.928-1.066-5.792-2.463c-3.462-1.664-6.525-3.729-9.522-6.659    c-2.395-2.263-4.726-4.194-5.125-4.194c-0.401,0-0.933,0.799-1.199,1.73c-0.735,3.064,0.33,7.79,3.128,13.383    c2.397,4.994,3.262,5.994,8.789,10.521C358.069,154.301,360.267,155.233,362.399,153.902L362.399,153.902z M202.206,64.749    c0.799-2.063,0.597-3.661-1.466-10.385c-0.865-2.93-2.131-5.393-3.462-6.859c-1.931-2.064-2.263-2.197-3.795-1.397    c-2.198,1.198-1.996,3.862,0.599,6.791c1.931,2.198,3.596,6.392,4.393,11.187C199.008,67.146,201.14,67.546,202.206,64.749    L202.206,64.749z M296.019,62.886c1.464-1.731,0.397-9.987-1.601-13.049c-2.063-3.129-6.856-5.992-10.65-6.392    c-2.532-0.332-2.996-0.133-3.731,1.132c-0.931,1.731-0.467,2.264,2.796,3.263c4.128,1.331,7.924,6.991,8.924,13.25    c0.397,2.33,0.729,2.796,1.928,2.796C294.551,63.884,295.551,63.418,296.019,62.886z M300.479-26.799    c4.792-3.309,5.126-3.455,9.72-3.576c5.859-0.152,7.126-0.645,7.126-2.71c0-3.215-11.054-13.016-15.716-13.882    c-4.659-0.879-6.323,1.651-7.255,11.125c-0.401,3.543-0.868,5.02-2.401,6.918c-2.061,2.617-2.395,4.154-1.065,5.473    C292.221-22.085,295.084-23.091,300.479-26.799z"
         id="path8775" /></g></g><path
     style="fill:#ff0000;stroke:#000000;stroke-width:1px;stroke-linecap:butt;stroke-linejoin:miter;stroke-opacity:1"
     d="m 220.72318,203.64419 c 1.63186,-9.14855 5.79063,-8.64888 9.46753,-9.98907 7.61572,-0.67996 13.7732,0.53039 10.94629,13.38718 -3.85196,14.19437 -12.71243,17.87087 -20.21123,24.40688 -9.3711,-8.30107 -18.92388,-16.60213 -20.47709,-24.9032 -2.37424,-8.78866 -0.42588,-14.3197 10.67027,-12.95676 5.53663,1.14988 10.78389,2.57259 9.60423,10.05497 z"
     id="path8803"
     inkscape:connector-curvature="0"
     sodipodi:nodetypes="ccccccc" /></svg>