<?xml version="1.0" encoding="utf-8"?>
<!-- Generator: Adobe Illustrator 23.0.6, SVG Export Plug-In . SVG Version: 6.00 Build 0)  -->
<svg version="1.1" id="Layer_1" xmlns="http://www.w3.org/2000/svg" xmlns:xlink="http://www.w3.org/1999/xlink" x="0px" y="0px"
	 viewBox="0 0 2500 3115.2" style="enable-background:new 0 0 2500 3115.2;" xml:space="preserve">
<style type="text/css">
	.st0{fill:url(#SVGID_1_);}
	.st1{fill:url(#SVGID_2_);}
	.st2{fill:#191D1F;}
</style>
<linearGradient id="SVGID_1_" gradientUnits="userSpaceOnUse" x1="1105.5282" y1="1525.3972" x2="1106.1952" y2="1524.7355" gradientTransform="matrix(1849.2675 0 0 -1853.3917 -2044182.375 2827388)">
	<stop  offset="0" style="stop-color:#387EB8"/>
	<stop  offset="1" style="stop-color:#366994"/>
</linearGradient>
<path class="st0" d="M1239.3,0.1c-633.1,0-593.5,274.7-593.5,274.7l0.7,284.6h604.1v85.4H406.5c0,0-405.1-46-405.1,593.1
	C1.4,1877,355,1854.3,355,1854.3h211v-296.6c0,0-11.4-353.8,347.9-353.8h599.2c0,0,336.6,5.4,336.6-325.5V331.3
	C1849.8,331.3,1900.9,0.1,1239.3,0.1z M906.2,191.5c60-0.1,108.6,48.5,108.7,108.5c0,0.1,0,0.1,0,0.2c0.1,60-48.5,108.7-108.5,108.7
	c-0.1,0-0.1,0-0.2,0c-60,0.1-108.6-48.5-108.7-108.5c0-0.1,0-0.1,0-0.2c-0.1-60,48.5-108.7,108.5-108.7
	C906.1,191.5,906.1,191.5,906.2,191.5z"/>
<linearGradient id="SVGID_2_" gradientUnits="userSpaceOnUse" x1="1105.59" y1="1525.3114" x2="1106.3063" y2="1524.6328" gradientTransform="matrix(1849.2671 0 0 -1853.3918 -2043537.5 2828015.5)">
	<stop  offset="0" style="stop-color:#FFE052"/>
	<stop  offset="1" style="stop-color:#FFC331"/>
</linearGradient>
<path class="st1" d="M1257.3,2482.1c633.1,0,593.5-274.7,593.5-274.7l-0.7-284.6H1246v-85.4H2090c0,0,405.1,46,405.1-593.1
	c0-639.1-353.6-616.4-353.6-616.4h-211v296.6c0,0,11.4,353.8-347.9,353.8H983.4c0,0-336.6-5.4-336.6,325.5v547.2
	C646.8,2150.9,595.7,2482.1,1257.3,2482.1L1257.3,2482.1z M1590.4,2290.7c-60,0.1-108.6-48.5-108.7-108.5c0-0.1,0-0.1,0-0.2
	c-0.1-60,48.5-108.7,108.5-108.7c0.1,0,0.1,0,0.2,0c60-0.1,108.6,48.5,108.7,108.5c0,0.1,0,0.1,0,0.2c0.1,60-48.5,108.7-108.5,108.7
	C1590.5,2290.7,1590.5,2290.7,1590.4,2290.7L1590.4,2290.7z"/>
<g>
	<g>
		<path class="st2" d="M358.4,2718.9h36l3.7,29.7h1.5c23.3-19.4,52.3-36.1,82.1-36.1c66.6,0,102.1,51.7,102.1,131.3
			c0,87.8-52.7,139.1-111.6,139.1c-23.6,0-47.8-10.9-71.4-29.8l1.2,45v87.2h-43.6V2718.9z M538.7,2844.2c0-56.9-19.4-95-67.9-95
			c-21.8,0-43.8,12-68.9,35.2v135c23.3,19.6,45.7,26.8,62.7,26.8C507.3,2946.2,538.7,2907.8,538.7,2844.2z"/>
		<path class="st2" d="M681.2,3082.3l8.5-34.7c5.1,1.7,13,3.8,19.6,3.8c29.1,0,47.4-23.3,58.1-55.3l5.9-19L670,2718.9h44.9
			l52.6,142.6c8.1,22.4,16.7,48.8,25.1,72.6h2.1c7.3-23.4,14.6-49.8,21.6-72.6l45.9-142.6H905l-97.1,278.8
			c-18.2,51.1-44.8,89.8-96.4,89.8C699.5,3087.6,689.6,3085.5,681.2,3082.3z"/>
		<path class="st2" d="M1016.8,2896.9v-142.5h-38.3v-33l40.3-2.5l5.2-72.3h36.4v72.3h69.8v35.5h-69.8v143.2
			c0,31.5,10.2,49.7,39.8,49.7c9.1,0,21-3.5,29.3-6.9l8.4,32.9c-14.4,4.9-31.7,9.5-47.8,9.5
			C1035.4,2982.9,1016.8,2948.2,1016.8,2896.9z"/>
		<path class="st2" d="M1242.9,2599h43.6v103.3l-1.6,52.9c24-23.3,50.2-42.6,85.5-42.6c54.3,0,78.7,35,78.7,100.8v163.2h-43.6
			v-157.6c0-48-14.5-68.5-48.6-68.5c-26.3,0-44.6,13.4-70.4,39.6v186.6h-43.6V2599z"/>
		<path class="st2" d="M1566.7,2848.1c0-86,56.2-135.5,119.4-135.5s119.4,49.5,119.4,135.5c0,85.3-56.2,134.8-119.4,134.8
			S1566.7,2933.4,1566.7,2848.1z M1760.4,2848.1c0-59-30-99.2-74.3-99.2c-44.3,0-74.3,40.2-74.3,99.2c0,59,30,98.5,74.3,98.5
			C1730.4,2946.6,1760.4,2907.1,1760.4,2848.1z"/>
		<path class="st2" d="M1927.7,2718.9h36l3.7,37.2h1.5c24.5-24.2,51-43.5,86.4-43.5c54.3,0,78.7,35,78.7,100.8v163.2h-43.6v-157.6
			c0-48-14.5-68.5-48.6-68.5c-26.3,0-44.6,13.4-70.4,39.6v186.6h-43.6V2718.9z"/>
	</g>
</g>
</svg>
